<?xml version="1.0" encoding="utf-8"?>
<!-- Generator: Adobe Illustrator 23.0.1, SVG Export Plug-In . SVG Version: 6.00 Build 0)  -->
<svg version="1.1" id="Layer_1" xmlns="http://www.w3.org/2000/svg" xmlns:xlink="http://www.w3.org/1999/xlink" x="0px" y="0px"
	 viewBox="0 0 612 792" style="enable-background:new 0 0 612 792;" xml:space="preserve">
<style type="text/css">
	.st0{fill:#007934;}
	.st1{fill:#7BC580;}
	.st2{fill:#7CC680;}
	.st3{fill:#00A04E;}
	.st4{fill:#00793F;}
</style>
<path d="M442.37,353.72H132.02c-11.92,0-21.61-9.69-21.61-21.61V181.07c0-11.92,9.69-21.61,21.61-21.61h310.35
	c11.92,0,21.61,9.69,21.61,21.61v151.04C463.98,344.03,454.29,353.72,442.37,353.72z M132.02,160.8c-11.18,0-20.27,9.09-20.27,20.27
	v151.04c0,11.18,9.09,20.27,20.27,20.27h310.35c11.18,0,20.27-9.09,20.27-20.27V181.07c0-11.18-9.09-20.27-20.27-20.27H132.02z"/>
<g>
	<g>
		<path d="M236.21,302.88c-1.43,1.23-3.04,2.18-4.81,2.84c-1.78,0.66-3.62,0.99-5.52,0.99c-1.46,0-2.87-0.19-4.22-0.57
			c-1.35-0.38-2.62-0.92-3.8-1.61c-1.18-0.69-2.26-1.53-3.23-2.5c-0.97-0.97-1.81-2.05-2.5-3.23c-0.7-1.18-1.23-2.45-1.61-3.8
			c-0.38-1.35-0.57-2.76-0.57-4.22c0-1.46,0.19-2.87,0.57-4.23c0.38-1.36,0.92-2.63,1.61-3.81c0.69-1.18,1.53-2.26,2.5-3.24
			c0.97-0.97,2.05-1.81,3.23-2.5c1.18-0.69,2.45-1.23,3.8-1.61c1.35-0.38,2.76-0.57,4.22-0.57c1.91,0,3.75,0.33,5.52,0.98
			c1.78,0.65,3.38,1.6,4.81,2.85l-3.27,5.37c-0.9-0.97-1.97-1.72-3.2-2.25c-1.23-0.52-2.52-0.78-3.87-0.78
			c-1.36,0-2.64,0.26-3.83,0.77c-1.19,0.52-2.23,1.21-3.12,2.1c-0.89,0.88-1.59,1.92-2.11,3.12c-0.52,1.2-0.77,2.47-0.77,3.81
			s0.26,2.61,0.77,3.79c0.52,1.18,1.22,2.22,2.11,3.11c0.89,0.89,1.93,1.59,3.12,2.11c1.19,0.52,2.46,0.77,3.83,0.77
			c1.35,0,2.64-0.26,3.87-0.78c1.23-0.52,2.3-1.27,3.2-2.25L236.21,302.88z"/>
		<path d="M245.06,306.04h-5.91v-32.18h5.91V306.04z"/>
		<path d="M271.78,294.32c0,1.72-0.31,3.32-0.92,4.8c-0.62,1.48-1.45,2.77-2.51,3.85c-1.06,1.08-2.3,1.93-3.73,2.56
			c-1.43,0.62-2.96,0.94-4.59,0.94c-1.62,0-3.14-0.31-4.57-0.94c-1.43-0.62-2.67-1.48-3.74-2.56c-1.07-1.08-1.91-2.36-2.53-3.85
			c-0.62-1.48-0.92-3.08-0.92-4.8c0-1.75,0.31-3.37,0.92-4.86c0.62-1.49,1.46-2.78,2.53-3.86c1.07-1.08,2.31-1.93,3.74-2.55
			c1.43-0.62,2.95-0.92,4.57-0.92c1.63,0,3.16,0.29,4.59,0.87c1.43,0.58,2.67,1.4,3.73,2.47c1.06,1.07,1.9,2.35,2.51,3.85
			C271.47,290.82,271.78,292.49,271.78,294.32z M265.87,294.32c0-0.95-0.15-1.8-0.46-2.57c-0.31-0.77-0.73-1.43-1.26-1.98
			c-0.53-0.55-1.15-0.97-1.86-1.27c-0.71-0.29-1.47-0.44-2.27-0.44c-0.8,0-1.56,0.15-2.27,0.44c-0.71,0.29-1.33,0.72-1.85,1.27
			c-0.52,0.55-0.94,1.21-1.24,1.98c-0.3,0.77-0.45,1.62-0.45,2.57c0,0.89,0.15,1.71,0.45,2.47c0.3,0.76,0.71,1.42,1.24,1.98
			c0.52,0.56,1.14,1,1.85,1.32c0.71,0.32,1.46,0.48,2.27,0.48c0.8,0,1.56-0.15,2.27-0.45c0.71-0.3,1.33-0.72,1.86-1.27
			c0.53-0.54,0.95-1.2,1.26-1.98C265.72,296.11,265.87,295.25,265.87,294.32z"/>
		<path d="M291.94,303.35c-0.47,0.43-0.98,0.83-1.52,1.21c-0.54,0.38-1.1,0.71-1.69,0.99c-0.59,0.28-1.19,0.5-1.82,0.67
			c-0.62,0.16-1.26,0.25-1.9,0.25c-1.42,0-2.75-0.25-4-0.75c-1.25-0.5-2.34-1.21-3.28-2.14c-0.94-0.92-1.68-2.05-2.21-3.37
			c-0.54-1.33-0.81-2.81-0.81-4.46v-12.72h5.85v12.72c0,0.77,0.12,1.46,0.35,2.07c0.24,0.61,0.55,1.12,0.96,1.54
			c0.4,0.42,0.87,0.73,1.41,0.95c0.54,0.22,1.11,0.32,1.73,0.32c0.6,0,1.17-0.14,1.71-0.42c0.54-0.28,1.01-0.65,1.41-1.11
			c0.4-0.46,0.72-0.98,0.95-1.56c0.23-0.58,0.34-1.18,0.34-1.79v-12.72h5.87v23.02h-1.42L291.94,303.35z"/>
		<path d="M322.01,306.04h-1.42l-2.28-3.16c-0.56,0.5-1.15,0.97-1.77,1.41c-0.62,0.44-1.28,0.82-1.97,1.14
			c-0.69,0.32-1.39,0.58-2.12,0.76c-0.72,0.19-1.46,0.28-2.2,0.28c-1.62,0-3.14-0.3-4.57-0.91c-1.43-0.61-2.67-1.45-3.74-2.54
			c-1.07-1.08-1.91-2.36-2.53-3.85c-0.62-1.48-0.92-3.1-0.92-4.85c0-1.73,0.31-3.35,0.92-4.84c0.62-1.49,1.46-2.78,2.53-3.87
			c1.07-1.09,2.31-1.94,3.74-2.56c1.43-0.62,2.95-0.92,4.57-0.92c0.52,0,1.05,0.04,1.6,0.13c0.55,0.09,1.09,0.23,1.61,0.42
			c0.52,0.19,1.01,0.45,1.47,0.76c0.46,0.32,0.85,0.7,1.16,1.16v-10.75h5.91V306.04z M316.1,294.32c0-0.8-0.15-1.58-0.46-2.33
			c-0.31-0.75-0.73-1.42-1.26-2c-0.53-0.58-1.15-1.05-1.86-1.4c-0.71-0.35-1.47-0.53-2.27-0.53c-0.8,0-1.56,0.14-2.27,0.43
			c-0.71,0.29-1.33,0.7-1.85,1.24c-0.52,0.54-0.94,1.19-1.24,1.97c-0.3,0.77-0.45,1.65-0.45,2.62c0,0.85,0.15,1.65,0.45,2.41
			c0.3,0.76,0.71,1.43,1.24,2c0.52,0.57,1.14,1.02,1.85,1.35c0.71,0.33,1.46,0.49,2.27,0.49c0.8,0,1.56-0.18,2.27-0.53
			c0.71-0.35,1.33-0.82,1.86-1.4c0.53-0.58,0.95-1.25,1.26-2C315.95,295.9,316.1,295.12,316.1,294.32z"/>
		<path class="st0" d="M335.64,300.4c0.23,0.07,0.46,0.12,0.69,0.14c0.23,0.02,0.46,0.03,0.69,0.03c0.57,0,1.13-0.08,1.66-0.24
			c0.53-0.16,1.03-0.38,1.49-0.68c0.47-0.29,0.88-0.65,1.25-1.07c0.37-0.42,0.66-0.89,0.89-1.41l4.3,4.32
			c-0.54,0.77-1.17,1.47-1.88,2.08c-0.71,0.62-1.48,1.14-2.3,1.57c-0.82,0.43-1.69,0.76-2.6,0.98c-0.91,0.22-1.85,0.33-2.81,0.33
			c-1.62,0-3.14-0.3-4.57-0.9c-1.43-0.6-2.67-1.44-3.74-2.51c-1.07-1.08-1.91-2.35-2.53-3.84c-0.62-1.48-0.92-3.11-0.92-4.89
			c0-1.82,0.31-3.48,0.92-4.99c0.62-1.5,1.46-2.79,2.53-3.85c1.07-1.06,2.31-1.88,3.74-2.47c1.43-0.59,2.95-0.88,4.57-0.88
			c0.96,0,1.9,0.12,2.82,0.34s1.79,0.56,2.61,0.99c0.82,0.43,1.59,0.96,2.31,1.58c0.72,0.62,1.35,1.32,1.89,2.1L335.64,300.4z
			 M338.65,288.3c-0.27-0.1-0.54-0.16-0.81-0.19c-0.27-0.03-0.54-0.04-0.83-0.04c-0.8,0-1.56,0.15-2.27,0.44
			c-0.71,0.29-1.33,0.71-1.85,1.26c-0.52,0.54-0.93,1.2-1.24,1.97c-0.3,0.77-0.45,1.63-0.45,2.59c0,0.21,0.01,0.46,0.03,0.73
			c0.02,0.27,0.06,0.55,0.11,0.83c0.05,0.28,0.11,0.55,0.18,0.81c0.07,0.26,0.16,0.49,0.28,0.69L338.65,288.3z"/>
		<path class="st1" d="M371.66,306.04h-1.42l-2.28-3.16c-0.56,0.5-1.15,0.97-1.77,1.41s-1.28,0.82-1.97,1.14
			c-0.69,0.32-1.39,0.58-2.12,0.76c-0.72,0.19-1.46,0.28-2.2,0.28c-1.62,0-3.14-0.3-4.57-0.91c-1.43-0.61-2.67-1.45-3.74-2.54
			c-1.07-1.08-1.91-2.36-2.53-3.85c-0.62-1.48-0.92-3.1-0.92-4.85c0-1.73,0.31-3.35,0.92-4.84c0.62-1.49,1.46-2.78,2.53-3.87
			c1.07-1.09,2.31-1.94,3.74-2.56c1.43-0.62,2.95-0.92,4.57-0.92c0.52,0,1.05,0.04,1.6,0.13c0.55,0.09,1.09,0.23,1.61,0.42
			c0.52,0.19,1.01,0.45,1.47,0.76c0.46,0.32,0.85,0.7,1.16,1.16v-10.75h5.91V306.04z M365.75,294.32c0-0.8-0.15-1.58-0.46-2.33
			c-0.31-0.75-0.73-1.42-1.26-2c-0.53-0.58-1.15-1.05-1.86-1.4c-0.71-0.35-1.47-0.53-2.27-0.53c-0.8,0-1.56,0.14-2.27,0.43
			c-0.71,0.29-1.33,0.7-1.85,1.24c-0.52,0.54-0.94,1.19-1.24,1.97c-0.3,0.77-0.45,1.65-0.45,2.62c0,0.85,0.15,1.65,0.45,2.41
			c0.3,0.76,0.71,1.43,1.24,2c0.52,0.57,1.14,1.02,1.85,1.35c0.71,0.33,1.46,0.49,2.27,0.49c0.8,0,1.56-0.18,2.27-0.53
			c0.71-0.35,1.33-0.82,1.86-1.4c0.53-0.58,0.95-1.25,1.26-2C365.6,295.9,365.75,295.12,365.75,294.32z"/>
	</g>
	<path class="st2" d="M362.08,220.19c-0.87,0-1.68-0.57-1.95-1.45c-1.03-3.4-3.93-7.93-8.97-10.42c-5.32-2.63-11.84-2.53-19.36,0.29
		c-1.05,0.39-2.23-0.14-2.62-1.19c-0.39-1.05,0.14-2.23,1.19-2.62c8.5-3.19,16.31-3.23,22.59-0.12
		c7.81,3.86,10.44,10.84,11.06,12.89c0.33,1.08-0.28,2.21-1.36,2.54C362.47,220.16,362.27,220.19,362.08,220.19z"/>
	<path class="st3" d="M338.27,225.18c-0.96,0-1.82-0.69-2-1.67c-0.25-1.35-6.58-33.04-40.85-32.26
		c-34.19,0.76-37.85,30.82-37.98,32.1c-0.12,1.12-1.13,1.93-2.24,1.81c-1.12-0.12-1.93-1.12-1.81-2.24
		c0.04-0.35,4.11-34.9,41.94-35.74c37.75-0.82,44.88,35.23,44.94,35.59c0.2,1.11-0.53,2.17-1.63,2.37
		C338.52,225.16,338.39,225.18,338.27,225.18z"/>
	<path class="st4" d="M225.1,258.28c-1.05,0-1.94-0.8-2.03-1.86c-0.79-9.4,4.27-22.56,15.48-29.54c7.62-4.74,20.54-8.09,38.84,2.91
		c0.96,0.58,1.28,1.83,0.7,2.79c-0.58,0.96-1.83,1.28-2.79,0.7c-16.54-9.94-27.94-7.09-34.59-2.95
		c-9.72,6.05-14.25,17.78-13.58,25.75c0.09,1.12-0.74,2.1-1.86,2.2C225.22,258.28,225.16,258.28,225.1,258.28z"/>
	<path class="st4" d="M311.97,268.7h-87.5c-1.12,0-2.04-0.91-2.04-2.04s0.91-2.04,2.04-2.04h87.5c1.12,0,2.04,0.91,2.04,2.04
		S313.09,268.7,311.97,268.7z"/>
	<path class="st2" d="M370,268.52h-43.47c-1.12,0-2.04-0.91-2.04-2.04s0.91-2.04,2.04-2.04H370c1.12,0,2.04,0.91,2.04,2.04
		S371.13,268.52,370,268.52z"/>
</g>
<g>
	<path d="M219.78,318.57l0.11-1.99l0.08-3.32h-0.06l-2.3,4.56h-0.64l-1.08-4.56h-0.07l-0.72,3.26l-0.43,2.05h-0.65l1.47-6.52h0.87
		l0.2,0.99l0.87,3.78h0.07l1.91-3.84l0.43-0.93h0.87l-0.22,6.52H219.78z"/>
	<path d="M223.37,315.67l0.98,0.01l0.85-0.03l0.03,0.07l-0.11,0.56l-0.91-0.02h-0.92l-0.1,0.71l-0.1,1l0.95,0.01l1.3-0.03l0.05,0.05
		l-0.13,0.56h-2.95l0.21-1.53l0.42-3.55h2.97l0.03,0.07l-0.12,0.55l-1.21-0.04l-1.02,0.01L223.37,315.67z"/>
	<path d="M230.93,313.98c0.36,0.35,0.55,0.85,0.55,1.49c0,0.99-0.25,1.76-0.74,2.31c-0.49,0.56-1.19,0.84-2.08,0.84
		c-0.66,0-1.24-0.02-1.75-0.05l0.21-1.53l0.42-3.55l1.87-0.04C230.05,313.45,230.56,313.63,230.93,313.98z M230.22,317.41
		c0.34-0.41,0.51-1.01,0.51-1.79c0-1.03-0.48-1.54-1.43-1.54l-1.13,0.03l-0.4,2.87l-0.1,1c0.36,0.03,0.73,0.05,1.11,0.05
		C229.4,318.03,229.88,317.82,230.22,317.41z"/>
	<path d="M233.52,318.57h-0.71l0.22-1.53l0.41-3.55h0.72l-0.48,3.49L233.52,318.57z"/>
	<path d="M239.58,313.81l-0.21,0.66l-0.1,0.03c-0.29-0.3-0.69-0.46-1.19-0.46c-0.58,0-1.02,0.2-1.33,0.61
		c-0.31,0.41-0.46,1-0.46,1.76c0,0.52,0.11,0.91,0.33,1.19c0.22,0.27,0.54,0.41,0.95,0.41c0.49,0,0.96-0.16,1.41-0.47l0.09,0.03
		l-0.14,0.66c-0.48,0.26-0.95,0.39-1.42,0.39c-0.63,0-1.11-0.19-1.46-0.56c-0.35-0.37-0.52-0.9-0.52-1.57
		c0-0.96,0.24-1.71,0.71-2.25c0.47-0.53,1.13-0.8,1.97-0.8C238.76,313.45,239.22,313.57,239.58,313.81z"/>
	<path d="M243.57,318.57l-0.03-0.54l-0.16-0.79l-1.15-0.01l-1.03,0.01l-0.38,0.75l-0.21,0.57h-0.71l2.52-5.08h0.83l1.07,5.08H243.57
		z M242.73,314.22h-0.04l-1.21,2.44h1.76L242.73,314.22z"/>
	<path d="M248.42,318.57h-2.58l0.22-1.53l0.42-3.55h0.71l-0.47,3.49l-0.11,0.99h1.89l0.05,0.06L248.42,318.57z"/>
	<path d="M257.15,318.57l0.11-1.99l0.08-3.32h-0.06l-2.3,4.56h-0.64l-1.08-4.56h-0.07l-0.72,3.26l-0.43,2.05h-0.65l1.47-6.52h0.87
		l0.2,0.99l0.87,3.78h0.07l1.91-3.84l0.43-0.93h0.87l-0.22,6.52H257.15z"/>
	<path d="M262.71,318.57l-0.03-0.54l-0.16-0.79l-1.15-0.01l-1.03,0.01l-0.38,0.75l-0.21,0.57h-0.71l2.52-5.08h0.83l1.07,5.08H262.71
		z M261.87,314.22h-0.04l-1.21,2.44h1.76L261.87,314.22z"/>
	<path d="M268.39,315.81c-0.22,0.3-0.53,0.53-0.93,0.7c0.32,0.62,0.69,1.25,1.1,1.89l-0.03,0.09c-0.27,0.09-0.5,0.14-0.67,0.15
		l-0.11-0.07c-0.43-0.88-0.73-1.5-0.9-1.86h-0.93l-0.04,0.27l-0.17,1.59H265l0.22-1.53l0.42-3.55l1.59-0.01
		c0.46,0,0.83,0.12,1.09,0.35c0.26,0.23,0.4,0.55,0.4,0.95C268.72,315.17,268.61,315.52,268.39,315.81z M266.94,316.13
		c0.69-0.19,1.03-0.61,1.03-1.26c0-0.5-0.31-0.77-0.93-0.81l-0.75,0.01l-0.28,2.03L266.94,316.13z"/>
	<path d="M270.9,318.57h-0.71l0.22-1.53l0.41-3.55h0.72l-0.48,3.49L270.9,318.57z"/>
	<path d="M274.23,316.89l-0.09,0.74c-0.05,0.41-0.19,0.74-0.4,1c-0.21,0.26-0.57,0.51-1.06,0.74l-0.25-0.4l0.01-0.08
		c0.34-0.18,0.59-0.36,0.74-0.56c0.16-0.2,0.25-0.44,0.29-0.73l0.08-0.63l0.35-2.91h-0.98l-0.04-0.05l0.11-0.51h1.68L274.23,316.89z
		"/>
	<path d="M280.25,316.81c-0.07,0.58-0.29,1.03-0.66,1.34c-0.37,0.32-0.87,0.48-1.49,0.48c-0.56,0-1-0.13-1.3-0.38
		c-0.31-0.25-0.46-0.61-0.46-1.08c0-0.12,0.01-0.24,0.03-0.37l0.11-0.77l0.3-2.54h0.72l-0.45,3.19c-0.01,0.14-0.02,0.23-0.02,0.3
		c0,0.69,0.38,1.03,1.13,1.03c0.85,0,1.33-0.44,1.45-1.33l0.36-3.19h0.72l-0.35,2.59L280.25,316.81z"/>
	<path d="M284.97,318.57l-0.03-0.54l-0.16-0.79l-1.15-0.01l-1.03,0.01l-0.38,0.75l-0.21,0.57h-0.71l2.52-5.08h0.83l1.07,5.08H284.97
		z M284.14,314.22h-0.04l-1.21,2.44h1.76L284.14,314.22z"/>
	<path d="M291.3,318.57h-0.75l-2.11-3.94h-0.04l-0.3,2.26l-0.19,1.68h-0.64l0.21-1.5l0.43-3.58h0.74l2.12,3.94h0.05l0.48-3.91
		l0.66-0.05l-0.5,3.59L291.3,318.57z"/>
	<path d="M296.45,318.57l-0.03-0.54l-0.16-0.79l-1.15-0.01l-1.03,0.01L293.7,318l-0.21,0.57h-0.71l2.52-5.08h0.83l1.07,5.08H296.45z
		 M295.61,314.22h-0.04l-1.21,2.44h1.76L295.61,314.22z"/>
	<path d="M305.38,312.66c0.43,0.44,0.64,1.07,0.64,1.89c0,0.84-0.13,1.57-0.39,2.18c-0.26,0.61-0.65,1.08-1.16,1.41
		c-0.51,0.33-1.13,0.49-1.84,0.49c-0.67,0-1.35-0.02-2.06-0.06h-0.01l0.3-1.97l0.53-4.56h0.01l2.17-0.05
		C304.35,311.99,304.96,312.22,305.38,312.66z M304.58,317.14c0.43-0.57,0.64-1.38,0.64-2.45c0-1.36-0.58-2.05-1.73-2.05
		c-0.46,0-0.93,0.01-1.42,0.04l-0.53,3.86l-0.14,1.39c0.63,0.04,1.09,0.06,1.39,0.06C303.56,317.99,304.16,317.7,304.58,317.14z"/>
	<path d="M308.24,315.67l0.98,0.01l0.85-0.03l0.03,0.07l-0.11,0.56l-0.91-0.02h-0.92l-0.1,0.71l-0.1,1l0.95,0.01l1.3-0.03l0.05,0.05
		l-0.13,0.56h-2.95l0.21-1.53l0.42-3.55h2.97l0.03,0.07l-0.12,0.55l-1.21-0.04l-1.02,0.01L308.24,315.67z"/>
	<path d="M314.32,318.57h-2.58l0.22-1.53l0.42-3.55h0.71l-0.47,3.49l-0.11,0.99h1.88l0.05,0.06L314.32,318.57z"/>
	<path d="M316.5,318.57h-0.71l0.22-1.53l0.41-3.55h0.72l-0.48,3.49L316.5,318.57z"/>
	<path d="M319.74,318.57l-1.08-5.08h0.73l0.06,0.55l0.79,3.81h0.04l1.89-3.78l0.2-0.58h0.71l-2.51,5.08H319.74z"/>
	<path d="M324.94,315.67l0.98,0.01l0.85-0.03l0.03,0.07l-0.11,0.56l-0.91-0.02h-0.92l-0.1,0.71l-0.1,1l0.95,0.01l1.3-0.03l0.05,0.05
		l-0.13,0.56h-2.95l0.21-1.53l0.42-3.55h2.97l0.03,0.07l-0.12,0.55l-1.21-0.04l-1.02,0.01L324.94,315.67z"/>
	<path d="M331.86,315.81c-0.22,0.3-0.53,0.53-0.93,0.7c0.32,0.62,0.69,1.25,1.1,1.89l-0.03,0.09c-0.27,0.09-0.5,0.14-0.67,0.15
		l-0.11-0.07c-0.43-0.88-0.73-1.5-0.9-1.86h-0.93l-0.04,0.27l-0.17,1.59h-0.71l0.22-1.53l0.42-3.55l1.59-0.01
		c0.46,0,0.83,0.12,1.09,0.35c0.27,0.23,0.4,0.55,0.4,0.95C332.18,315.17,332.08,315.52,331.86,315.81z M330.4,316.13
		c0.69-0.19,1.03-0.61,1.03-1.26c0-0.5-0.31-0.77-0.93-0.81l-0.75,0.01l-0.28,2.03L330.4,316.13z"/>
	<path d="M335.2,317.11l-0.16,1.46h-0.71l0.21-1.46l0.04-0.36l-1.23-3.26h0.77l0.07,0.3L335,316h0.06l1.47-2.19l0.16-0.32h0.75
		l-2.19,3.3L335.2,317.11z"/>
	<path d="M343.94,312.3l-0.21,0.72l-0.14,0.04c-0.35-0.3-0.75-0.45-1.18-0.45c-0.26,0-0.49,0.05-0.68,0.15
		c-0.2,0.1-0.35,0.24-0.46,0.4c-0.11,0.17-0.16,0.34-0.16,0.52c0,0.25,0.09,0.46,0.27,0.63c0.18,0.17,0.45,0.37,0.82,0.6
		c0.3,0.18,0.54,0.35,0.73,0.49c0.19,0.15,0.35,0.33,0.48,0.55c0.13,0.22,0.2,0.48,0.2,0.77c0,0.35-0.1,0.67-0.29,0.96
		s-0.46,0.52-0.8,0.69c-0.34,0.17-0.72,0.26-1.14,0.26c-0.61,0-1.17-0.15-1.69-0.46l0.19-0.79l0.1-0.04
		c0.2,0.22,0.43,0.38,0.69,0.49c0.26,0.11,0.53,0.16,0.78,0.16c0.4,0,0.73-0.11,0.99-0.33c0.26-0.22,0.39-0.49,0.39-0.8
		c0-0.26-0.09-0.49-0.27-0.66c-0.18-0.18-0.45-0.38-0.82-0.6c-0.29-0.18-0.53-0.34-0.71-0.48s-0.34-0.32-0.47-0.54
		c-0.13-0.22-0.19-0.47-0.19-0.76c0-0.34,0.09-0.65,0.28-0.93c0.19-0.28,0.44-0.5,0.77-0.67c0.33-0.16,0.69-0.24,1.1-0.24
		C343,311.98,343.48,312.09,343.94,312.3z"/>
	<path d="M346.06,315.67l0.98,0.01l0.85-0.03l0.03,0.07l-0.11,0.56l-0.91-0.02h-0.92l-0.1,0.71l-0.1,1l0.95,0.01l1.3-0.03l0.05,0.05
		l-0.13,0.56H345l0.21-1.53l0.42-3.55h2.97l0.03,0.07l-0.12,0.55l-1.21-0.04l-1.02,0.01L346.06,315.67z"/>
	<path d="M352.98,315.81c-0.22,0.3-0.53,0.53-0.93,0.7c0.32,0.62,0.69,1.25,1.1,1.89l-0.03,0.09c-0.27,0.09-0.5,0.14-0.67,0.15
		l-0.11-0.07c-0.43-0.88-0.73-1.5-0.9-1.86h-0.93l-0.04,0.27l-0.17,1.59h-0.71l0.22-1.53l0.42-3.55l1.59-0.01
		c0.46,0,0.83,0.12,1.09,0.35c0.27,0.23,0.4,0.55,0.4,0.95C353.31,315.17,353.2,315.52,352.98,315.81z M351.53,316.13
		c0.69-0.19,1.03-0.61,1.03-1.26c0-0.5-0.31-0.77-0.93-0.81l-0.75,0.01l-0.28,2.03L351.53,316.13z"/>
	<path d="M355.63,318.57l-1.08-5.08h0.73l0.06,0.55l0.78,3.81h0.04l1.89-3.78l0.2-0.58h0.71l-2.51,5.08H355.63z"/>
	<path d="M360.48,318.57h-0.71l0.22-1.53l0.41-3.55h0.72l-0.48,3.49L360.48,318.57z"/>
	<path d="M366.55,313.81l-0.21,0.66l-0.1,0.03c-0.29-0.3-0.69-0.46-1.19-0.46c-0.58,0-1.02,0.2-1.33,0.61
		c-0.31,0.41-0.46,1-0.46,1.76c0,0.52,0.11,0.91,0.33,1.19s0.54,0.41,0.95,0.41c0.49,0,0.96-0.16,1.41-0.47l0.09,0.03l-0.14,0.66
		c-0.47,0.26-0.95,0.39-1.42,0.39c-0.63,0-1.11-0.19-1.46-0.56c-0.35-0.37-0.52-0.9-0.52-1.57c0-0.96,0.24-1.71,0.71-2.25
		c0.47-0.53,1.13-0.8,1.97-0.8C365.73,313.45,366.19,313.57,366.55,313.81z"/>
	<path d="M368.56,315.67l0.98,0.01l0.85-0.03l0.03,0.07l-0.11,0.56l-0.91-0.02h-0.92l-0.1,0.71l-0.1,1l0.95,0.01l1.3-0.03l0.05,0.05
		l-0.13,0.56h-2.95l0.21-1.53l0.42-3.55h2.97l0.03,0.07l-0.12,0.55l-1.21-0.04l-1.02,0.01L368.56,315.67z"/>
</g>
<g>
	<g>
		<path d="M269.63,462.01l-0.32,0.92l-0.11,0.03c-0.52-0.5-1.14-0.75-1.88-0.75c-0.96,0-1.71,0.37-2.24,1.11
			c-0.53,0.74-0.79,1.78-0.79,3.13c0,0.9,0.18,1.59,0.55,2.07c0.37,0.48,0.89,0.72,1.57,0.72c0.78,0,1.52-0.27,2.24-0.82l0.12,0.07
			l-0.21,0.95c-0.77,0.45-1.54,0.67-2.3,0.67c-0.96,0-1.69-0.31-2.22-0.92c-0.52-0.61-0.78-1.48-0.78-2.59c0-1.08,0.16-2.01,0.5-2.8
			c0.33-0.79,0.81-1.39,1.44-1.81c0.63-0.42,1.38-0.63,2.26-0.63C268.31,461.35,269.04,461.57,269.63,462.01z"/>
		<path d="M274.54,470l-0.04-0.71l-0.21-1.03l-1.51-0.01l-1.35,0.01l-0.5,0.99l-0.28,0.75h-0.94l3.31-6.67h1.09l1.41,6.67H274.54z
			 M273.44,464.28h-0.05l-1.59,3.2h2.32L273.44,464.28z"/>
		<path d="M280.91,470h-3.39l0.3-2.01l0.55-4.66h0.94l-0.62,4.58l-0.15,1.3h2.48l0.07,0.08L280.91,470z"/>
		<path d="M286.2,470h-3.39l0.3-2.01l0.55-4.66h0.94l-0.62,4.58l-0.15,1.3h2.48l0.07,0.08L286.2,470z"/>
		<path d="M295.73,463.98c0.45,0.48,0.67,1.19,0.67,2.14c0,0.78-0.14,1.47-0.41,2.07c-0.28,0.6-0.68,1.07-1.21,1.41
			c-0.53,0.33-1.15,0.5-1.88,0.5c-0.84,0-1.48-0.25-1.94-0.74c-0.45-0.49-0.68-1.22-0.68-2.18c0-1.2,0.31-2.15,0.92-2.85
			c0.62-0.71,1.48-1.06,2.59-1.06C294.64,463.26,295.28,463.5,295.73,463.98z M291.88,464.83c-0.41,0.52-0.61,1.28-0.61,2.29
			c0,0.77,0.14,1.32,0.41,1.66c0.27,0.34,0.71,0.51,1.32,0.51c0.8,0,1.41-0.26,1.81-0.79c0.4-0.53,0.6-1.29,0.6-2.28
			c0-0.75-0.14-1.3-0.41-1.65c-0.27-0.35-0.71-0.52-1.32-0.52C292.88,464.05,292.28,464.31,291.88,464.83z"/>
		<path d="M302.62,466.38c-0.29,0.39-0.69,0.69-1.22,0.92c0.42,0.81,0.9,1.64,1.45,2.48l-0.04,0.12c-0.36,0.12-0.65,0.18-0.88,0.2
			l-0.15-0.09c-0.57-1.15-0.96-1.97-1.18-2.45h-1.22l-0.05,0.36l-0.23,2.09h-0.94l0.3-2.01l0.55-4.66l2.09-0.01
			c0.61,0,1.09,0.15,1.43,0.46c0.35,0.3,0.52,0.72,0.52,1.25C303.04,465.54,302.9,465.99,302.62,466.38z M300.7,466.8
			c0.9-0.25,1.35-0.8,1.35-1.66c0-0.66-0.41-1.01-1.22-1.06l-0.99,0.01l-0.36,2.67L300.7,466.8z"/>
		<path d="M313,462.3l-1.39-0.07h-0.84l-0.68,5.1L309.8,470h-1l0.39-2.59l0.58-5.18h-0.82l-1.46,0.07l-0.07-0.09l0.19-0.78h5.53
			l0.05,0.09L313,462.3z"/>
		<path d="M315.41,466.2l1.29,0.01l1.11-0.04l0.04,0.09L317.7,467l-1.19-0.03h-1.21l-0.13,0.94l-0.13,1.31l1.25,0.01l1.72-0.04
			l0.07,0.07l-0.17,0.74h-3.87l0.28-2.01l0.55-4.66h3.9l0.04,0.09l-0.16,0.72l-1.59-0.05l-1.34,0.01L315.41,466.2z"/>
		<path d="M325.08,470h-1.11l-0.23-0.56l-1.26-2.21l-1.8,2.26l-0.35,0.51h-1.03l2.75-3.42l-1.85-3.26h1.15l0.2,0.56l1.15,2.06
			l1.65-2.08l0.33-0.55h1.07l-2.59,3.26L325.08,470z"/>
		<path d="M331.85,464.22l-1.19-0.08H330l-0.51,3.78l-0.23,2.09h-0.92l0.28-2.01l0.47-3.86h-0.68l-1.22,0.08l-0.05-0.09l0.16-0.79
			h4.68l0.04,0.09L331.85,464.22z"/>
		<path d="M265.32,477.64c-0.97,0.68-1.65,1.61-2.02,2.79c-0.37,1.18-0.56,2.39-0.56,3.61c0,0.82,0.1,1.5,0.3,2.04
			s0.55,1.02,1.05,1.45l-0.01,0.09l-0.42,0.33h-0.09c-0.6-0.48-1.02-1.02-1.27-1.62c-0.25-0.6-0.37-1.37-0.37-2.3
			c0-1.35,0.22-2.64,0.65-3.89c0.43-1.24,1.21-2.22,2.32-2.95H265l0.33,0.33L265.32,477.64z"/>
		<path d="M270.49,480.24l-0.08,0.07l-0.95-0.07h-2.02l-0.28,2.14l0.83,0.17c1.39,0.29,2.09,0.97,2.09,2.04
			c0,0.52-0.15,0.99-0.46,1.41c-0.3,0.42-0.72,0.76-1.25,1.01c-0.53,0.25-1.11,0.38-1.74,0.38c-0.37,0-0.79-0.04-1.27-0.12l0.03-0.9
			l0.09-0.08c0.47,0.21,0.93,0.31,1.38,0.31c0.67,0,1.21-0.18,1.63-0.54c0.42-0.36,0.62-0.81,0.62-1.37c0-0.71-0.5-1.17-1.49-1.37
			l-1.25-0.24L266.3,483l0.43-3.46l0.19-0.16l0.71,0.03h1.81l1.21-0.04l0.04,0.07L270.49,480.24z"/>
		<path d="M276.48,480.24l-0.08,0.07l-0.95-0.07h-2.02l-0.28,2.14l0.83,0.17c1.39,0.29,2.09,0.97,2.09,2.04
			c0,0.52-0.15,0.99-0.46,1.41c-0.3,0.42-0.72,0.76-1.25,1.01c-0.53,0.25-1.11,0.38-1.74,0.38c-0.37,0-0.79-0.04-1.27-0.12l0.03-0.9
			l0.09-0.08c0.47,0.21,0.93,0.31,1.38,0.31c0.67,0,1.21-0.18,1.63-0.54c0.42-0.36,0.62-0.81,0.62-1.37c0-0.71-0.5-1.17-1.49-1.37
			l-1.25-0.24l-0.08-0.09l0.43-3.46l0.19-0.16l0.71,0.03h1.81l1.21-0.04l0.04,0.07L276.48,480.24z"/>
		<path d="M282.47,480.24l-0.08,0.07l-0.95-0.07h-2.02l-0.28,2.14l0.83,0.17c1.39,0.29,2.09,0.97,2.09,2.04
			c0,0.52-0.15,0.99-0.46,1.41c-0.3,0.42-0.72,0.76-1.25,1.01c-0.53,0.25-1.11,0.38-1.74,0.38c-0.37,0-0.79-0.04-1.27-0.12l0.03-0.9
			l0.09-0.08c0.47,0.21,0.93,0.31,1.38,0.31c0.67,0,1.21-0.18,1.63-0.54c0.42-0.36,0.62-0.81,0.62-1.37c0-0.71-0.5-1.17-1.49-1.37
			l-1.25-0.24l-0.08-0.09l0.43-3.46l0.19-0.16l0.71,0.03h1.81l1.21-0.04l0.04,0.07L282.47,480.24z"/>
		<path d="M282.94,487.55c0.97-0.68,1.65-1.61,2.02-2.79c0.37-1.18,0.56-2.39,0.56-3.61c0-0.82-0.1-1.5-0.3-2.04
			c-0.2-0.54-0.55-1.02-1.05-1.45l0.01-0.09l0.42-0.33h0.09c0.6,0.48,1.02,1.02,1.27,1.62c0.25,0.6,0.37,1.37,0.37,2.31
			c0,1.35-0.22,2.64-0.65,3.88c-0.43,1.24-1.21,2.22-2.32,2.95h-0.09l-0.33-0.33L282.94,487.55z"/>
		<path d="M295.09,480.24l-0.08,0.07l-0.95-0.07h-2.02l-0.28,2.14l0.83,0.17c1.39,0.29,2.09,0.97,2.09,2.04
			c0,0.52-0.15,0.99-0.46,1.41c-0.3,0.42-0.72,0.76-1.25,1.01c-0.53,0.25-1.11,0.38-1.74,0.38c-0.37,0-0.79-0.04-1.27-0.12l0.03-0.9
			l0.09-0.08c0.47,0.21,0.93,0.31,1.38,0.31c0.67,0,1.21-0.18,1.63-0.54s0.62-0.81,0.62-1.37c0-0.71-0.5-1.17-1.49-1.37l-1.25-0.24
			l-0.08-0.09l0.43-3.46l0.19-0.16l0.71,0.03h1.81l1.21-0.04l0.04,0.07L295.09,480.24z"/>
		<path d="M301.08,480.24l-0.08,0.07l-0.95-0.07h-2.02l-0.28,2.14l0.83,0.17c1.39,0.29,2.09,0.97,2.09,2.04
			c0,0.52-0.15,0.99-0.46,1.41c-0.3,0.42-0.72,0.76-1.25,1.01c-0.53,0.25-1.11,0.38-1.74,0.38c-0.37,0-0.79-0.04-1.27-0.12l0.03-0.9
			l0.09-0.08c0.47,0.21,0.93,0.31,1.38,0.31c0.67,0,1.21-0.18,1.63-0.54s0.62-0.81,0.62-1.37c0-0.71-0.5-1.17-1.49-1.37l-1.25-0.24
			l-0.08-0.09l0.43-3.46l0.19-0.16l0.71,0.03h1.81l1.21-0.04l0.04,0.07L301.08,480.24z"/>
		<path d="M307.06,480.24l-0.08,0.07l-0.95-0.07h-2.02l-0.28,2.14l0.83,0.17c1.39,0.29,2.09,0.97,2.09,2.04
			c0,0.52-0.15,0.99-0.46,1.41c-0.3,0.42-0.72,0.76-1.25,1.01c-0.53,0.25-1.11,0.38-1.74,0.38c-0.37,0-0.79-0.04-1.27-0.12l0.03-0.9
			l0.09-0.08c0.47,0.21,0.93,0.31,1.38,0.31c0.67,0,1.21-0.18,1.63-0.54c0.42-0.36,0.62-0.81,0.62-1.37c0-0.71-0.5-1.17-1.49-1.37
			l-1.25-0.24l-0.08-0.09l0.43-3.46l0.19-0.16l0.71,0.03h1.81l1.21-0.04l0.04,0.07L307.06,480.24z"/>
		<path d="M311.62,482.81l-3.3,0.46l-0.08-0.09l0.08-0.64l3.3-0.46l0.08,0.09L311.62,482.81z"/>
		<path d="M317.59,480.24l-0.08,0.07l-0.95-0.07h-2.02l-0.28,2.14l0.83,0.17c1.39,0.29,2.09,0.97,2.09,2.04
			c0,0.52-0.15,0.99-0.46,1.41c-0.3,0.42-0.72,0.76-1.25,1.01c-0.53,0.25-1.11,0.38-1.74,0.38c-0.37,0-0.79-0.04-1.27-0.12l0.03-0.9
			l0.09-0.08c0.47,0.21,0.93,0.31,1.38,0.31c0.67,0,1.21-0.18,1.63-0.54s0.62-0.81,0.62-1.37c0-0.71-0.5-1.17-1.49-1.37l-1.25-0.24
			L313.4,483l0.43-3.46l0.19-0.16l0.71,0.03h1.81l1.21-0.04l0.04,0.07L317.59,480.24z"/>
		<path d="M323.58,480.24l-0.08,0.07l-0.95-0.07h-2.02l-0.28,2.14l0.83,0.17c1.39,0.29,2.09,0.97,2.09,2.04
			c0,0.52-0.15,0.99-0.46,1.41c-0.3,0.42-0.72,0.76-1.25,1.01c-0.53,0.25-1.11,0.38-1.74,0.38c-0.37,0-0.79-0.04-1.27-0.12l0.03-0.9
			l0.09-0.08c0.47,0.21,0.93,0.31,1.38,0.31c0.67,0,1.21-0.18,1.63-0.54c0.42-0.36,0.62-0.81,0.62-1.37c0-0.71-0.5-1.17-1.49-1.37
			l-1.25-0.24l-0.08-0.09l0.43-3.46l0.19-0.16l0.71,0.03h1.81l1.21-0.04l0.04,0.07L323.58,480.24z"/>
		<path d="M329.57,480.24l-0.08,0.07l-0.95-0.07h-2.02l-0.28,2.14l0.83,0.17c1.39,0.29,2.09,0.97,2.09,2.04
			c0,0.52-0.15,0.99-0.46,1.41c-0.3,0.42-0.72,0.76-1.25,1.01c-0.53,0.25-1.11,0.38-1.74,0.38c-0.37,0-0.79-0.04-1.27-0.12l0.03-0.9
			l0.09-0.08c0.47,0.21,0.93,0.31,1.38,0.31c0.67,0,1.21-0.18,1.63-0.54c0.42-0.36,0.62-0.81,0.62-1.37c0-0.71-0.5-1.17-1.49-1.37
			l-1.25-0.24l-0.08-0.09l0.43-3.46l0.19-0.16l0.71,0.03h1.81l1.21-0.04l0.04,0.07L329.57,480.24z"/>
		<path d="M335.56,480.24l-0.08,0.07l-0.95-0.07h-2.02l-0.28,2.14l0.83,0.17c1.39,0.29,2.09,0.97,2.09,2.04
			c0,0.52-0.15,0.99-0.46,1.41c-0.3,0.42-0.72,0.76-1.25,1.01c-0.53,0.25-1.11,0.38-1.74,0.38c-0.37,0-0.79-0.04-1.27-0.12l0.03-0.9
			l0.09-0.08c0.47,0.21,0.93,0.31,1.38,0.31c0.67,0,1.21-0.18,1.63-0.54c0.42-0.36,0.62-0.81,0.62-1.37c0-0.71-0.5-1.17-1.49-1.37
			l-1.25-0.24l-0.08-0.09l0.43-3.46l0.19-0.16l0.71,0.03h1.81l1.21-0.04l0.04,0.07L335.56,480.24z"/>
		<path d="M280.22,513.57l1.38,0.03l1.34-0.03l0.05,0.09l-0.19,0.78l-1.41-0.04l-1.29,0.01l-0.16,1.15l-0.28,2.67h-1.02l0.39-2.59
			l0.7-5.99h4.33l0.07,0.09l-0.21,0.8l-1.84-0.07l-1.46,0.03L280.22,513.57z"/>
		<path d="M289.8,512.21c0.45,0.48,0.67,1.19,0.67,2.14c0,0.78-0.14,1.47-0.41,2.07c-0.28,0.6-0.68,1.07-1.21,1.41
			c-0.53,0.33-1.15,0.5-1.88,0.5c-0.84,0-1.48-0.25-1.94-0.74c-0.45-0.49-0.68-1.22-0.68-2.18c0-1.2,0.31-2.15,0.92-2.85
			c0.62-0.71,1.48-1.06,2.59-1.06C288.71,511.49,289.35,511.73,289.8,512.21z M285.95,513.06c-0.41,0.52-0.61,1.28-0.61,2.29
			c0,0.77,0.14,1.32,0.41,1.66c0.27,0.34,0.71,0.51,1.32,0.51c0.8,0,1.41-0.26,1.81-0.79c0.4-0.53,0.6-1.29,0.6-2.28
			c0-0.75-0.14-1.3-0.41-1.65c-0.27-0.35-0.71-0.52-1.32-0.52C286.96,512.28,286.36,512.54,285.95,513.06z"/>
		<path d="M295.59,518.23h-3.39l0.3-2.01l0.55-4.66h0.94l-0.62,4.58l-0.15,1.3h2.48l0.07,0.08L295.59,518.23z"/>
		<path d="M300.88,518.23h-3.39l0.3-2.01l0.55-4.66h0.94l-0.62,4.58l-0.15,1.3h2.48l0.07,0.08L300.88,518.23z"/>
		<path d="M307.67,512.21c0.45,0.48,0.67,1.19,0.67,2.14c0,0.78-0.14,1.47-0.41,2.07c-0.28,0.6-0.68,1.07-1.21,1.41
			c-0.53,0.33-1.15,0.5-1.88,0.5c-0.84,0-1.48-0.25-1.94-0.74c-0.45-0.49-0.68-1.22-0.68-2.18c0-1.2,0.31-2.15,0.92-2.85
			c0.62-0.71,1.48-1.06,2.59-1.06C306.58,511.49,307.23,511.73,307.67,512.21z M303.82,513.06c-0.41,0.52-0.61,1.28-0.61,2.29
			c0,0.77,0.14,1.32,0.41,1.66c0.27,0.34,0.71,0.51,1.32,0.51c0.8,0,1.41-0.26,1.81-0.79c0.4-0.53,0.6-1.29,0.6-2.28
			c0-0.75-0.14-1.3-0.41-1.65c-0.27-0.35-0.71-0.52-1.32-0.52C304.83,512.28,304.23,512.54,303.82,513.06z"/>
		<path d="M315.16,518.23l-0.84-3.74h-0.05l-1.82,3.74h-0.98l-1.3-6.67h0.92l0.03,0.7l0.99,4.96h0.05l1.93-3.98l-0.32-1.67h0.94
			l0.05,0.76l1,4.89h0.08l2.37-4.92l0.27-0.74h0.87l-3.23,6.67H315.16z"/>
		<path d="M269,533.24c-0.78,0.69-1.89,1.06-3.35,1.13l0.4-2.84h-0.12c-0.71,1.22-1.45,2.17-2.21,2.88h-0.19
			c-0.67-0.39-1-1.09-1-2.1c0-0.65,0.12-1.28,0.37-1.89c0.25-0.61,0.61-1.12,1.09-1.55c0.48-0.42,1.05-0.68,1.72-0.78h0.07l0.86,0.3
			l0.59-0.3l0.13,0.07l-0.67,4.7l-0.04,0.78c0.9-0.12,1.6-0.46,2.09-1.03c0.49-0.57,0.74-1.31,0.74-2.24c0-0.71-0.16-1.34-0.47-1.88
			c-0.31-0.54-0.76-0.96-1.33-1.25c-0.58-0.29-1.25-0.44-2.03-0.44c-0.96,0-1.82,0.21-2.56,0.62c-0.74,0.42-1.31,0.99-1.72,1.73
			c-0.41,0.74-0.61,1.59-0.61,2.53c0,0.96,0.21,1.8,0.64,2.5c0.42,0.7,1.02,1.24,1.8,1.61c0.77,0.37,1.68,0.56,2.71,0.56l0.03,0.11
			l-0.32,0.51c-1.11-0.02-2.08-0.24-2.92-0.66c-0.84-0.42-1.49-1.01-1.95-1.78c-0.46-0.77-0.69-1.67-0.69-2.71
			c0-1.11,0.23-2.09,0.7-2.95c0.47-0.86,1.13-1.53,1.98-2.02c0.85-0.48,1.83-0.72,2.94-0.72c0.9,0,1.69,0.17,2.37,0.52
			c0.68,0.35,1.2,0.84,1.57,1.48c0.37,0.64,0.56,1.38,0.56,2.22C270.17,531.58,269.78,532.55,269,533.24z M264.38,532.9
			c0.28-0.3,0.59-0.74,0.94-1.31c0.35-0.57,0.69-1.24,1.02-2l0.01-0.08l0.01-0.36l-0.83-0.3c-0.44,0-0.82,0.15-1.15,0.44
			c-0.33,0.29-0.57,0.68-0.74,1.17c-0.17,0.49-0.25,1.02-0.25,1.6c0,0.46,0.04,0.8,0.13,1c0.09,0.2,0.19,0.3,0.3,0.3
			C263.92,533.36,264.1,533.21,264.38,532.9z"/>
		<path d="M277.39,528.04l-0.44,0.91h-0.09c-0.33-0.21-0.62-0.36-0.87-0.45c-0.25-0.09-0.52-0.13-0.8-0.13
			c-0.86,0-1.51,0.27-1.94,0.8c-0.44,0.54-0.66,1.3-0.66,2.3c0,0.72,0.14,1.26,0.42,1.59c0.28,0.34,0.75,0.51,1.41,0.51
			c0.43,0,0.9-0.09,1.42-0.28l0.09-0.71l0.09-0.94l0.87-0.07l-0.12,0.87l-0.19,1.53c-0.89,0.27-1.64,0.4-2.24,0.4
			c-1.83,0-2.75-0.95-2.75-2.85c0-0.8,0.15-1.5,0.45-2.1c0.3-0.59,0.73-1.05,1.29-1.37c0.56-0.32,1.23-0.48,2.01-0.48
			C276.02,527.59,276.7,527.74,277.39,528.04z"/>
		<path d="M280.46,530.51l1.29,0.01l1.11-0.04l0.04,0.09l-0.15,0.74l-1.19-0.03h-1.21l-0.13,0.94l-0.13,1.31l1.25,0.01l1.72-0.04
			l0.07,0.07l-0.17,0.74h-3.87l0.28-2.01l0.55-4.66h3.9l0.04,0.09l-0.16,0.72l-1.59-0.05l-1.34,0.01L280.46,530.51z"/>
		<path d="M289.77,528.52l-1.19-0.08h-0.66l-0.51,3.78l-0.23,2.09h-0.92l0.28-2.01l0.47-3.86h-0.68l-1.22,0.08l-0.05-0.09l0.16-0.79
			h4.68l0.04,0.09L289.77,528.52z"/>
		<path d="M295.74,528.05l-0.28,0.87l-0.13,0.04c-0.38-0.4-0.91-0.6-1.57-0.6c-0.76,0-1.34,0.27-1.75,0.8
			c-0.41,0.54-0.61,1.31-0.61,2.32c0,0.68,0.15,1.2,0.44,1.56c0.29,0.36,0.71,0.54,1.25,0.54c0.64,0,1.26-0.21,1.85-0.62l0.12,0.04
			l-0.19,0.87c-0.62,0.34-1.25,0.51-1.86,0.51c-0.82,0-1.46-0.24-1.92-0.74c-0.46-0.49-0.68-1.18-0.68-2.06
			c0-1.27,0.31-2.25,0.93-2.95c0.62-0.7,1.48-1.05,2.59-1.05C294.67,527.59,295.27,527.74,295.74,528.05z"/>
		<path d="M300.37,534.31h-3.39l0.3-2.01l0.55-4.66h0.94l-0.62,4.58l-0.15,1.3h2.48l0.07,0.08L300.37,534.31z"/>
		<path d="M307.16,528.29c0.45,0.48,0.67,1.19,0.67,2.14c0,0.78-0.14,1.47-0.41,2.07c-0.28,0.6-0.68,1.07-1.21,1.41
			c-0.53,0.33-1.15,0.5-1.88,0.5c-0.84,0-1.48-0.25-1.94-0.74c-0.45-0.49-0.68-1.22-0.68-2.18c0-1.2,0.31-2.15,0.92-2.85
			c0.62-0.71,1.48-1.06,2.59-1.06C306.07,527.57,306.71,527.81,307.16,528.29z M303.31,529.14c-0.41,0.52-0.61,1.28-0.61,2.29
			c0,0.77,0.14,1.32,0.41,1.66c0.27,0.34,0.71,0.51,1.32,0.51c0.8,0,1.41-0.26,1.81-0.79c0.4-0.53,0.6-1.29,0.6-2.28
			c0-0.75-0.14-1.3-0.41-1.65c-0.27-0.35-0.71-0.52-1.32-0.52C304.31,528.36,303.71,528.62,303.31,529.14z"/>
		<path d="M314.77,531.99c-0.09,0.76-0.38,1.35-0.86,1.77c-0.49,0.42-1.14,0.63-1.96,0.63c-0.74,0-1.31-0.16-1.72-0.49
			c-0.4-0.33-0.6-0.8-0.6-1.42c0-0.15,0.01-0.31,0.04-0.48l0.15-1.02l0.39-3.34h0.95l-0.59,4.19c-0.02,0.18-0.03,0.31-0.03,0.39
			c0,0.9,0.5,1.35,1.49,1.35c1.12,0,1.75-0.58,1.9-1.74l0.47-4.19h0.95l-0.46,3.4L314.77,531.99z"/>
		<path d="M322.4,528.28c0.48,0.46,0.72,1.12,0.72,1.96c0,1.3-0.32,2.31-0.97,3.04c-0.65,0.73-1.56,1.1-2.74,1.1
			c-0.87,0-1.63-0.02-2.3-0.07l0.28-2.01l0.55-4.66l2.45-0.05C321.25,527.59,321.92,527.82,322.4,528.28z M321.47,532.78
			c0.45-0.55,0.67-1.33,0.67-2.36c0-1.35-0.63-2.02-1.88-2.02l-1.49,0.04l-0.52,3.78l-0.13,1.31c0.47,0.04,0.96,0.07,1.46,0.07
			C320.39,533.6,321.02,533.33,321.47,532.78z"/>
		<path d="M326.26,530.51l1.29,0.01l1.11-0.04l0.04,0.09l-0.15,0.74l-1.19-0.03h-1.21l-0.13,0.94l-0.13,1.31l1.25,0.01l1.72-0.04
			l0.07,0.07l-0.17,0.74h-3.87l0.28-2.01l0.55-4.66h3.9l0.04,0.09l-0.16,0.72l-1.59-0.05l-1.34,0.01L326.26,530.51z"/>
		<path d="M336.2,528.28c0.48,0.46,0.72,1.12,0.72,1.96c0,1.3-0.32,2.31-0.97,3.04c-0.65,0.73-1.56,1.1-2.74,1.1
			c-0.87,0-1.63-0.02-2.3-0.07l0.28-2.01l0.55-4.66l2.45-0.05C335.05,527.59,335.72,527.82,336.2,528.28z M335.26,532.78
			c0.45-0.55,0.67-1.33,0.67-2.36c0-1.35-0.63-2.02-1.88-2.02l-1.49,0.04l-0.52,3.78l-0.13,1.31c0.47,0.04,0.96,0.07,1.46,0.07
			C334.19,533.6,334.82,533.33,335.26,532.78z"/>
	</g>
</g>
<polygon points="110.95,220.37 157.92,160.12 147.19,160.13 110.99,206.56 "/>
<polygon points="111.11,242.27 175.02,160.3 164.29,160.29 111.09,228.53 "/>
<path d="M444.61,603.54H134.26c-11.92,0-21.61-9.69-21.61-21.61V430.89c0-11.92,9.69-21.61,21.61-21.61h310.35
	c11.92,0,21.61,9.69,21.61,21.61v151.04C466.22,593.84,456.53,603.54,444.61,603.54z M134.26,410.61
	c-11.18,0-20.27,9.09-20.27,20.27v151.04c0,11.18,9.09,20.27,20.27,20.27h310.35c11.18,0,20.27-9.09,20.27-20.27V430.89
	c0-11.18-9.09-20.27-20.27-20.27H134.26z"/>
<polygon points="113.63,470 160.6,409.75 149.87,409.77 113.67,456.19 "/>
<polygon points="113.78,491.91 177.7,409.93 166.97,409.93 113.77,478.17 "/>
</svg>
