<?xml version="1.0" encoding="utf-8"?>
<!-- Generator: Adobe Illustrator 22.1.0, SVG Export Plug-In . SVG Version: 6.00 Build 0)  -->
<svg version="1.1" id="Layer_1" xmlns="http://www.w3.org/2000/svg" xmlns:xlink="http://www.w3.org/1999/xlink" x="0px" y="0px"
	 viewBox="0 0 360 360" style="enable-background:new 0 0 360 360;" xml:space="preserve">
<style type="text/css">
	.st0{fill:#FFFFFF;}
</style>
<rect width="360" height="360"/>
<path class="st0" d="M179.4,192.8c-36.2,0-65.7-29.5-65.7-65.7s29.5-65.7,65.7-65.7h0.5l0.6,66.2l33.6,55.3l-0.4,0.3
	c-4.6,2.8-9.6,5.1-14.8,6.7C192.6,191.8,186.1,192.8,179.4,192.8z M178.9,62.4c-35.4,0.3-64.2,29.2-64.2,64.7
	c0,35.7,29,64.7,64.7,64.7c6.5,0,13-1,19.2-2.9c4.9-1.5,9.7-3.7,14.1-6.3l-33.2-54.7l0-0.1L178.9,62.4z"/>
<path class="st0" d="M218.3,180.1l-0.6-0.8c16-12.8,26.4-33.3,26.4-52.2c0-33.7-26.3-62-59.8-64.5l0.1-1c34,2.5,60.7,31.3,60.7,65.5
	C245.1,146.3,234.6,167.1,218.3,180.1z"/>
<g>
	<g>
		<path class="st0" d="M124.7,235.2v12.4h-1.4V222h1.4v10.9l8.2-10.9h1.9l-7.7,10.3l9.9,15.3h-1.8l-9.1-14.1L124.7,235.2z"/>
		<path class="st0" d="M142.6,244.7c1.4,1.2,3,1.9,4.8,1.9c2,0,3.7-0.7,5.1-2.1c0.2-0.2,0.4-0.4,0.5-0.6l1.5,0.5
			c-0.3,0.4-0.6,0.8-0.9,1.1c-1.7,1.7-3.8,2.6-6.2,2.6c-2.4,0-4.5-0.9-6.2-2.6c-1.7-1.7-2.6-3.8-2.6-6.2c0-2.4,0.9-4.5,2.6-6.2
			c1.7-1.7,3.8-2.6,6.2-2.6c2.1,0,3.9,0.6,5.4,1.9c0.3,0.2,0.5,0.4,0.8,0.7c0.1,0.1,0.2,0.2,0.3,0.3l-1.1,1.1L142.6,244.7z
			 M151.8,233.5c-1.2-1-2.7-1.4-4.3-1.4c-2,0-3.7,0.7-5.1,2.1c-1.4,1.4-2.1,3.1-2.1,5.1c0,1.7,0.5,3.1,1.4,4.3L151.8,233.5z"/>
		<path class="st0" d="M159.9,235.4v12.2h-1.4v-15.7h1.4v1c1.3-1.3,2.8-1.9,4.6-1.9c1.9,0,3.4,0.6,4.5,1.7c1.2,1.2,1.8,2.6,1.8,4.4
			v10.5h-1.4v-10.4c0-1.3-0.5-2.5-1.4-3.4c-1-0.9-2.1-1.4-3.4-1.4c-1.3,0-2.5,0.5-3.4,1.4C160.5,234.3,160.1,234.9,159.9,235.4z"/>
		<path class="st0" d="M175.2,237.4h9.4v1.4h-9.4V237.4z"/>
		<path class="st0" d="M210.4,244.4c-2.4,2.3-5.3,3.5-8.7,3.5c-3.6,0-6.7-1.3-9.3-3.8s-3.8-5.6-3.8-9.3c0-3.6,1.3-6.7,3.8-9.3
			c2.6-2.6,5.6-3.8,9.3-3.8c3.4,0,6.3,1.1,8.8,3.4l-1.1,1c-2.2-1.9-4.8-2.9-7.7-2.9c-3.2,0-5.9,1.1-8.2,3.4c-2.3,2.3-3.4,5-3.4,8.2
			c0,3.2,1.1,6,3.4,8.2c2.3,2.3,5,3.4,8.2,3.4c2.7,0,5.2-0.8,7.3-2.5v-7.8h1.4V244.4z"/>
		<path class="st0" d="M216.3,222v25.6h-1.4V222H216.3z"/>
		<path class="st0" d="M228.9,230.5c2.4,0,4.5,0.9,6.2,2.6c1.7,1.7,2.6,3.8,2.6,6.2c0,2.4-0.9,4.5-2.6,6.2c-1.7,1.7-3.8,2.6-6.2,2.6
			c-2.4,0-4.5-0.9-6.2-2.6s-2.6-3.8-2.6-6.2c0-2.4,0.9-4.5,2.6-6.2S226.5,230.5,228.9,230.5z M223.8,234.2c-1.4,1.4-2.1,3.1-2.1,5.1
			c0,2,0.7,3.7,2.1,5.1c1.4,1.4,3.1,2.1,5.1,2.1c2,0,3.7-0.7,5.1-2.1c1.4-1.4,2.1-3.1,2.1-5.1c0-2-0.7-3.7-2.1-5.1
			c-1.4-1.4-3.1-2.1-5.1-2.1C226.9,232,225.2,232.7,223.8,234.2z"/>
		<path class="st0" d="M95.4,252H97l13.1,22.7V252h1.4v25.6h-1.4l-13.3-23v23h-1.4V252z"/>
		<path class="st0" d="M119.4,274.7c1.4,1.2,3,1.9,4.8,1.9c2,0,3.7-0.7,5.1-2.1c0.2-0.2,0.4-0.4,0.5-0.6l1.5,0.5
			c-0.3,0.4-0.6,0.8-0.9,1.1c-1.7,1.7-3.8,2.6-6.2,2.6c-2.4,0-4.5-0.9-6.2-2.6c-1.7-1.7-2.6-3.8-2.6-6.2c0-2.4,0.9-4.5,2.6-6.2
			c1.7-1.7,3.8-2.6,6.2-2.6c2.1,0,3.9,0.6,5.4,1.9c0.3,0.2,0.5,0.4,0.8,0.7c0.1,0.1,0.2,0.2,0.3,0.3l-1.1,1.1L119.4,274.7z
			 M128.5,263.5c-1.2-1-2.7-1.4-4.3-1.4c-2,0-3.7,0.7-5.1,2.1c-1.4,1.4-2.1,3.1-2.1,5.1c0,1.7,0.5,3.1,1.4,4.3L128.5,263.5z"/>
		<path class="st0" d="M143,260.5c2.4,0,4.5,0.9,6.2,2.6s2.6,3.8,2.6,6.2c0,2.4-0.9,4.5-2.6,6.2s-3.8,2.6-6.2,2.6
			c-2.4,0-4.5-0.9-6.2-2.6c-1.7-1.7-2.6-3.8-2.6-6.2c0-2.4,0.9-4.5,2.6-6.2C138.5,261.4,140.6,260.5,143,260.5z M137.9,264.2
			c-1.4,1.4-2.1,3.1-2.1,5.1c0,2,0.7,3.7,2.1,5.1s3.1,2.1,5.1,2.1s3.7-0.7,5.1-2.1c1.4-1.4,2.1-3.1,2.1-5.1c0-2-0.7-3.7-2.1-5.1
			c-1.4-1.4-3.1-2.1-5.1-2.1S139.3,262.7,137.9,264.2z"/>
		<path class="st0" d="M157,265.4v12.2h-1.4v-15.7h1.4v1c1.3-1.3,2.8-1.9,4.6-1.9c1.9,0,3.4,0.6,4.5,1.7c1.2,1.2,1.8,2.6,1.8,4.4
			v10.5h-1.4v-10.4c0-1.3-0.5-2.5-1.4-3.4c-1-0.9-2.1-1.4-3.4-1.4c-1.3,0-2.5,0.5-3.4,1.4C157.7,264.3,157.3,264.9,157,265.4z"/>
		<path class="st0" d="M204.4,273.5l1.1,1c-2.5,2.3-5.4,3.4-8.8,3.4c-3.6,0-6.7-1.3-9.3-3.8c-2.6-2.6-3.8-5.6-3.8-9.3
			c0-3.6,1.3-6.7,3.8-9.3c2.6-2.6,5.6-3.8,9.3-3.8c3.4,0,6.3,1.1,8.8,3.4l-1.1,1c-2.2-1.9-4.8-2.9-7.7-2.9c-3.2,0-5.9,1.1-8.2,3.4
			s-3.4,5-3.4,8.2c0,3.2,1.1,6,3.4,8.2s5,3.4,8.2,3.4C199.7,276.5,202.2,275.5,204.4,273.5z"/>
		<path class="st0" d="M211,252v25.6h-1.4V252H211z"/>
		<path class="st0" d="M223.6,260.5c2.4,0,4.5,0.9,6.2,2.6c1.7,1.7,2.6,3.8,2.6,6.2c0,2.4-0.9,4.5-2.6,6.2c-1.7,1.7-3.8,2.6-6.2,2.6
			c-2.4,0-4.5-0.9-6.2-2.6s-2.6-3.8-2.6-6.2c0-2.4,0.9-4.5,2.6-6.2S221.1,260.5,223.6,260.5z M218.4,264.2c-1.4,1.4-2.1,3.1-2.1,5.1
			c0,2,0.7,3.7,2.1,5.1c1.4,1.4,3.1,2.1,5.1,2.1c2,0,3.7-0.7,5.1-2.1c1.4-1.4,2.1-3.1,2.1-5.1c0-2-0.7-3.7-2.1-5.1
			c-1.4-1.4-3.1-2.1-5.1-2.1C221.6,262,219.8,262.7,218.4,264.2z"/>
		<path class="st0" d="M249.6,273.8l1.5,0.5c-0.3,0.4-0.6,0.8-0.9,1.1c-1.7,1.7-3.8,2.6-6.2,2.6c-2.4,0-4.5-0.9-6.2-2.6
			s-2.6-3.8-2.6-6.2c0-2.4,0.9-4.5,2.6-6.2s3.8-2.6,6.2-2.6c2.4,0,4.5,0.9,6.2,2.6c0.4,0.4,0.7,0.7,0.9,1.1l-1.5,0.6
			c-0.2-0.2-0.3-0.4-0.5-0.6c-1.4-1.4-3.1-2.1-5.1-2.1c-2,0-3.7,0.7-5.1,2.1c-1.4,1.4-2.1,3.1-2.1,5.1c0,2,0.7,3.7,2.1,5.1
			c1.4,1.4,3.1,2.1,5.1,2.1c2,0,3.7-0.7,5.1-2.1C249.3,274.2,249.5,274,249.6,273.8z"/>
		<path class="st0" d="M262.4,261.9l-3.9,4.8l6.2,10.9h-1.8l-5.3-9.7l-1.4,1.7v8h-1.4v-22.4h1.4v12.1l4.4-5.4H262.4z"/>
		<path class="st0" d="M272.2,269.5c-1.2-0.7-2.1-1.2-2.5-1.7c-0.7-0.7-1.1-1.6-1.1-2.7c0-1,0.4-1.9,1.1-2.7s1.6-1.1,2.7-1.1
			c1,0,1.9,0.3,2.6,1c0.7,0.7,1,1.4,1,2.3v0.1l-1.2,0.5c-0.1-0.8-0.4-1.4-0.8-1.8c-0.4-0.4-0.9-0.6-1.6-0.6c-0.6,0-1.2,0.2-1.6,0.7
			s-0.7,1-0.7,1.7c0,0.6,0.2,1.2,0.7,1.6c0.3,0.3,0.8,0.7,1.7,1.2c1.4,0.7,2.3,1.4,2.9,2c0.9,0.9,1.4,2,1.4,3.3
			c0,1.3-0.5,2.4-1.4,3.3c-0.9,0.9-2,1.4-3.3,1.4s-2.4-0.5-3.3-1.4c-0.9-0.9-1.4-1.9-1.4-3l1.4-0.4c0,0.9,0.3,1.7,1,2.3
			c0.6,0.6,1.4,0.9,2.3,0.9s1.6-0.3,2.3-0.9c0.6-0.6,1-1.4,1-2.3c0-0.9-0.3-1.6-0.9-2.3C273.9,270.7,273.2,270.2,272.2,269.5z"/>
	</g>
</g>
<g>
	<path class="st0" d="M105.9,288.7l0.3,0.3c-0.8,0.7-1.7,1-2.7,1c-1.1,0-2-0.4-2.8-1.2c-0.8-0.8-1.2-1.7-1.2-2.8
		c0-1.1,0.4-2,1.2-2.8s1.7-1.2,2.8-1.2c1,0,1.9,0.3,2.7,1l-0.3,0.3c-0.7-0.6-1.5-0.9-2.4-0.9c-1,0-1.8,0.3-2.5,1s-1,1.5-1,2.5
		c0,1,0.3,1.8,1,2.5s1.5,1,2.5,1C104.5,289.6,105.3,289.3,105.9,288.7z"/>
	<path class="st0" d="M109.5,290c-0.6,0-1.1-0.2-1.4-0.5c-0.4-0.4-0.5-0.8-0.5-1.3v-3h0.4v2.9c0,0.4,0.1,0.8,0.4,1
		c0.3,0.3,0.7,0.4,1.1,0.4c0.4,0,0.8-0.1,1-0.4s0.4-0.6,0.4-1v-2.9h0.4v3c0,0.5-0.2,1-0.5,1.3C110.5,289.8,110,290,109.5,290z"/>
	<path class="st0" d="M114.2,287.5c-0.4-0.2-0.6-0.4-0.8-0.5c-0.2-0.2-0.3-0.5-0.3-0.8c0-0.3,0.1-0.6,0.3-0.8
		c0.2-0.2,0.5-0.3,0.8-0.3c0.3,0,0.6,0.1,0.8,0.3c0.2,0.2,0.3,0.4,0.3,0.7v0l-0.4,0.2c0-0.2-0.1-0.4-0.2-0.6
		c-0.1-0.1-0.3-0.2-0.5-0.2c-0.2,0-0.4,0.1-0.5,0.2c-0.1,0.1-0.2,0.3-0.2,0.5c0,0.2,0.1,0.4,0.2,0.5c0.1,0.1,0.3,0.2,0.5,0.4
		c0.4,0.2,0.7,0.4,0.9,0.6c0.3,0.3,0.4,0.6,0.4,1c0,0.4-0.1,0.7-0.4,1s-0.6,0.4-1,0.4s-0.7-0.1-1-0.4s-0.4-0.6-0.4-0.9l0.4-0.1
		c0,0.3,0.1,0.5,0.3,0.7c0.2,0.2,0.4,0.3,0.7,0.3s0.5-0.1,0.7-0.3c0.2-0.2,0.3-0.4,0.3-0.7c0-0.3-0.1-0.5-0.3-0.7
		C114.7,287.8,114.5,287.7,114.2,287.5z"/>
	<path class="st0" d="M117.5,285.2v-2h0.4v2h1v0.4h-1v4.4h-0.4v-4.4h-1v-0.4H117.5z"/>
	<path class="st0" d="M122.5,284.7c0.7,0,1.4,0.3,1.9,0.8c0.5,0.5,0.8,1.2,0.8,1.9c0,0.7-0.3,1.4-0.8,1.9c-0.5,0.5-1.2,0.8-1.9,0.8
		c-0.7,0-1.4-0.3-1.9-0.8c-0.5-0.5-0.8-1.2-0.8-1.9c0-0.7,0.3-1.4,0.8-1.9C121.1,285,121.8,284.7,122.5,284.7z M120.9,285.8
		c-0.4,0.4-0.6,1-0.6,1.6c0,0.6,0.2,1.1,0.6,1.6c0.4,0.4,1,0.6,1.6,0.6s1.1-0.2,1.6-0.6c0.4-0.4,0.6-1,0.6-1.6
		c0-0.6-0.2-1.1-0.6-1.6c-0.4-0.4-1-0.6-1.6-0.6S121.4,285.4,120.9,285.8z"/>
	<path class="st0" d="M126.4,285.2h0.4v0.1c0.3-0.3,0.6-0.4,1-0.4c0.4,0,0.7,0.1,1,0.4c0.1,0.1,0.1,0.2,0.2,0.2
		c0.1-0.1,0.1-0.2,0.2-0.2c0.3-0.3,0.6-0.4,1-0.4s0.7,0.1,1,0.4c0.3,0.3,0.4,0.6,0.4,1v3.7h-0.4v-3.7h0c0-0.3-0.1-0.5-0.3-0.6
		c-0.2-0.2-0.4-0.3-0.7-0.3s-0.5,0.1-0.7,0.3c-0.2,0.2-0.3,0.4-0.3,0.7v3.6h-0.4v-3.7h0c0-0.3-0.1-0.5-0.3-0.6
		c-0.2-0.2-0.4-0.3-0.7-0.3s-0.5,0.1-0.7,0.3c-0.2,0.2-0.3,0.4-0.3,0.6v3.7h-0.4V285.2z"/>
	<path class="st0" d="M142.8,288.7l0.3,0.3c-0.8,0.7-1.7,1-2.7,1c-1.1,0-2-0.4-2.8-1.2c-0.8-0.8-1.2-1.7-1.2-2.8
		c0-1.1,0.4-2,1.2-2.8s1.7-1.2,2.8-1.2c1,0,1.9,0.3,2.7,1l-0.3,0.3c-0.7-0.6-1.5-0.9-2.4-0.9c-1,0-1.8,0.3-2.5,1s-1,1.5-1,2.5
		c0,1,0.3,1.8,1,2.5s1.5,1,2.5,1C141.3,289.6,142.1,289.3,142.8,288.7z"/>
	<path class="st0" d="M144.7,282.1v7.8h-0.4v-7.8H144.7z"/>
	<path class="st0" d="M148.6,284.7c0.7,0,1.4,0.3,1.9,0.8c0.5,0.5,0.8,1.2,0.8,1.9c0,0.7-0.3,1.4-0.8,1.9c-0.5,0.5-1.2,0.8-1.9,0.8
		c-0.7,0-1.4-0.3-1.9-0.8c-0.5-0.5-0.8-1.2-0.8-1.9c0-0.7,0.3-1.4,0.8-1.9C147.2,285,147.9,284.7,148.6,284.7z M147,285.8
		c-0.4,0.4-0.6,1-0.6,1.6c0,0.6,0.2,1.1,0.6,1.6c0.4,0.4,1,0.6,1.6,0.6s1.1-0.2,1.6-0.6c0.4-0.4,0.6-1,0.6-1.6
		c0-0.6-0.2-1.1-0.6-1.6c-0.4-0.4-1-0.6-1.6-0.6S147.5,285.4,147,285.8z"/>
	<path class="st0" d="M156.6,288.8l0.5,0.2c-0.1,0.1-0.2,0.2-0.3,0.3c-0.5,0.5-1.2,0.8-1.9,0.8c-0.7,0-1.4-0.3-1.9-0.8
		c-0.5-0.5-0.8-1.2-0.8-1.9c0-0.7,0.3-1.4,0.8-1.9c0.5-0.5,1.2-0.8,1.9-0.8c0.7,0,1.4,0.3,1.9,0.8c0.1,0.1,0.2,0.2,0.3,0.3l-0.5,0.2
		c0-0.1-0.1-0.1-0.2-0.2c-0.4-0.4-1-0.6-1.6-0.6c-0.6,0-1.1,0.2-1.6,0.6c-0.4,0.4-0.6,1-0.6,1.6c0,0.6,0.2,1.1,0.6,1.6
		c0.4,0.4,1,0.6,1.6,0.6c0.6,0,1.1-0.2,1.6-0.6C156.5,288.9,156.5,288.9,156.6,288.8z"/>
	<path class="st0" d="M160.5,285.2l-1.2,1.5l1.9,3.3h-0.5l-1.6-3l-0.4,0.5v2.4h-0.4v-6.8h0.4v3.7l1.3-1.6H160.5z"/>
	<path class="st0" d="M163.5,287.5c-0.4-0.2-0.6-0.4-0.8-0.5c-0.2-0.2-0.3-0.5-0.3-0.8c0-0.3,0.1-0.6,0.3-0.8
		c0.2-0.2,0.5-0.3,0.8-0.3c0.3,0,0.6,0.1,0.8,0.3c0.2,0.2,0.3,0.4,0.3,0.7v0l-0.4,0.2c0-0.2-0.1-0.4-0.2-0.6
		c-0.1-0.1-0.3-0.2-0.5-0.2c-0.2,0-0.4,0.1-0.5,0.2c-0.1,0.1-0.2,0.3-0.2,0.5c0,0.2,0.1,0.4,0.2,0.5c0.1,0.1,0.3,0.2,0.5,0.4
		c0.4,0.2,0.7,0.4,0.9,0.6c0.3,0.3,0.4,0.6,0.4,1c0,0.4-0.1,0.7-0.4,1s-0.6,0.4-1,0.4s-0.7-0.1-1-0.4s-0.4-0.6-0.4-0.9l0.4-0.1
		c0,0.3,0.1,0.5,0.3,0.7c0.2,0.2,0.4,0.3,0.7,0.3s0.5-0.1,0.7-0.3c0.2-0.2,0.3-0.4,0.3-0.7c0-0.3-0.1-0.5-0.3-0.7
		C164,287.8,163.8,287.7,163.5,287.5z"/>
	<path class="st0" d="M173.3,288.3c0,0-0.1,0-0.1-0.1c-0.2-0.1-0.4-0.3-0.6-0.5c-0.2-0.1-0.3-0.2-0.3-0.3c-0.1,0-0.1-0.1-0.2-0.1
		c0,0-0.1,0-0.1,0c-0.1,0-0.2,0.1-0.3,0.2c0,0.1-0.1,0.1-0.1,0.2c0,0,0,0.1,0,0.1c0,0.1,0.1,0.2,0.2,0.3c0.1,0,0.1,0,0.3,0
		c0.1,0,0.1,0,0.2,0l0,0.4c-0.1,0-0.2,0-0.2,0c-0.1,0-0.3,0-0.4-0.1c-0.2-0.1-0.3-0.3-0.4-0.5c0-0.1,0-0.2,0-0.2
		c0-0.1,0-0.3,0.1-0.4c0.1-0.2,0.3-0.3,0.5-0.4c0.1,0,0.2,0,0.2,0c0.1,0,0.3,0,0.4,0.1c0.1,0.1,0.3,0.2,0.5,0.4
		c0.2,0.2,0.3,0.3,0.4,0.3c0.1,0.1,0.2,0.1,0.3,0.1c0.1,0,0.1,0,0.2,0c0.2,0,0.3-0.1,0.4-0.3c0.1-0.1,0.1-0.2,0.1-0.3
		c0-0.1,0-0.1,0-0.2c0-0.2-0.1-0.3-0.3-0.4c-0.1-0.1-0.2-0.1-0.3-0.1c-0.1,0-0.2,0-0.3,0l0-0.4c0.1,0,0.2,0,0.3,0
		c0.2,0,0.3,0,0.5,0.1c0.3,0.1,0.4,0.4,0.5,0.6c0,0.1,0,0.2,0,0.3c0,0.2,0,0.4-0.1,0.5c-0.1,0.3-0.4,0.4-0.6,0.5c-0.1,0-0.2,0-0.2,0
		c-0.1,0.4-0.3,0.7-0.6,0.9c-0.5,0.5-1,0.7-1.6,0.7s-1.2-0.2-1.6-0.7c-0.5-0.5-0.7-1-0.7-1.6c0-0.6,0.2-1.2,0.7-1.7
		c0.3-0.3,0.7-0.6,1.2-0.7c-0.2-0.1-0.5-0.3-0.7-0.5c-0.2-0.3-0.4-0.6-0.4-1.1c0-0.4,0.2-0.8,0.5-1.2c0.3-0.3,0.7-0.5,1.2-0.5
		c0.5,0,0.8,0.2,1.2,0.5c0.2,0.2,0.3,0.4,0.4,0.6l-0.4,0.2c-0.1-0.2-0.2-0.3-0.3-0.4c-0.2-0.2-0.5-0.4-0.9-0.4s-0.6,0.1-0.9,0.4
		c-0.2,0.2-0.4,0.5-0.4,0.9c0,0.3,0.1,0.6,0.3,0.9c0.2,0.2,0.4,0.4,0.6,0.5c0.2,0.1,0.4,0.1,0.7,0.1v0.4l-0.4,0
		c-0.7,0.1-1.2,0.4-1.6,0.8s-0.5,0.8-0.5,1.4c0,0.5,0.2,1,0.6,1.3c0.4,0.4,0.8,0.6,1.3,0.6c0.5,0,1-0.2,1.3-0.6
		C173,288.8,173.2,288.6,173.3,288.3z"/>
	<path class="st0" d="M181.2,287.2c0,0-0.1,0-0.1,0h-1.3v2.7h-0.4v-7.8h2.1c0.6,0.1,1.1,0.3,1.5,0.7c0.5,0.5,0.7,1.1,0.7,1.8
		c0,0.7-0.2,1.3-0.7,1.8c-0.3,0.3-0.7,0.6-1.2,0.7l1.8,2.8H183L181.2,287.2z M179.8,282.6v4.2h1.3c0.6,0,1.1-0.2,1.5-0.6
		c0.4-0.4,0.6-0.9,0.6-1.5c0-0.6-0.2-1.1-0.6-1.5c-0.4-0.4-0.9-0.6-1.5-0.6H179.8z"/>
	<path class="st0" d="M185.4,289c0.4,0.4,0.9,0.6,1.5,0.6c0.6,0,1.1-0.2,1.6-0.6c0.1-0.1,0.1-0.1,0.2-0.2l0.5,0.2
		c-0.1,0.1-0.2,0.2-0.3,0.3c-0.5,0.5-1.2,0.8-1.9,0.8c-0.7,0-1.4-0.3-1.9-0.8c-0.5-0.5-0.8-1.2-0.8-1.9c0-0.7,0.3-1.4,0.8-1.9
		c0.5-0.5,1.2-0.8,1.9-0.8c0.6,0,1.2,0.2,1.7,0.6c0.1,0.1,0.2,0.1,0.2,0.2c0,0,0.1,0.1,0.1,0.1l-0.3,0.3L185.4,289z M188.2,285.6
		c-0.4-0.3-0.8-0.4-1.3-0.4c-0.6,0-1.1,0.2-1.6,0.6c-0.4,0.4-0.6,1-0.6,1.6c0,0.5,0.1,0.9,0.4,1.3L188.2,285.6z"/>
	<path class="st0" d="M191.6,287.5c-0.4-0.2-0.6-0.4-0.8-0.5c-0.2-0.2-0.3-0.5-0.3-0.8c0-0.3,0.1-0.6,0.3-0.8
		c0.2-0.2,0.5-0.3,0.8-0.3c0.3,0,0.6,0.1,0.8,0.3c0.2,0.2,0.3,0.4,0.3,0.7v0l-0.4,0.2c0-0.2-0.1-0.4-0.2-0.6
		c-0.1-0.1-0.3-0.2-0.5-0.2c-0.2,0-0.4,0.1-0.5,0.2c-0.1,0.1-0.2,0.3-0.2,0.5c0,0.2,0.1,0.4,0.2,0.5c0.1,0.1,0.3,0.2,0.5,0.4
		c0.4,0.2,0.7,0.4,0.9,0.6c0.3,0.3,0.4,0.6,0.4,1c0,0.4-0.1,0.7-0.4,1s-0.6,0.4-1,0.4s-0.7-0.1-1-0.4s-0.4-0.6-0.4-0.9l0.4-0.1
		c0,0.3,0.1,0.5,0.3,0.7c0.2,0.2,0.4,0.3,0.7,0.3s0.5-0.1,0.7-0.3c0.2-0.2,0.3-0.4,0.3-0.7c0-0.3-0.1-0.5-0.3-0.7
		C192.1,287.8,191.9,287.7,191.6,287.5z"/>
	<path class="st0" d="M194.9,285.2v-2h0.4v2h1v0.4h-1v4.4h-0.4v-4.4h-1v-0.4H194.9z"/>
	<path class="st0" d="M199.9,284.7c0.7,0,1.4,0.3,1.9,0.8c0.5,0.5,0.8,1.2,0.8,1.9c0,0.7-0.3,1.4-0.8,1.9c-0.5,0.5-1.2,0.8-1.9,0.8
		c-0.7,0-1.4-0.3-1.9-0.8c-0.5-0.5-0.8-1.2-0.8-1.9c0-0.7,0.3-1.4,0.8-1.9C198.5,285,199.1,284.7,199.9,284.7z M198.3,285.8
		c-0.4,0.4-0.6,1-0.6,1.6c0,0.6,0.2,1.1,0.6,1.6c0.4,0.4,1,0.6,1.6,0.6s1.1-0.2,1.6-0.6c0.4-0.4,0.6-1,0.6-1.6
		c0-0.6-0.2-1.1-0.6-1.6c-0.4-0.4-1-0.6-1.6-0.6S198.7,285.4,198.3,285.8z"/>
	<path class="st0" d="M203.7,285.2h0.4v0.9c0.1-0.1,0.2-0.3,0.3-0.4c0.4-0.4,0.8-0.6,1.2-0.6v0.5c-0.3,0-0.6,0.2-0.9,0.5
		c-0.4,0.4-0.6,0.9-0.6,1.5v2.5h-0.4V285.2z"/>
	<path class="st0" d="M211.8,289.9h-0.4v-1c-0.1,0.1-0.2,0.2-0.3,0.3c-0.5,0.5-1.2,0.8-1.9,0.8c-0.7,0-1.4-0.3-1.9-0.8
		c-0.5-0.5-0.8-1.2-0.8-1.9c0-0.7,0.3-1.4,0.8-1.9c0.5-0.5,1.2-0.8,1.9-0.8c0.7,0,1.4,0.3,1.9,0.8c0.1,0.1,0.2,0.2,0.3,0.3v-0.7h0.4
		V289.9z M211.4,287.8V287c-0.1-0.4-0.3-0.8-0.6-1.1c-0.4-0.4-1-0.6-1.6-0.6s-1.1,0.2-1.6,0.6c-0.4,0.4-0.6,1-0.6,1.6
		c0,0.6,0.2,1.1,0.6,1.6c0.4,0.4,1,0.6,1.6,0.6s1.1-0.2,1.6-0.6C211.1,288.6,211.3,288.3,211.4,287.8z"/>
	<path class="st0" d="M214,285.2v-2h0.4v2h1v0.4h-1v4.4H214v-4.4h-1v-0.4H214z"/>
	<path class="st0" d="M217.2,283.6c0.1,0.1,0.1,0.2,0.1,0.3c0,0.1,0,0.2-0.1,0.3c-0.1,0.1-0.2,0.1-0.3,0.1s-0.2,0-0.3-0.1
		c-0.1-0.1-0.1-0.2-0.1-0.3c0-0.1,0-0.2,0.1-0.3c0.1-0.1,0.2-0.1,0.3-0.1S217.1,283.5,217.2,283.6z M217.1,285.2v4.8h-0.4v-4.8
		H217.1z"/>
	<path class="st0" d="M221.1,284.7c0.7,0,1.4,0.3,1.9,0.8c0.5,0.5,0.8,1.2,0.8,1.9c0,0.7-0.3,1.4-0.8,1.9c-0.5,0.5-1.2,0.8-1.9,0.8
		c-0.7,0-1.4-0.3-1.9-0.8c-0.5-0.5-0.8-1.2-0.8-1.9c0-0.7,0.3-1.4,0.8-1.9C219.7,285,220.3,284.7,221.1,284.7z M219.5,285.8
		c-0.4,0.4-0.6,1-0.6,1.6c0,0.6,0.2,1.1,0.6,1.6c0.4,0.4,1,0.6,1.6,0.6s1.1-0.2,1.6-0.6c0.4-0.4,0.6-1,0.6-1.6
		c0-0.6-0.2-1.1-0.6-1.6c-0.4-0.4-1-0.6-1.6-0.6S219.9,285.4,219.5,285.8z"/>
	<path class="st0" d="M225.4,286.2v3.7h-0.4v-4.8h0.4v0.3c0.4-0.4,0.9-0.6,1.4-0.6c0.6,0,1,0.2,1.4,0.5c0.4,0.4,0.5,0.8,0.5,1.3v3.2
		h-0.4v-3.2c0-0.4-0.1-0.8-0.4-1c-0.3-0.3-0.6-0.4-1-0.4s-0.8,0.1-1,0.4C225.6,285.9,225.4,286.1,225.4,286.2z"/>
	<path class="st0" d="M235.6,285.6c-0.6-0.2-1-0.4-1.3-0.8s-0.5-0.7-0.5-1.2c0-0.4,0.2-0.8,0.5-1.2c0.3-0.3,0.7-0.5,1.2-0.5
		c0.5,0,0.8,0.2,1.2,0.5c0.2,0.2,0.3,0.4,0.4,0.6l-0.4,0.2c-0.1-0.2-0.2-0.3-0.3-0.4c-0.2-0.2-0.5-0.4-0.9-0.4s-0.6,0.1-0.9,0.4
		c-0.2,0.2-0.4,0.5-0.4,0.9c0,0.3,0.1,0.6,0.4,0.9c0.2,0.2,0.5,0.4,0.9,0.6c0.6,0.2,1.2,0.5,1.6,0.9c0.5,0.4,0.7,1,0.7,1.6
		c0,0.6-0.2,1.2-0.7,1.6c-0.5,0.5-1,0.7-1.6,0.7s-1.2-0.2-1.6-0.7c-0.4-0.4-0.6-0.8-0.6-1.3l0.4-0.2c0,0.4,0.2,0.8,0.5,1.1
		c0.4,0.4,0.8,0.6,1.3,0.6c0.5,0,1-0.2,1.3-0.6c0.4-0.4,0.6-0.8,0.6-1.3c0-0.5-0.2-1-0.6-1.3C236.4,286.1,236,285.8,235.6,285.6z"/>
	<path class="st0" d="M239.6,289c0.4,0.4,0.9,0.6,1.5,0.6c0.6,0,1.1-0.2,1.6-0.6c0.1-0.1,0.1-0.1,0.2-0.2l0.5,0.2
		c-0.1,0.1-0.2,0.2-0.3,0.3c-0.5,0.5-1.2,0.8-1.9,0.8c-0.7,0-1.4-0.3-1.9-0.8c-0.5-0.5-0.8-1.2-0.8-1.9c0-0.7,0.3-1.4,0.8-1.9
		c0.5-0.5,1.2-0.8,1.9-0.8c0.6,0,1.2,0.2,1.7,0.6c0.1,0.1,0.2,0.1,0.2,0.2c0,0,0.1,0.1,0.1,0.1l-0.3,0.3L239.6,289z M242.4,285.6
		c-0.4-0.3-0.8-0.4-1.3-0.4c-0.6,0-1.1,0.2-1.6,0.6c-0.4,0.4-0.6,1-0.6,1.6c0,0.5,0.1,0.9,0.4,1.3L242.4,285.6z"/>
	<path class="st0" d="M244.5,285.2h0.4v0.9c0.1-0.1,0.2-0.3,0.3-0.4c0.4-0.4,0.8-0.6,1.2-0.6v0.5c-0.3,0-0.6,0.2-0.9,0.5
		c-0.4,0.4-0.6,0.9-0.6,1.5v2.5h-0.4V285.2z"/>
	<path class="st0" d="M249.6,289.1l1.8-4h0.5l-2.4,4.9l-2.4-4.9h0.5L249.6,289.1z"/>
	<path class="st0" d="M253.6,283.6c0.1,0.1,0.1,0.2,0.1,0.3c0,0.1,0,0.2-0.1,0.3c-0.1,0.1-0.2,0.1-0.3,0.1s-0.2,0-0.3-0.1
		c-0.1-0.1-0.1-0.2-0.1-0.3c0-0.1,0-0.2,0.1-0.3c0.1-0.1,0.2-0.1,0.3-0.1S253.5,283.5,253.6,283.6z M253.5,285.2v4.8H253v-4.8H253.5
		z"/>
	<path class="st0" d="M259.2,288.8l0.5,0.2c-0.1,0.1-0.2,0.2-0.3,0.3c-0.5,0.5-1.2,0.8-1.9,0.8c-0.7,0-1.4-0.3-1.9-0.8
		c-0.5-0.5-0.8-1.2-0.8-1.9c0-0.7,0.3-1.4,0.8-1.9c0.5-0.5,1.2-0.8,1.9-0.8c0.7,0,1.4,0.3,1.9,0.8c0.1,0.1,0.2,0.2,0.3,0.3l-0.5,0.2
		c0-0.1-0.1-0.1-0.2-0.2c-0.4-0.4-1-0.6-1.6-0.6c-0.6,0-1.1,0.2-1.6,0.6c-0.4,0.4-0.6,1-0.6,1.6c0,0.6,0.2,1.1,0.6,1.6
		c0.4,0.4,1,0.6,1.6,0.6c0.6,0,1.1-0.2,1.6-0.6C259.1,288.9,259.1,288.9,259.2,288.8z"/>
	<path class="st0" d="M261.7,289c0.4,0.4,0.9,0.6,1.5,0.6c0.6,0,1.1-0.2,1.6-0.6c0.1-0.1,0.1-0.1,0.2-0.2l0.5,0.2
		c-0.1,0.1-0.2,0.2-0.3,0.3c-0.5,0.5-1.2,0.8-1.9,0.8c-0.7,0-1.4-0.3-1.9-0.8c-0.5-0.5-0.8-1.2-0.8-1.9c0-0.7,0.3-1.4,0.8-1.9
		c0.5-0.5,1.2-0.8,1.9-0.8c0.6,0,1.2,0.2,1.7,0.6c0.1,0.1,0.2,0.1,0.2,0.2c0,0,0.1,0.1,0.1,0.1l-0.3,0.3L261.7,289z M264.5,285.6
		c-0.4-0.3-0.8-0.4-1.3-0.4c-0.6,0-1.1,0.2-1.6,0.6c-0.4,0.4-0.6,1-0.6,1.6c0,0.5,0.1,0.9,0.4,1.3L264.5,285.6z"/>
	<path class="st0" d="M267.9,287.5c-0.4-0.2-0.6-0.4-0.8-0.5c-0.2-0.2-0.3-0.5-0.3-0.8c0-0.3,0.1-0.6,0.3-0.8
		c0.2-0.2,0.5-0.3,0.8-0.3c0.3,0,0.6,0.1,0.8,0.3c0.2,0.2,0.3,0.4,0.3,0.7v0l-0.4,0.2c0-0.2-0.1-0.4-0.2-0.6
		c-0.1-0.1-0.3-0.2-0.5-0.2c-0.2,0-0.4,0.1-0.5,0.2c-0.1,0.1-0.2,0.3-0.2,0.5c0,0.2,0.1,0.4,0.2,0.5c0.1,0.1,0.3,0.2,0.5,0.4
		c0.4,0.2,0.7,0.4,0.9,0.6c0.3,0.3,0.4,0.6,0.4,1c0,0.4-0.1,0.7-0.4,1s-0.6,0.4-1,0.4s-0.7-0.1-1-0.4s-0.4-0.6-0.4-0.9l0.4-0.1
		c0,0.3,0.1,0.5,0.3,0.7c0.2,0.2,0.4,0.3,0.7,0.3s0.5-0.1,0.7-0.3c0.2-0.2,0.3-0.4,0.3-0.7c0-0.3-0.1-0.5-0.3-0.7
		C268.4,287.8,268.2,287.7,267.9,287.5z"/>
</g>
<g>
	<g>
		<path class="st0" d="M177.1,41.3v15.1h-0.8V42.8h-0.9l1.2-1.5H177.1z"/>
		<path class="st0" d="M185.5,52.3c1-0.8,2-1.5,2.8-2.1c0.8-0.6,1.5-1.3,2.2-2c0.7-0.7,1-1.6,1-2.6c0-1-0.4-1.9-1.1-2.6
			c-0.7-0.7-1.6-1.1-2.6-1.1c-1,0-1.8,0.4-2.5,1.1c-0.6,0.6-0.9,1.3-1,2.2l-0.9-0.3c0.1-0.9,0.6-1.8,1.3-2.5
			c0.9-0.9,1.9-1.3,3.2-1.3c1.2,0,2.3,0.4,3.2,1.3c0.9,0.9,1.3,1.9,1.3,3.2c0,1.2-0.4,2.3-1.3,3.2c-0.6,0.6-1.3,1.3-2.1,1.8
			c-0.8,0.6-1.7,1.3-2.7,2c-1,0.7-1.6,1.7-1.9,2.8h7.9v0.8h-8.9C183.8,54.4,184.5,53.1,185.5,52.3z"/>
	</g>
</g>
<g>
	<path class="st0" d="M254,122.2l-0.7,0v-0.8c0.6,0,1.1-0.1,1.4-0.2c0.4-0.1,0.8-0.4,1.2-0.9c0.4-0.5,0.7-1,0.7-1.7
		c0-0.6-0.2-1.2-0.7-1.6c-0.5-0.4-1-0.7-1.6-0.7c-0.6,0-1.2,0.2-1.6,0.7c-0.3,0.3-0.4,0.5-0.6,0.9l-0.8-0.3c0.1-0.4,0.4-0.8,0.7-1.2
		c0.6-0.6,1.4-0.9,2.3-0.9c0.9,0,1.7,0.3,2.3,0.9c0.6,0.6,0.9,1.4,0.9,2.3c0,0.9-0.2,1.6-0.7,2.1c-0.5,0.5-0.9,0.9-1.3,1
		c0.9,0.3,1.7,0.8,2.3,1.4c0.9,0.9,1.3,2,1.3,3.2c0,1.2-0.4,2.3-1.3,3.2s-1.9,1.3-3.2,1.3c-1.2,0-2.3-0.4-3.2-1.3
		c-0.7-0.7-1.1-1.5-1.3-2.5l0.9-0.3c0.1,0.8,0.4,1.6,1,2.2c0.7,0.7,1.6,1.1,2.5,1.1c1,0,1.9-0.4,2.6-1.1c0.7-0.7,1.1-1.6,1.1-2.6
		c0-1-0.3-1.9-1-2.6C256.4,123,255.3,122.5,254,122.2z"/>
</g>
<g>
	<path class="st0" d="M177.7,204.4c0.9-0.8,2.1-1.2,3.4-1.2c1.4,0,2.7,0.5,3.7,1.5c1,1,1.5,2.2,1.5,3.7c0,1.4-0.5,2.6-1.5,3.7
		s-2.2,1.5-3.7,1.5c-1.4,0-2.6-0.5-3.7-1.5c-1-1-1.5-2.1-1.5-3.5h-0.1c0.1-2.2,0.6-4,1.6-5.4c1-1.4,2.3-2.9,3.7-4.6
		c0.1-0.1,0.2-0.2,0.3-0.3h1.2c-0.1,0.2-0.3,0.3-0.4,0.5c-1.7,1.8-3,3.5-3.9,4.8C178,203.8,177.8,204.1,177.7,204.4z M178,205.3
		c-0.8,0.8-1.3,1.8-1.3,3s0.4,2.2,1.3,3s1.8,1.2,3,1.2s2.2-0.4,3-1.2s1.3-1.8,1.3-3s-0.4-2.2-1.3-3s-1.8-1.3-3-1.3
		S178.8,204.5,178,205.3z"/>
</g>
<g>
	<path class="st0" d="M103.7,128.1c-0.9,0.8-2.1,1.2-3.4,1.2c-1.4,0-2.7-0.5-3.7-1.5c-1-1-1.5-2.2-1.5-3.7c0-1.4,0.5-2.6,1.5-3.7
		s2.2-1.5,3.7-1.5c1.4,0,2.6,0.5,3.7,1.5c1,1,1.5,2.1,1.5,3.5h0.1c-0.1,2.2-0.6,4-1.6,5.4c-1,1.4-2.3,2.9-3.7,4.6
		c-0.1,0.1-0.2,0.2-0.3,0.3h-1.2c0.1-0.2,0.3-0.3,0.4-0.5c1.7-1.8,3-3.5,3.9-4.8C103.3,128.7,103.5,128.4,103.7,128.1z M103.3,127.1
		c0.8-0.8,1.3-1.8,1.3-3s-0.4-2.2-1.3-3c-0.8-0.8-1.8-1.2-3-1.2s-2.2,0.4-3,1.2c-0.8,0.8-1.3,1.8-1.3,3s0.4,2.2,1.3,3s1.8,1.3,3,1.3
		S102.5,128,103.3,127.1z"/>
</g>
</svg>
