<?xml version="1.0" encoding="utf-8"?>
<!-- Generator: Adobe Illustrator 22.1.0, SVG Export Plug-In . SVG Version: 6.00 Build 0)  -->
<svg version="1.1" id="Layer_1" xmlns="http://www.w3.org/2000/svg" xmlns:xlink="http://www.w3.org/1999/xlink" x="0px" y="0px"
	 viewBox="0 0 360 360" style="enable-background:new 0 0 360 360;" xml:space="preserve">
<path d="M176.4,204.8c-36.2,0-65.7-29.5-65.7-65.7s29.5-65.7,65.7-65.7h0.5l0.6,66.2l33.6,55.3l-0.4,0.3c-4.6,2.8-9.6,5.1-14.8,6.7
	C189.5,203.8,183,204.8,176.4,204.8z M175.9,74.5c-35.4,0.3-64.2,29.2-64.2,64.7c0,35.7,29,64.7,64.7,64.7c6.5,0,13-1,19.2-2.9
	c4.9-1.5,9.7-3.7,14.1-6.3l-33.2-54.7l0-0.1L175.9,74.5z"/>
<path d="M215.3,192.1l-0.6-0.8c16-12.8,26.4-33.3,26.4-52.2c0-33.7-26.3-62-59.8-64.5l0.1-1c34,2.5,60.7,31.3,60.7,65.5
	C242,158.3,231.5,179.1,215.3,192.1z"/>
<g>
	<g>
		<path d="M121.7,247.3v12.4h-1.4v-25.6h1.4V245l8.2-10.9h1.9l-7.7,10.3l9.9,15.3h-1.8l-9.1-14.1L121.7,247.3z"/>
		<path d="M139.6,256.7c1.4,1.2,3,1.9,4.8,1.9c2,0,3.7-0.7,5.1-2.1c0.2-0.2,0.4-0.4,0.5-0.6l1.5,0.5c-0.3,0.4-0.6,0.8-0.9,1.1
			c-1.7,1.7-3.8,2.6-6.2,2.6c-2.4,0-4.5-0.9-6.2-2.6s-2.6-3.8-2.6-6.2c0-2.4,0.9-4.5,2.6-6.2s3.8-2.6,6.2-2.6c2.1,0,3.9,0.6,5.4,1.9
			c0.3,0.2,0.5,0.4,0.8,0.7c0.1,0.1,0.2,0.2,0.3,0.3l-1.1,1.1L139.6,256.7z M148.7,245.5c-1.2-1-2.7-1.4-4.3-1.4
			c-2,0-3.7,0.7-5.1,2.1c-1.4,1.4-2.1,3.1-2.1,5.1c0,1.7,0.5,3.1,1.4,4.3L148.7,245.5z"/>
		<path d="M156.8,247.4v12.2h-1.4v-15.7h1.4v1c1.3-1.3,2.8-1.9,4.6-1.9c1.9,0,3.4,0.6,4.5,1.7c1.2,1.2,1.8,2.6,1.8,4.4v10.5h-1.4
			v-10.4c0-1.3-0.5-2.5-1.4-3.4c-1-0.9-2.1-1.4-3.4-1.4s-2.5,0.5-3.4,1.4C157.5,246.4,157.1,246.9,156.8,247.4z"/>
		<path d="M172.1,249.5h9.4v1.4h-9.4V249.5z"/>
		<path d="M207.3,256.5c-2.4,2.3-5.3,3.5-8.7,3.5c-3.6,0-6.7-1.3-9.3-3.8s-3.8-5.6-3.8-9.3c0-3.6,1.3-6.7,3.8-9.3
			c2.6-2.6,5.6-3.8,9.3-3.8c3.4,0,6.3,1.1,8.8,3.4l-1.1,1c-2.2-1.9-4.8-2.9-7.7-2.9c-3.2,0-5.9,1.1-8.2,3.4c-2.3,2.3-3.4,5-3.4,8.2
			c0,3.2,1.1,6,3.4,8.2c2.3,2.3,5,3.4,8.2,3.4c2.7,0,5.2-0.8,7.3-2.5v-7.8h1.4V256.5z"/>
		<path d="M213.2,234.1v25.6h-1.4v-25.6H213.2z"/>
		<path d="M225.9,242.5c2.4,0,4.5,0.9,6.2,2.6c1.7,1.7,2.6,3.8,2.6,6.2c0,2.4-0.9,4.5-2.6,6.2c-1.7,1.7-3.8,2.6-6.2,2.6
			c-2.4,0-4.5-0.9-6.2-2.6s-2.6-3.8-2.6-6.2c0-2.4,0.9-4.5,2.6-6.2S223.4,242.5,225.9,242.5z M220.7,246.2c-1.4,1.4-2.1,3.1-2.1,5.1
			c0,2,0.7,3.7,2.1,5.1c1.4,1.4,3.1,2.1,5.1,2.1c2,0,3.7-0.7,5.1-2.1c1.4-1.4,2.1-3.1,2.1-5.1c0-2-0.7-3.7-2.1-5.1
			c-1.4-1.4-3.1-2.1-5.1-2.1C223.9,244.1,222.1,244.8,220.7,246.2z"/>
		<path d="M92.4,264.1H94l13.1,22.7v-22.7h1.4v25.6h-1.4l-13.3-23v23h-1.4V264.1z"/>
		<path d="M116.3,286.7c1.4,1.2,3,1.9,4.8,1.9c2,0,3.7-0.7,5.1-2.1c0.2-0.2,0.4-0.4,0.5-0.6l1.5,0.5c-0.3,0.4-0.6,0.8-0.9,1.1
			c-1.7,1.7-3.8,2.6-6.2,2.6c-2.4,0-4.5-0.9-6.2-2.6c-1.7-1.7-2.6-3.8-2.6-6.2c0-2.4,0.9-4.5,2.6-6.2c1.7-1.7,3.8-2.6,6.2-2.6
			c2.1,0,3.9,0.6,5.4,1.9c0.3,0.2,0.5,0.4,0.8,0.7c0.1,0.1,0.2,0.2,0.3,0.3l-1.1,1.1L116.3,286.7z M125.5,275.5
			c-1.2-1-2.7-1.4-4.3-1.4c-2,0-3.7,0.7-5.1,2.1c-1.4,1.4-2.1,3.1-2.1,5.1c0,1.7,0.5,3.1,1.4,4.3L125.5,275.5z"/>
		<path d="M139.9,272.5c2.4,0,4.5,0.9,6.2,2.6c1.7,1.7,2.6,3.8,2.6,6.2c0,2.4-0.9,4.5-2.6,6.2c-1.7,1.7-3.8,2.6-6.2,2.6
			c-2.4,0-4.5-0.9-6.2-2.6c-1.7-1.7-2.6-3.8-2.6-6.2c0-2.4,0.9-4.5,2.6-6.2C135.5,273.4,137.5,272.5,139.9,272.5z M134.8,276.2
			c-1.4,1.4-2.1,3.1-2.1,5.1c0,2,0.7,3.7,2.1,5.1c1.4,1.4,3.1,2.1,5.1,2.1c2,0,3.7-0.7,5.1-2.1c1.4-1.4,2.1-3.1,2.1-5.1
			c0-2-0.7-3.7-2.1-5.1c-1.4-1.4-3.1-2.1-5.1-2.1C137.9,274.1,136.2,274.8,134.8,276.2z"/>
		<path d="M154,277.4v12.2h-1.4v-15.7h1.4v1c1.3-1.3,2.8-1.9,4.6-1.9c1.9,0,3.4,0.6,4.5,1.7c1.2,1.2,1.8,2.6,1.8,4.4v10.5h-1.4
			v-10.4c0-1.3-0.5-2.5-1.4-3.4c-1-0.9-2.1-1.4-3.4-1.4c-1.3,0-2.5,0.5-3.4,1.4C154.6,276.4,154.2,276.9,154,277.4z"/>
		<path d="M201.4,285.6l1.1,1c-2.5,2.3-5.4,3.4-8.8,3.4c-3.6,0-6.7-1.3-9.3-3.8c-2.6-2.6-3.8-5.6-3.8-9.3c0-3.6,1.3-6.7,3.8-9.3
			c2.6-2.6,5.6-3.8,9.3-3.8c3.4,0,6.3,1.1,8.8,3.4l-1.1,1c-2.2-1.9-4.8-2.9-7.7-2.9c-3.2,0-5.9,1.1-8.2,3.4s-3.4,5-3.4,8.2
			c0,3.2,1.1,6,3.4,8.2s5,3.4,8.2,3.4C196.6,288.5,199.2,287.5,201.4,285.6z"/>
		<path d="M207.9,264.1v25.6h-1.4v-25.6H207.9z"/>
		<path d="M220.5,272.5c2.4,0,4.5,0.9,6.2,2.6c1.7,1.7,2.6,3.8,2.6,6.2c0,2.4-0.9,4.5-2.6,6.2c-1.7,1.7-3.8,2.6-6.2,2.6
			c-2.4,0-4.5-0.9-6.2-2.6s-2.6-3.8-2.6-6.2c0-2.4,0.9-4.5,2.6-6.2S218.1,272.5,220.5,272.5z M215.4,276.2c-1.4,1.4-2.1,3.1-2.1,5.1
			c0,2,0.7,3.7,2.1,5.1c1.4,1.4,3.1,2.1,5.1,2.1c2,0,3.7-0.7,5.1-2.1c1.4-1.4,2.1-3.1,2.1-5.1c0-2-0.7-3.7-2.1-5.1
			c-1.4-1.4-3.1-2.1-5.1-2.1C218.5,274.1,216.8,274.8,215.4,276.2z"/>
		<path d="M246.6,285.9l1.5,0.5c-0.3,0.4-0.6,0.8-0.9,1.1c-1.7,1.7-3.8,2.6-6.2,2.6c-2.4,0-4.5-0.9-6.2-2.6s-2.6-3.8-2.6-6.2
			c0-2.4,0.9-4.5,2.6-6.2s3.8-2.6,6.2-2.6c2.4,0,4.5,0.9,6.2,2.6c0.4,0.4,0.7,0.7,0.9,1.1l-1.5,0.6c-0.2-0.2-0.3-0.4-0.5-0.6
			c-1.4-1.4-3.1-2.1-5.1-2.1c-2,0-3.7,0.7-5.1,2.1c-1.4,1.4-2.1,3.1-2.1,5.1c0,2,0.7,3.7,2.1,5.1c1.4,1.4,3.1,2.1,5.1,2.1
			c2,0,3.7-0.7,5.1-2.1C246.2,286.2,246.4,286.1,246.6,285.9z"/>
		<path d="M259.3,273.9l-3.9,4.8l6.2,10.9h-1.8l-5.3-9.7l-1.4,1.7v8h-1.4v-22.4h1.4v12.1l4.4-5.4H259.3z"/>
		<path d="M269.1,281.6c-1.2-0.7-2.1-1.2-2.5-1.7c-0.7-0.7-1.1-1.6-1.1-2.7c0-1,0.4-1.9,1.1-2.7s1.6-1.1,2.7-1.1c1,0,1.9,0.3,2.6,1
			c0.7,0.7,1,1.4,1,2.3v0.1l-1.2,0.5c-0.1-0.8-0.4-1.4-0.8-1.8c-0.4-0.4-0.9-0.6-1.6-0.6c-0.6,0-1.2,0.2-1.6,0.7s-0.7,1-0.7,1.7
			c0,0.6,0.2,1.2,0.7,1.6c0.3,0.3,0.8,0.7,1.7,1.2c1.4,0.7,2.3,1.4,2.9,2c0.9,0.9,1.4,2,1.4,3.3c0,1.3-0.5,2.4-1.4,3.3
			c-0.9,0.9-2,1.4-3.3,1.4s-2.4-0.5-3.3-1.4c-0.9-0.9-1.4-1.9-1.4-3l1.4-0.4c0,0.9,0.3,1.7,1,2.3c0.6,0.6,1.4,0.9,2.3,0.9
			s1.6-0.3,2.3-0.9c0.6-0.6,1-1.4,1-2.3c0-0.9-0.3-1.6-0.9-2.3C270.8,282.7,270.2,282.2,269.1,281.6z"/>
	</g>
</g>
<g>
	<path d="M102.9,300.7l0.3,0.3c-0.8,0.7-1.7,1-2.7,1c-1.1,0-2-0.4-2.8-1.2c-0.8-0.8-1.2-1.7-1.2-2.8c0-1.1,0.4-2,1.2-2.8
		c0.8-0.8,1.7-1.2,2.8-1.2c1,0,1.9,0.3,2.7,1l-0.3,0.3c-0.7-0.6-1.5-0.9-2.4-0.9c-1,0-1.8,0.3-2.5,1s-1,1.5-1,2.5c0,1,0.3,1.8,1,2.5
		s1.5,1,2.5,1C101.4,301.6,102.2,301.3,102.9,300.7z"/>
	<path d="M106.4,302c-0.6,0-1.1-0.2-1.4-0.5c-0.4-0.4-0.5-0.8-0.5-1.3v-3h0.4v2.9c0,0.4,0.1,0.8,0.4,1c0.3,0.3,0.7,0.4,1.1,0.4
		c0.4,0,0.8-0.1,1-0.4c0.3-0.3,0.4-0.6,0.4-1v-2.9h0.4v3c0,0.5-0.2,1-0.5,1.3C107.4,301.9,107,302,106.4,302z"/>
	<path d="M111.1,299.5c-0.4-0.2-0.6-0.4-0.8-0.5c-0.2-0.2-0.3-0.5-0.3-0.8c0-0.3,0.1-0.6,0.3-0.8s0.5-0.3,0.8-0.3
		c0.3,0,0.6,0.1,0.8,0.3c0.2,0.2,0.3,0.4,0.3,0.7v0l-0.4,0.2c0-0.2-0.1-0.4-0.2-0.6s-0.3-0.2-0.5-0.2c-0.2,0-0.4,0.1-0.5,0.2
		c-0.1,0.1-0.2,0.3-0.2,0.5c0,0.2,0.1,0.4,0.2,0.5c0.1,0.1,0.3,0.2,0.5,0.4c0.4,0.2,0.7,0.4,0.9,0.6c0.3,0.3,0.4,0.6,0.4,1
		c0,0.4-0.1,0.7-0.4,1c-0.3,0.3-0.6,0.4-1,0.4c-0.4,0-0.7-0.1-1-0.4c-0.3-0.3-0.4-0.6-0.4-0.9l0.4-0.1c0,0.3,0.1,0.5,0.3,0.7
		c0.2,0.2,0.4,0.3,0.7,0.3c0.3,0,0.5-0.1,0.7-0.3c0.2-0.2,0.3-0.4,0.3-0.7c0-0.3-0.1-0.5-0.3-0.7
		C111.6,299.9,111.4,299.7,111.1,299.5z"/>
	<path d="M114.5,297.2v-2h0.4v2h1v0.4h-1v4.4h-0.4v-4.4h-1v-0.4H114.5z"/>
	<path d="M119.4,296.7c0.7,0,1.4,0.3,1.9,0.8s0.8,1.2,0.8,1.9c0,0.7-0.3,1.4-0.8,1.9s-1.2,0.8-1.9,0.8c-0.7,0-1.4-0.3-1.9-0.8
		c-0.5-0.5-0.8-1.2-0.8-1.9c0-0.7,0.3-1.4,0.8-1.9C118.1,297,118.7,296.7,119.4,296.7z M117.9,297.9c-0.4,0.4-0.6,1-0.6,1.6
		s0.2,1.1,0.6,1.6c0.4,0.4,1,0.6,1.6,0.6c0.6,0,1.1-0.2,1.6-0.6c0.4-0.4,0.6-1,0.6-1.6s-0.2-1.1-0.6-1.6c-0.4-0.4-1-0.6-1.6-0.6
		C118.8,297.2,118.3,297.4,117.9,297.9z"/>
	<path d="M123.3,297.2h0.4v0.1c0.3-0.3,0.6-0.4,1-0.4c0.4,0,0.7,0.1,1,0.4c0.1,0.1,0.1,0.2,0.2,0.2c0.1-0.1,0.1-0.2,0.2-0.2
		c0.3-0.3,0.6-0.4,1-0.4c0.4,0,0.7,0.1,1,0.4c0.3,0.3,0.4,0.6,0.4,1v3.7h-0.4v-3.7h0c0-0.3-0.1-0.5-0.3-0.6
		c-0.2-0.2-0.4-0.3-0.7-0.3c-0.3,0-0.5,0.1-0.7,0.3c-0.2,0.2-0.3,0.4-0.3,0.7v3.6h-0.4v-3.7h0c0-0.3-0.1-0.5-0.3-0.6
		c-0.2-0.2-0.4-0.3-0.7-0.3c-0.3,0-0.5,0.1-0.7,0.3c-0.2,0.2-0.3,0.4-0.3,0.6v3.7h-0.4V297.2z"/>
	<path d="M139.7,300.7l0.3,0.3c-0.8,0.7-1.7,1-2.7,1c-1.1,0-2-0.4-2.8-1.2c-0.8-0.8-1.2-1.7-1.2-2.8c0-1.1,0.4-2,1.2-2.8
		c0.8-0.8,1.7-1.2,2.8-1.2c1,0,1.9,0.3,2.7,1l-0.3,0.3c-0.7-0.6-1.5-0.9-2.4-0.9c-1,0-1.8,0.3-2.5,1s-1,1.5-1,2.5c0,1,0.3,1.8,1,2.5
		s1.5,1,2.5,1C138.2,301.6,139,301.3,139.7,300.7z"/>
	<path d="M141.7,294.2v7.8h-0.4v-7.8H141.7z"/>
	<path d="M145.5,296.7c0.7,0,1.4,0.3,1.9,0.8s0.8,1.2,0.8,1.9c0,0.7-0.3,1.4-0.8,1.9s-1.2,0.8-1.9,0.8c-0.7,0-1.4-0.3-1.9-0.8
		c-0.5-0.5-0.8-1.2-0.8-1.9c0-0.7,0.3-1.4,0.8-1.9C144.2,297,144.8,296.7,145.5,296.7z M144,297.9c-0.4,0.4-0.6,1-0.6,1.6
		s0.2,1.1,0.6,1.6c0.4,0.4,1,0.6,1.6,0.6c0.6,0,1.1-0.2,1.6-0.6c0.4-0.4,0.6-1,0.6-1.6s-0.2-1.1-0.6-1.6c-0.4-0.4-1-0.6-1.6-0.6
		C144.9,297.2,144.4,297.4,144,297.9z"/>
	<path d="M153.5,300.8l0.5,0.2c-0.1,0.1-0.2,0.2-0.3,0.3c-0.5,0.5-1.2,0.8-1.9,0.8c-0.7,0-1.4-0.3-1.9-0.8s-0.8-1.2-0.8-1.9
		c0-0.7,0.3-1.4,0.8-1.9s1.2-0.8,1.9-0.8c0.7,0,1.4,0.3,1.9,0.8c0.1,0.1,0.2,0.2,0.3,0.3l-0.5,0.2c0-0.1-0.1-0.1-0.2-0.2
		c-0.4-0.4-1-0.6-1.6-0.6c-0.6,0-1.1,0.2-1.6,0.6s-0.6,1-0.6,1.6s0.2,1.1,0.6,1.6s1,0.6,1.6,0.6c0.6,0,1.1-0.2,1.6-0.6
		C153.4,300.9,153.4,300.9,153.5,300.8z"/>
	<path d="M157.4,297.2l-1.2,1.5l1.9,3.3h-0.5l-1.6-3l-0.4,0.5v2.4h-0.4v-6.8h0.4v3.7l1.3-1.6H157.4z"/>
	<path d="M160.4,299.5c-0.4-0.2-0.6-0.4-0.8-0.5c-0.2-0.2-0.3-0.5-0.3-0.8c0-0.3,0.1-0.6,0.3-0.8c0.2-0.2,0.5-0.3,0.8-0.3
		c0.3,0,0.6,0.1,0.8,0.3c0.2,0.2,0.3,0.4,0.3,0.7v0l-0.4,0.2c0-0.2-0.1-0.4-0.2-0.6c-0.1-0.1-0.3-0.2-0.5-0.2
		c-0.2,0-0.4,0.1-0.5,0.2s-0.2,0.3-0.2,0.5c0,0.2,0.1,0.4,0.2,0.5c0.1,0.1,0.3,0.2,0.5,0.4c0.4,0.2,0.7,0.4,0.9,0.6
		c0.3,0.3,0.4,0.6,0.4,1c0,0.4-0.1,0.7-0.4,1s-0.6,0.4-1,0.4s-0.7-0.1-1-0.4s-0.4-0.6-0.4-0.9l0.4-0.1c0,0.3,0.1,0.5,0.3,0.7
		c0.2,0.2,0.4,0.3,0.7,0.3s0.5-0.1,0.7-0.3c0.2-0.2,0.3-0.4,0.3-0.7c0-0.3-0.1-0.5-0.3-0.7C160.9,299.9,160.7,299.7,160.4,299.5z"/>
	<path d="M170.2,300.4c0,0-0.1,0-0.1-0.1c-0.2-0.1-0.4-0.3-0.6-0.5c-0.2-0.1-0.3-0.2-0.3-0.3c-0.1,0-0.1-0.1-0.2-0.1
		c0,0-0.1,0-0.1,0c-0.1,0-0.2,0.1-0.3,0.2c0,0.1-0.1,0.1-0.1,0.2c0,0,0,0.1,0,0.1c0,0.1,0.1,0.2,0.2,0.3c0.1,0,0.1,0,0.3,0
		c0.1,0,0.1,0,0.2,0l0,0.4c-0.1,0-0.2,0-0.2,0c-0.1,0-0.3,0-0.4-0.1c-0.2-0.1-0.3-0.3-0.4-0.5c0-0.1,0-0.2,0-0.2
		c0-0.1,0-0.3,0.1-0.4c0.1-0.2,0.3-0.3,0.5-0.4c0.1,0,0.2,0,0.2,0c0.1,0,0.3,0,0.4,0.1c0.1,0.1,0.3,0.2,0.5,0.4
		c0.2,0.2,0.3,0.3,0.4,0.3c0.1,0.1,0.2,0.1,0.3,0.1c0.1,0,0.1,0,0.2,0c0.2,0,0.3-0.1,0.4-0.3c0.1-0.1,0.1-0.2,0.1-0.3
		c0-0.1,0-0.1,0-0.2c0-0.2-0.1-0.3-0.3-0.4c-0.1-0.1-0.2-0.1-0.3-0.1c-0.1,0-0.2,0-0.3,0l0-0.4c0.1,0,0.2,0,0.3,0
		c0.2,0,0.3,0,0.5,0.1c0.3,0.1,0.4,0.4,0.5,0.6c0,0.1,0,0.2,0,0.3c0,0.2,0,0.4-0.1,0.5c-0.1,0.3-0.4,0.4-0.6,0.5c-0.1,0-0.2,0-0.2,0
		c-0.1,0.4-0.3,0.7-0.6,0.9c-0.5,0.5-1,0.7-1.6,0.7s-1.2-0.2-1.6-0.7s-0.7-1-0.7-1.6c0-0.6,0.2-1.2,0.7-1.7c0.3-0.3,0.7-0.6,1.2-0.7
		c-0.2-0.1-0.5-0.3-0.7-0.5c-0.2-0.3-0.4-0.6-0.4-1.1c0-0.4,0.2-0.8,0.5-1.2s0.7-0.5,1.2-0.5c0.5,0,0.8,0.2,1.2,0.5
		c0.2,0.2,0.3,0.4,0.4,0.6l-0.4,0.2c-0.1-0.2-0.2-0.3-0.3-0.4c-0.2-0.2-0.5-0.4-0.9-0.4s-0.6,0.1-0.9,0.4s-0.4,0.5-0.4,0.9
		c0,0.3,0.1,0.6,0.3,0.9c0.2,0.2,0.4,0.4,0.6,0.5s0.4,0.1,0.7,0.1v0.4l-0.4,0c-0.7,0.1-1.2,0.4-1.6,0.8s-0.5,0.8-0.5,1.4
		c0,0.5,0.2,1,0.6,1.3s0.8,0.6,1.3,0.6c0.5,0,1-0.2,1.3-0.6C169.9,300.9,170.1,300.6,170.2,300.4z"/>
	<path d="M178.2,299.3c0,0-0.1,0-0.1,0h-1.3v2.7h-0.4v-7.8h2.1c0.6,0.1,1.1,0.3,1.5,0.7c0.5,0.5,0.7,1.1,0.7,1.8
		c0,0.7-0.2,1.3-0.7,1.8c-0.3,0.3-0.7,0.6-1.2,0.7l1.8,2.8h-0.5L178.2,299.3z M176.7,294.6v4.2h1.3c0.6,0,1.1-0.2,1.5-0.6
		c0.4-0.4,0.6-0.9,0.6-1.5s-0.2-1.1-0.6-1.5c-0.4-0.4-0.9-0.6-1.5-0.6H176.7z"/>
	<path d="M182.3,301.1c0.4,0.4,0.9,0.6,1.5,0.6c0.6,0,1.1-0.2,1.6-0.6c0.1-0.1,0.1-0.1,0.2-0.2l0.5,0.2c-0.1,0.1-0.2,0.2-0.3,0.3
		c-0.5,0.5-1.2,0.8-1.9,0.8c-0.7,0-1.4-0.3-1.9-0.8s-0.8-1.2-0.8-1.9c0-0.7,0.3-1.4,0.8-1.9s1.2-0.8,1.9-0.8c0.6,0,1.2,0.2,1.7,0.6
		c0.1,0.1,0.2,0.1,0.2,0.2c0,0,0.1,0.1,0.1,0.1l-0.3,0.3L182.3,301.1z M185.1,297.7c-0.4-0.3-0.8-0.4-1.3-0.4
		c-0.6,0-1.1,0.2-1.6,0.6s-0.6,1-0.6,1.6c0,0.5,0.1,0.9,0.4,1.3L185.1,297.7z"/>
	<path d="M188.5,299.5c-0.4-0.2-0.6-0.4-0.8-0.5c-0.2-0.2-0.3-0.5-0.3-0.8c0-0.3,0.1-0.6,0.3-0.8s0.5-0.3,0.8-0.3
		c0.3,0,0.6,0.1,0.8,0.3c0.2,0.2,0.3,0.4,0.3,0.7v0l-0.4,0.2c0-0.2-0.1-0.4-0.2-0.6c-0.1-0.1-0.3-0.2-0.5-0.2
		c-0.2,0-0.4,0.1-0.5,0.2s-0.2,0.3-0.2,0.5c0,0.2,0.1,0.4,0.2,0.5c0.1,0.1,0.3,0.2,0.5,0.4c0.4,0.2,0.7,0.4,0.9,0.6
		c0.3,0.3,0.4,0.6,0.4,1c0,0.4-0.1,0.7-0.4,1s-0.6,0.4-1,0.4c-0.4,0-0.7-0.1-1-0.4s-0.4-0.6-0.4-0.9l0.4-0.1c0,0.3,0.1,0.5,0.3,0.7
		c0.2,0.2,0.4,0.3,0.7,0.3s0.5-0.1,0.7-0.3c0.2-0.2,0.3-0.4,0.3-0.7c0-0.3-0.1-0.5-0.3-0.7C189,299.9,188.8,299.7,188.5,299.5z"/>
	<path d="M191.8,297.2v-2h0.4v2h1v0.4h-1v4.4h-0.4v-4.4h-1v-0.4H191.8z"/>
	<path d="M196.8,296.7c0.7,0,1.4,0.3,1.9,0.8c0.5,0.5,0.8,1.2,0.8,1.9c0,0.7-0.3,1.4-0.8,1.9c-0.5,0.5-1.2,0.8-1.9,0.8
		c-0.7,0-1.4-0.3-1.9-0.8s-0.8-1.2-0.8-1.9c0-0.7,0.3-1.4,0.8-1.9S196.1,296.7,196.8,296.7z M195.2,297.9c-0.4,0.4-0.6,1-0.6,1.6
		s0.2,1.1,0.6,1.6s1,0.6,1.6,0.6s1.1-0.2,1.6-0.6s0.6-1,0.6-1.6s-0.2-1.1-0.6-1.6s-1-0.6-1.6-0.6S195.7,297.4,195.2,297.9z"/>
	<path d="M200.7,297.2h0.4v0.9c0.1-0.1,0.2-0.3,0.3-0.4c0.4-0.4,0.8-0.6,1.2-0.6v0.5c-0.3,0-0.6,0.2-0.9,0.5
		c-0.4,0.4-0.6,0.9-0.6,1.5v2.5h-0.4V297.2z"/>
	<path d="M208.8,302h-0.4v-1c-0.1,0.1-0.2,0.2-0.3,0.3c-0.5,0.5-1.2,0.8-1.9,0.8c-0.7,0-1.4-0.3-1.9-0.8s-0.8-1.2-0.8-1.9
		c0-0.7,0.3-1.4,0.8-1.9s1.2-0.8,1.9-0.8c0.7,0,1.4,0.3,1.9,0.8c0.1,0.1,0.2,0.2,0.3,0.3v-0.7h0.4V302z M208.3,299.9V299
		c-0.1-0.4-0.3-0.8-0.6-1.1c-0.4-0.4-1-0.6-1.6-0.6s-1.1,0.2-1.6,0.6s-0.6,1-0.6,1.6s0.2,1.1,0.6,1.6s1,0.6,1.6,0.6s1.1-0.2,1.6-0.6
		C208,300.7,208.2,300.3,208.3,299.9z"/>
	<path d="M210.9,297.2v-2h0.4v2h1v0.4h-1v4.4h-0.4v-4.4h-1v-0.4H210.9z"/>
	<path d="M214.2,295.6c0.1,0.1,0.1,0.2,0.1,0.3c0,0.1,0,0.2-0.1,0.3c-0.1,0.1-0.2,0.1-0.3,0.1s-0.2,0-0.3-0.1
		c-0.1-0.1-0.1-0.2-0.1-0.3c0-0.1,0-0.2,0.1-0.3c0.1-0.1,0.2-0.1,0.3-0.1S214.1,295.5,214.2,295.6z M214.1,297.2v4.8h-0.4v-4.8
		H214.1z"/>
	<path d="M218,296.7c0.7,0,1.4,0.3,1.9,0.8c0.5,0.5,0.8,1.2,0.8,1.9c0,0.7-0.3,1.4-0.8,1.9c-0.5,0.5-1.2,0.8-1.9,0.8
		c-0.7,0-1.4-0.3-1.9-0.8s-0.8-1.2-0.8-1.9c0-0.7,0.3-1.4,0.8-1.9S217.3,296.7,218,296.7z M216.4,297.9c-0.4,0.4-0.6,1-0.6,1.6
		s0.2,1.1,0.6,1.6s1,0.6,1.6,0.6s1.1-0.2,1.6-0.6s0.6-1,0.6-1.6s-0.2-1.1-0.6-1.6s-1-0.6-1.6-0.6S216.9,297.4,216.4,297.9z"/>
	<path d="M222.3,298.2v3.7h-0.4v-4.8h0.4v0.3c0.4-0.4,0.9-0.6,1.4-0.6c0.6,0,1,0.2,1.4,0.5s0.5,0.8,0.5,1.3v3.2h-0.4v-3.2
		c0-0.4-0.1-0.8-0.4-1c-0.3-0.3-0.6-0.4-1-0.4s-0.8,0.1-1,0.4C222.5,297.9,222.4,298.1,222.3,298.2z"/>
	<path d="M232.5,297.6c-0.6-0.2-1-0.4-1.3-0.8s-0.5-0.7-0.5-1.2c0-0.4,0.2-0.8,0.5-1.2s0.7-0.5,1.2-0.5c0.5,0,0.8,0.2,1.2,0.5
		c0.2,0.2,0.3,0.4,0.4,0.6l-0.4,0.2c-0.1-0.2-0.2-0.3-0.3-0.4c-0.2-0.2-0.5-0.4-0.9-0.4s-0.6,0.1-0.9,0.4s-0.4,0.5-0.4,0.9
		c0,0.3,0.1,0.6,0.4,0.9c0.2,0.2,0.5,0.4,0.9,0.6c0.6,0.2,1.2,0.5,1.6,0.9c0.5,0.4,0.7,1,0.7,1.6c0,0.6-0.2,1.2-0.7,1.6
		s-1,0.7-1.6,0.7s-1.2-0.2-1.6-0.7c-0.4-0.4-0.6-0.8-0.6-1.3l0.4-0.2c0,0.4,0.2,0.8,0.5,1.1c0.4,0.4,0.8,0.6,1.3,0.6
		c0.5,0,1-0.2,1.3-0.6s0.6-0.8,0.6-1.3c0-0.5-0.2-1-0.6-1.3C233.4,298.1,233,297.8,232.5,297.6z"/>
	<path d="M236.6,301.1c0.4,0.4,0.9,0.6,1.5,0.6c0.6,0,1.1-0.2,1.6-0.6c0.1-0.1,0.1-0.1,0.2-0.2l0.5,0.2c-0.1,0.1-0.2,0.2-0.3,0.3
		c-0.5,0.5-1.2,0.8-1.9,0.8c-0.7,0-1.4-0.3-1.9-0.8s-0.8-1.2-0.8-1.9c0-0.7,0.3-1.4,0.8-1.9s1.2-0.8,1.9-0.8c0.6,0,1.2,0.2,1.7,0.6
		c0.1,0.1,0.2,0.1,0.2,0.2c0,0,0.1,0.1,0.1,0.1l-0.3,0.3L236.6,301.1z M239.4,297.7c-0.4-0.3-0.8-0.4-1.3-0.4
		c-0.6,0-1.1,0.2-1.6,0.6s-0.6,1-0.6,1.6c0,0.5,0.1,0.9,0.4,1.3L239.4,297.7z"/>
	<path d="M241.4,297.2h0.4v0.9c0.1-0.1,0.2-0.3,0.3-0.4c0.4-0.4,0.8-0.6,1.2-0.6v0.5c-0.3,0-0.6,0.2-0.9,0.5
		c-0.4,0.4-0.6,0.9-0.6,1.5v2.5h-0.4V297.2z"/>
	<path d="M246.5,301.2l1.8-4h0.5l-2.4,4.9l-2.4-4.9h0.5L246.5,301.2z"/>
	<path d="M250.5,295.6c0.1,0.1,0.1,0.2,0.1,0.3c0,0.1,0,0.2-0.1,0.3c-0.1,0.1-0.2,0.1-0.3,0.1s-0.2,0-0.3-0.1
		c-0.1-0.1-0.1-0.2-0.1-0.3c0-0.1,0-0.2,0.1-0.3c0.1-0.1,0.2-0.1,0.3-0.1S250.4,295.5,250.5,295.6z M250.4,297.2v4.8H250v-4.8H250.4
		z"/>
	<path d="M256.1,300.8l0.5,0.2c-0.1,0.1-0.2,0.2-0.3,0.3c-0.5,0.5-1.2,0.8-1.9,0.8c-0.7,0-1.4-0.3-1.9-0.8s-0.8-1.2-0.8-1.9
		c0-0.7,0.3-1.4,0.8-1.9s1.2-0.8,1.9-0.8c0.7,0,1.4,0.3,1.9,0.8c0.1,0.1,0.2,0.2,0.3,0.3l-0.5,0.2c0-0.1-0.1-0.1-0.2-0.2
		c-0.4-0.4-1-0.6-1.6-0.6c-0.6,0-1.1,0.2-1.6,0.6s-0.6,1-0.6,1.6s0.2,1.1,0.6,1.6s1,0.6,1.6,0.6c0.6,0,1.1-0.2,1.6-0.6
		C256,300.9,256,300.9,256.1,300.8z"/>
	<path d="M258.6,301.1c0.4,0.4,0.9,0.6,1.5,0.6c0.6,0,1.1-0.2,1.6-0.6c0.1-0.1,0.1-0.1,0.2-0.2l0.5,0.2c-0.1,0.1-0.2,0.2-0.3,0.3
		c-0.5,0.5-1.2,0.8-1.9,0.8c-0.7,0-1.4-0.3-1.9-0.8s-0.8-1.2-0.8-1.9c0-0.7,0.3-1.4,0.8-1.9s1.2-0.8,1.9-0.8c0.6,0,1.2,0.2,1.7,0.6
		c0.1,0.1,0.2,0.1,0.2,0.2c0,0,0.1,0.1,0.1,0.1l-0.3,0.3L258.6,301.1z M261.4,297.7c-0.4-0.3-0.8-0.4-1.3-0.4
		c-0.6,0-1.1,0.2-1.6,0.6s-0.6,1-0.6,1.6c0,0.5,0.1,0.9,0.4,1.3L261.4,297.7z"/>
	<path d="M264.8,299.5c-0.4-0.2-0.6-0.4-0.8-0.5c-0.2-0.2-0.3-0.5-0.3-0.8c0-0.3,0.1-0.6,0.3-0.8s0.5-0.3,0.8-0.3
		c0.3,0,0.6,0.1,0.8,0.3c0.2,0.2,0.3,0.4,0.3,0.7v0l-0.4,0.2c0-0.2-0.1-0.4-0.2-0.6c-0.1-0.1-0.3-0.2-0.5-0.2
		c-0.2,0-0.4,0.1-0.5,0.2s-0.2,0.3-0.2,0.5c0,0.2,0.1,0.4,0.2,0.5c0.1,0.1,0.3,0.2,0.5,0.4c0.4,0.2,0.7,0.4,0.9,0.6
		c0.3,0.3,0.4,0.6,0.4,1c0,0.4-0.1,0.7-0.4,1s-0.6,0.4-1,0.4s-0.7-0.1-1-0.4s-0.4-0.6-0.4-0.9l0.4-0.1c0,0.3,0.1,0.5,0.3,0.7
		c0.2,0.2,0.4,0.3,0.7,0.3s0.5-0.1,0.7-0.3c0.2-0.2,0.3-0.4,0.3-0.7c0-0.3-0.1-0.5-0.3-0.7C265.3,299.9,265.1,299.7,264.8,299.5z"/>
</g>
<g>
	<g>
		<path d="M174,53.3v15.1h-0.8V54.8h-0.9l1.2-1.5H174z"/>
		<path d="M182.5,64.3c1-0.8,2-1.5,2.8-2.1c0.8-0.6,1.5-1.3,2.2-2c0.7-0.7,1-1.6,1-2.6c0-1-0.4-1.9-1.1-2.6
			c-0.7-0.7-1.6-1.1-2.6-1.1c-1,0-1.8,0.4-2.5,1.1c-0.6,0.6-0.9,1.3-1,2.2l-0.9-0.3c0.1-0.9,0.6-1.8,1.3-2.5
			c0.9-0.9,1.9-1.3,3.2-1.3c1.2,0,2.3,0.4,3.2,1.3c0.9,0.9,1.3,1.9,1.3,3.2c0,1.2-0.4,2.3-1.3,3.2c-0.6,0.6-1.3,1.3-2.1,1.8
			c-0.8,0.6-1.7,1.3-2.7,2c-1,0.7-1.6,1.7-1.9,2.8h7.9v0.8h-8.9C180.8,66.5,181.4,65.1,182.5,64.3z"/>
	</g>
</g>
<g>
	<path d="M250.9,134.2l-0.7,0v-0.8c0.6,0,1.1-0.1,1.4-0.2c0.4-0.1,0.8-0.4,1.2-0.9c0.4-0.5,0.7-1,0.7-1.7c0-0.6-0.2-1.2-0.7-1.6
		c-0.5-0.4-1-0.7-1.6-0.7c-0.6,0-1.2,0.2-1.6,0.7c-0.3,0.3-0.4,0.5-0.6,0.9l-0.8-0.3c0.1-0.4,0.4-0.8,0.7-1.2
		c0.6-0.6,1.4-0.9,2.3-0.9c0.9,0,1.7,0.3,2.3,0.9c0.6,0.6,0.9,1.4,0.9,2.3c0,0.9-0.2,1.6-0.7,2.1c-0.5,0.5-0.9,0.9-1.3,1
		c0.9,0.3,1.7,0.8,2.3,1.4c0.9,0.9,1.3,2,1.3,3.2c0,1.2-0.4,2.3-1.3,3.2s-1.9,1.3-3.2,1.3c-1.2,0-2.3-0.4-3.2-1.3
		c-0.7-0.7-1.1-1.5-1.3-2.5l0.9-0.3c0.1,0.8,0.4,1.6,1,2.2c0.7,0.7,1.6,1.1,2.5,1.1c1,0,1.9-0.4,2.6-1.1c0.7-0.7,1.1-1.6,1.1-2.6
		c0-1-0.3-1.9-1-2.6C253.3,135,252.3,134.5,250.9,134.2z"/>
</g>
<g>
	<path d="M174.6,216.5c0.9-0.8,2.1-1.2,3.4-1.2c1.4,0,2.7,0.5,3.7,1.5c1,1,1.5,2.2,1.5,3.7c0,1.4-0.5,2.6-1.5,3.7s-2.2,1.5-3.7,1.5
		c-1.4,0-2.6-0.5-3.7-1.5c-1-1-1.5-2.1-1.5-3.5h-0.1c0.1-2.2,0.6-4,1.6-5.4c1-1.4,2.3-2.9,3.7-4.6c0.1-0.1,0.2-0.2,0.3-0.3h1.2
		c-0.1,0.2-0.3,0.3-0.4,0.5c-1.7,1.8-3,3.5-3.9,4.8C174.9,215.8,174.8,216.1,174.6,216.5z M174.9,217.4c-0.8,0.8-1.3,1.8-1.3,3
		s0.4,2.2,1.3,3s1.8,1.2,3,1.2s2.2-0.4,3-1.2s1.3-1.8,1.3-3s-0.4-2.2-1.3-3s-1.8-1.3-3-1.3S175.8,216.5,174.9,217.4z"/>
</g>
<g>
	<path d="M100.6,140.1c-0.9,0.8-2.1,1.2-3.4,1.2c-1.4,0-2.7-0.5-3.7-1.5c-1-1-1.5-2.2-1.5-3.7c0-1.4,0.5-2.6,1.5-3.7
		s2.2-1.5,3.7-1.5c1.4,0,2.6,0.5,3.7,1.5c1,1,1.5,2.1,1.5,3.5h0.1c-0.1,2.2-0.6,4-1.6,5.4c-1,1.4-2.3,2.9-3.7,4.6
		c-0.1,0.1-0.2,0.2-0.3,0.3h-1.2c0.1-0.2,0.3-0.3,0.4-0.5c1.7-1.8,3-3.5,3.9-4.8C100.2,140.7,100.4,140.4,100.6,140.1z M100.3,139.2
		c0.8-0.8,1.3-1.8,1.3-3s-0.4-2.2-1.3-3c-0.8-0.8-1.8-1.2-3-1.2s-2.2,0.4-3,1.2c-0.8,0.8-1.3,1.8-1.3,3s0.4,2.2,1.3,3s1.8,1.3,3,1.3
		S99.4,140,100.3,139.2z"/>
</g>
</svg>
