<?xml version="1.0" encoding="utf-8"?>
<!-- Generator: Adobe Illustrator 23.0.1, SVG Export Plug-In . SVG Version: 6.00 Build 0)  -->
<svg version="1.1" id="Layer_1" xmlns="http://www.w3.org/2000/svg" xmlns:xlink="http://www.w3.org/1999/xlink" x="0px" y="0px"
	 viewBox="0 0 418.8 376.6" style="enable-background:new 0 0 418.8 376.6;" xml:space="preserve">
<style type="text/css">
	.st0{fill:none;stroke:#000000;stroke-width:8;stroke-miterlimit:10;}
	.st1{enable-background:new    ;}
</style>
<ellipse class="st0" cx="215.5" cy="154.4" rx="135.3" ry="123.9"/>
<g class="st1">
	<path d="M80.12,322.3l-9.62-15.62h-0.1l0.13,15.62h-5.6v-23.89h6.58L81.1,314h0.1l-0.13-15.59h5.6v23.89H80.12z"/>
	<path d="M91.59,322.3v-23.89h16.06v4.86H97.16v4.52h9.92v4.62h-9.92v4.96h11.1v4.93H91.59z"/>
	<path d="M137.38,322.3h-5.7l-4.72-16.16h-0.1l-4.72,16.16h-5.74l-6.78-23.89h6.21l3.78,15.89h0.1l4.25-15.89h6.01l4.29,15.89h0.1
		l3.85-15.89h6.01L137.38,322.3z"/>
	<path d="M169.77,322.3v-9.99h-9.31v9.99h-5.77v-23.89h5.77v9.04h9.31v-9.04h5.77v23.89H169.77z"/>
	<path d="M196.67,322.3l-1.86-4.69h-9.25l-1.75,4.69h-6.28l10.02-23.89h5.6l9.92,23.89H196.67z M190.25,304.79l-3.04,8.2h6.01
		L190.25,304.79z"/>
	<path d="M205.07,322.3v-23.89h5.8v23.89H205.07z"/>
	<path d="M228.59,322.3l-5.19-9.48h-1.97v9.48h-5.63v-23.89h9.11c1.15,0,2.27,0.12,3.36,0.35c1.09,0.24,2.07,0.64,2.94,1.2
		c0.87,0.56,1.56,1.3,2.08,2.23c0.52,0.92,0.78,2.07,0.78,3.44c0,1.62-0.44,2.98-1.32,4.08c-0.88,1.1-2.09,1.89-3.64,2.36
		l6.24,10.22H228.59z M228.35,305.73c0-0.56-0.12-1.02-0.36-1.37c-0.24-0.35-0.54-0.62-0.92-0.81c-0.37-0.19-0.79-0.32-1.25-0.39
		c-0.46-0.07-0.91-0.1-1.34-0.1h-3.08v5.57h2.75c0.47,0,0.96-0.04,1.46-0.12c0.5-0.08,0.95-0.22,1.36-0.42
		c0.41-0.2,0.74-0.49,1-0.88C228.22,306.83,228.35,306.34,228.35,305.73z"/>
	<path d="M265.23,315.35c0,1.3-0.26,2.4-0.78,3.29c-0.52,0.89-1.2,1.6-2.06,2.14c-0.86,0.54-1.83,0.93-2.92,1.16
		s-2.21,0.35-3.36,0.35h-9.51v-23.89h9.51c0.92,0,1.87,0.1,2.83,0.29c0.97,0.19,1.84,0.52,2.63,0.98c0.79,0.46,1.43,1.08,1.92,1.87
		c0.5,0.79,0.74,1.79,0.74,3c0,1.33-0.36,2.42-1.08,3.29c-0.72,0.87-1.67,1.49-2.83,1.87v0.07c0.68,0.11,1.31,0.32,1.91,0.62
		c0.6,0.3,1.11,0.69,1.55,1.16c0.44,0.47,0.79,1.02,1.05,1.65C265.1,313.85,265.23,314.56,265.23,315.35z M258.68,305.33
		c0-0.81-0.31-1.4-0.93-1.77c-0.62-0.37-1.54-0.56-2.75-0.56h-2.83v4.93h3.1c1.08,0,1.92-0.22,2.51-0.66
		C258.39,306.83,258.68,306.18,258.68,305.33z M259.46,314.81c0-0.99-0.37-1.67-1.11-2.06s-1.73-0.57-2.97-0.57h-3.21v5.47h3.24
		c0.45,0,0.92-0.04,1.4-0.12c0.48-0.08,0.92-0.22,1.32-0.42s0.71-0.49,0.96-0.86C259.34,315.87,259.46,315.39,259.46,314.81z"/>
	<path d="M281.83,322.3l-5.19-9.48h-1.97v9.48h-5.63v-23.89h9.11c1.15,0,2.27,0.12,3.36,0.35c1.09,0.24,2.07,0.64,2.94,1.2
		c0.87,0.56,1.56,1.3,2.08,2.23c0.52,0.92,0.78,2.07,0.78,3.44c0,1.62-0.44,2.98-1.32,4.08c-0.88,1.1-2.09,1.89-3.64,2.36
		l6.24,10.22H281.83z M281.6,305.73c0-0.56-0.12-1.02-0.36-1.37c-0.24-0.35-0.54-0.62-0.92-0.81c-0.37-0.19-0.79-0.32-1.25-0.39
		s-0.91-0.1-1.34-0.1h-3.09v5.57h2.75c0.47,0,0.96-0.04,1.46-0.12c0.5-0.08,0.95-0.22,1.36-0.42c0.41-0.2,0.74-0.49,1-0.88
		C281.47,306.83,281.6,306.34,281.6,305.73z"/>
	<path d="M291.42,322.3v-23.89h16.06v4.86h-10.49v4.52h9.92v4.62h-9.92v4.96h11.1v4.93H291.42z"/>
	<path d="M311.9,322.3v-23.89h16.06v4.86h-10.49v4.52h9.92v4.62h-9.92v4.96h11.1v4.93H311.9z"/>
	<path d="M354.68,310.29c0,2.09-0.39,3.9-1.16,5.42c-0.78,1.52-1.8,2.77-3.07,3.75c-1.27,0.98-2.71,1.7-4.3,2.16
		c-1.6,0.46-3.22,0.69-4.86,0.69h-8.91v-23.89h8.64c1.69,0,3.35,0.2,4.99,0.59c1.64,0.39,3.1,1.05,4.39,1.96
		c1.28,0.91,2.32,2.13,3.1,3.66C354.29,306.15,354.68,308.04,354.68,310.29z M348.68,310.29c0-1.35-0.22-2.47-0.66-3.36
		c-0.44-0.89-1.02-1.6-1.75-2.12c-0.73-0.53-1.56-0.91-2.5-1.13c-0.93-0.22-1.9-0.34-2.89-0.34h-2.87v13.97h2.73
		c1.03,0,2.03-0.12,2.99-0.35c0.96-0.24,1.8-0.62,2.53-1.16c0.73-0.54,1.32-1.26,1.75-2.16
		C348.46,312.73,348.68,311.61,348.68,310.29z"/>
</g>
<g class="st1">
	<path d="M111.97,330.92h2.37c0.26,0,0.52,0.03,0.78,0.09c0.26,0.06,0.49,0.16,0.69,0.29c0.2,0.14,0.37,0.31,0.5,0.53
		c0.13,0.22,0.19,0.5,0.19,0.83c0,0.38-0.11,0.7-0.33,0.96c-0.22,0.26-0.51,0.44-0.87,0.53v0.02c0.22,0.03,0.42,0.08,0.61,0.17
		c0.19,0.09,0.35,0.2,0.49,0.34c0.14,0.14,0.24,0.31,0.32,0.5c0.07,0.19,0.11,0.41,0.11,0.65c0,0.33-0.07,0.62-0.2,0.87
		c-0.14,0.25-0.32,0.45-0.55,0.61c-0.23,0.16-0.51,0.28-0.82,0.36c-0.31,0.08-0.65,0.12-1.01,0.12h-2.26V330.92z M112.93,333.83
		h1.25c0.18,0,0.35-0.02,0.52-0.06s0.31-0.11,0.43-0.19c0.12-0.09,0.22-0.2,0.29-0.33c0.07-0.13,0.11-0.29,0.11-0.48
		c0-0.37-0.14-0.63-0.41-0.79c-0.27-0.16-0.64-0.24-1.1-0.24h-1.1V333.83z M112.93,336.98h1.21c0.2,0,0.4-0.02,0.61-0.05
		c0.2-0.04,0.39-0.1,0.55-0.19c0.17-0.09,0.3-0.21,0.4-0.36c0.1-0.15,0.15-0.34,0.15-0.58c0-0.41-0.14-0.7-0.42-0.88
		c-0.28-0.18-0.68-0.27-1.21-0.27h-1.29V336.98z"/>
	<path d="M123.17,336.95h3.6v0.86h-4.56v-6.88h4.41v0.84h-3.45v2.06h3.25v0.83h-3.25V336.95z"/>
	<path d="M132.32,337.8h-1.07l2.98-6.88h0.87l2.95,6.88h-1.09l-0.7-1.69h-3.27L132.32,337.8z M133.35,335.26h2.57l-1.28-3.23
		L133.35,335.26z"/>
	<path d="M145.44,337.98c-0.45,0-0.85-0.08-1.19-0.23c-0.34-0.15-0.62-0.35-0.84-0.61c-0.22-0.25-0.38-0.54-0.49-0.87
		s-0.16-0.67-0.16-1.02v-4.33h0.96v4.27c0,0.23,0.03,0.46,0.09,0.7c0.06,0.23,0.15,0.44,0.29,0.62c0.13,0.18,0.31,0.33,0.52,0.44
		c0.22,0.11,0.49,0.17,0.81,0.17c0.32,0,0.59-0.06,0.81-0.17c0.22-0.11,0.4-0.26,0.53-0.44c0.13-0.18,0.23-0.39,0.29-0.62
		c0.06-0.23,0.09-0.46,0.09-0.7v-4.27h0.96v4.33c0,0.35-0.05,0.69-0.16,1.02s-0.27,0.62-0.49,0.87c-0.22,0.25-0.5,0.46-0.84,0.61
		S145.89,337.98,145.44,337.98z"/>
	<path d="M156.13,337.8h-0.96v-6.03h-2.21v-0.84h5.37v0.84h-2.21V337.8z"/>
	<path d="M165.81,337.8h-0.97v-2.97l-2.58-3.91h1.19l1.9,3.11l1.91-3.11h1.12l-2.57,3.91V337.8z"/>
	<path d="M180.34,337.8h-0.96v-6.88h4.29v0.84h-3.33v2.14h3.12v0.83h-3.12V337.8z"/>
	<path d="M195.83,334.35c0,0.53-0.09,1.02-0.28,1.46c-0.19,0.44-0.44,0.83-0.76,1.15c-0.32,0.32-0.71,0.57-1.16,0.75
		c-0.45,0.18-0.93,0.27-1.46,0.27c-0.52,0-1.01-0.09-1.45-0.27c-0.44-0.18-0.83-0.43-1.15-0.75c-0.32-0.32-0.58-0.7-0.76-1.15
		c-0.18-0.44-0.27-0.93-0.27-1.46c0-0.54,0.09-1.03,0.27-1.47c0.18-0.44,0.43-0.82,0.76-1.14c0.32-0.31,0.71-0.56,1.15-0.73
		c0.44-0.17,0.93-0.26,1.45-0.26c0.52,0,1.01,0.09,1.46,0.26c0.45,0.17,0.83,0.42,1.16,0.73c0.32,0.31,0.58,0.69,0.76,1.14
		C195.73,333.32,195.83,333.81,195.83,334.35z M194.79,334.35c0-0.38-0.06-0.73-0.18-1.06c-0.12-0.33-0.3-0.63-0.52-0.88
		c-0.23-0.25-0.5-0.45-0.82-0.6c-0.32-0.15-0.68-0.22-1.08-0.22c-0.4,0-0.75,0.07-1.07,0.22c-0.32,0.15-0.59,0.34-0.82,0.6
		s-0.4,0.55-0.52,0.88c-0.12,0.33-0.18,0.69-0.18,1.06c0,0.38,0.06,0.74,0.18,1.08s0.3,0.63,0.52,0.88c0.23,0.25,0.5,0.45,0.82,0.59
		s0.67,0.21,1.07,0.21s0.75-0.07,1.08-0.21c0.32-0.14,0.6-0.34,0.83-0.59c0.23-0.25,0.4-0.54,0.52-0.88S194.79,334.73,194.79,334.35
		z"/>
	<path d="M202.09,337.8h-0.96v-6.88h2.21c0.33,0,0.64,0.03,0.94,0.1c0.3,0.07,0.56,0.18,0.78,0.33c0.22,0.15,0.4,0.35,0.53,0.59
		c0.13,0.24,0.19,0.54,0.19,0.89c0,0.5-0.16,0.91-0.47,1.22c-0.31,0.31-0.71,0.51-1.2,0.59l1.92,3.16h-1.17l-1.75-3.06h-1.03V337.8z
		 M202.09,333.93h1.11c0.23,0,0.44-0.02,0.63-0.06s0.36-0.1,0.51-0.19c0.15-0.09,0.26-0.2,0.35-0.34c0.08-0.14,0.13-0.31,0.13-0.52
		c0-0.21-0.04-0.38-0.13-0.52c-0.08-0.14-0.2-0.25-0.34-0.33s-0.3-0.14-0.49-0.18c-0.19-0.04-0.39-0.05-0.59-0.05h-1.18V333.93z"/>
	<path d="M219.69,337.8h-0.96v-6.03h-2.21v-0.84h5.37v0.84h-2.21V337.8z"/>
	<path d="M226.8,330.92h0.96v2.88h3.48v-2.88h0.97v6.88h-0.97v-3.15h-3.48v3.15h-0.96V330.92z"/>
	<path d="M238.84,336.95h3.6v0.86h-4.56v-6.88h4.41v0.84h-3.45v2.06h3.25v0.83h-3.25V336.95z"/>
	<path d="M257.56,332.19c-0.14-0.19-0.32-0.34-0.55-0.46c-0.23-0.12-0.5-0.18-0.79-0.18c-0.16,0-0.31,0.02-0.47,0.06
		c-0.16,0.04-0.3,0.11-0.43,0.2c-0.13,0.09-0.23,0.21-0.32,0.35c-0.08,0.14-0.12,0.31-0.12,0.5c0,0.19,0.04,0.34,0.11,0.47
		s0.17,0.23,0.3,0.32c0.13,0.09,0.28,0.16,0.45,0.22s0.35,0.12,0.55,0.19c0.23,0.07,0.47,0.15,0.71,0.24
		c0.24,0.09,0.46,0.21,0.65,0.36c0.19,0.15,0.35,0.33,0.48,0.56s0.18,0.51,0.18,0.85c0,0.36-0.07,0.67-0.2,0.93
		s-0.31,0.48-0.53,0.65c-0.22,0.17-0.47,0.3-0.76,0.38c-0.29,0.08-0.58,0.13-0.89,0.13c-0.43,0-0.85-0.08-1.26-0.25
		c-0.41-0.17-0.74-0.42-1.01-0.75l0.75-0.63c0.16,0.24,0.38,0.43,0.65,0.58c0.27,0.15,0.57,0.22,0.88,0.22
		c0.16,0,0.32-0.02,0.49-0.07c0.16-0.05,0.31-0.12,0.44-0.21c0.13-0.1,0.24-0.22,0.33-0.36c0.08-0.15,0.13-0.32,0.13-0.53
		c0-0.21-0.04-0.38-0.13-0.52c-0.09-0.14-0.21-0.26-0.36-0.35c-0.15-0.1-0.32-0.18-0.52-0.25c-0.2-0.07-0.41-0.14-0.63-0.21
		c-0.22-0.06-0.44-0.14-0.65-0.24c-0.21-0.09-0.41-0.21-0.57-0.36c-0.17-0.15-0.3-0.33-0.41-0.54s-0.16-0.48-0.16-0.8
		c0-0.34,0.07-0.64,0.21-0.88c0.14-0.25,0.32-0.45,0.54-0.61s0.48-0.28,0.76-0.35c0.28-0.07,0.56-0.11,0.85-0.11
		c0.4,0,0.78,0.07,1.13,0.21c0.35,0.14,0.63,0.33,0.84,0.57L257.56,332.19z"/>
	<path d="M269.56,336.73c-0.27,0.37-0.62,0.67-1.06,0.9c-0.43,0.23-0.96,0.34-1.56,0.34c-0.53,0-1.01-0.09-1.45-0.27
		c-0.44-0.18-0.83-0.43-1.15-0.75c-0.32-0.32-0.57-0.7-0.75-1.15c-0.18-0.44-0.27-0.93-0.27-1.46c0-0.54,0.09-1.03,0.28-1.47
		c0.18-0.44,0.44-0.82,0.77-1.14c0.33-0.31,0.71-0.56,1.16-0.73s0.93-0.26,1.46-0.26c0.23,0,0.47,0.02,0.71,0.07
		c0.24,0.05,0.47,0.11,0.69,0.2c0.22,0.09,0.42,0.2,0.6,0.33s0.34,0.29,0.47,0.46l-0.76,0.58c-0.17-0.23-0.41-0.43-0.71-0.58
		s-0.64-0.23-1-0.23c-0.4,0-0.76,0.07-1.08,0.22s-0.59,0.34-0.82,0.6s-0.4,0.55-0.52,0.88c-0.12,0.33-0.18,0.69-0.18,1.06
		c0,0.39,0.06,0.75,0.18,1.09s0.29,0.63,0.51,0.88c0.22,0.25,0.5,0.45,0.82,0.59s0.68,0.21,1.07,0.21c0.39,0,0.74-0.08,1.06-0.23
		s0.58-0.38,0.79-0.68L269.56,336.73z"/>
	<path d="M274.7,337.8h-1.07l2.98-6.88h0.88l2.95,6.88h-1.09l-0.7-1.69h-3.27L274.7,337.8z M275.73,335.26h2.57l-1.28-3.23
		L275.73,335.26z"/>
	<path d="M286.28,336.95h3.07v0.86h-4.03v-6.88h0.96V336.95z"/>
	<path d="M294.28,330.92h2.1c0.37,0,0.71,0.04,1.01,0.11s0.56,0.19,0.78,0.34s0.38,0.35,0.5,0.59c0.12,0.24,0.17,0.53,0.17,0.87
		c0,0.34-0.06,0.64-0.19,0.88c-0.13,0.25-0.3,0.45-0.52,0.6s-0.49,0.27-0.8,0.34c-0.31,0.08-0.64,0.11-1,0.11h-1.09v3.02h-0.96
		V330.92z M295.24,333.96h1.02c0.23,0,0.45-0.02,0.65-0.06c0.2-0.04,0.37-0.11,0.51-0.19c0.14-0.09,0.25-0.2,0.33-0.34
		s0.12-0.32,0.12-0.52c0-0.21-0.04-0.38-0.12-0.52c-0.08-0.14-0.19-0.25-0.33-0.34c-0.14-0.09-0.31-0.15-0.5-0.18
		c-0.19-0.04-0.4-0.05-0.63-0.05h-1.04V333.96z"/>
</g>
<g>
	<path d="M232.3,67.3c1.7-1,2.9-2.4,3.6-4.4c0.7-2,1.1-3.8,1.1-5.6c0-1.7-0.6-3.2-1.8-4.3s-2.7-1.6-4.7-1.6c-2.9,0-5.9,1-8.9,2.9
		c-3.1,1.9-6,4.3-8.9,7.1s-5.5,5.8-8,9c-2.4,3.2-4.5,6.2-6.3,8.8c-5.5,8.6-10.9,18.1-16,28.6c-5.2,10.5-10.2,21.3-15.1,32.5h-0.9
		c1-5.2,1.6-10.2,1.6-15.1c0-4.4-0.3-8.7-0.8-13s-1.1-8.6-1.7-13c-0.6-4.3-1.2-8.6-1.7-12.8c-0.5-4.3-0.8-8.6-0.8-13
		c0-1.6,0-3.1,0.1-4.7c0-1.5,0.1-3.1,0.1-4.8h-0.3c-1.7,3.5-3.6,7.8-6,12.9c-2.3,5.1-4.9,10.5-7.9,16.2c-2.9,5.7-6.2,11.3-9.7,16.9
		S132,120.5,128,125s-8.1,8.1-12.5,10.9c-4.4,2.8-8.9,4.2-13.6,4.2c-1,0-2.2-0.1-3.3-0.4c-1.2-0.3-2.3-0.7-3.3-1.2s-1.8-1.2-2.5-2.1
		c-0.7-0.9-1-1.9-1-3.1c0-1.4,0.5-2.6,1.4-3.5c1-0.9,2.1-1.4,3.5-1.4c1.1,0,2.1,0.4,2.8,1.1c0.7,0.7,1.1,1.7,1.1,2.8
		c0,0.6-0.1,1.2-0.3,1.9c-0.2,0.7-0.7,1.1-1.4,1.2c0.1,0.4,0.5,1,1.3,1.6s2,0.9,3.7,0.9c4,0,8-1.3,12-4s7.9-6.2,11.7-10.5
		c3.8-4.4,7.5-9.4,11-15.1s6.9-11.6,10.1-17.6c3.2-6,6.2-12,9-18s5.3-11.5,7.5-16.4c0.2-0.9,0.4-1.9,0.7-3.1
		c0.3-1.2,0.8-2.3,1.4-3.4c0.6-1.1,1.4-2,2.3-2.8c0.9-0.8,2-1.2,3.2-1.2c-0.3,0.9-0.6,1.8-1,2.7s-0.8,2-1.2,3.3
		c-0.3,1.3-0.7,2.9-0.9,4.8c-0.3,1.9-0.4,4.3-0.4,7.3c0,3.6,0.3,7.1,0.8,10.7c0.5,3.5,1.1,7.2,1.7,10.9c0.6,3.8,1.2,7.6,1.7,11.7
		c0.5,4,0.8,8.3,0.8,12.8c0,2.5-0.2,5.2-0.5,7.9c-0.3,2.7-1,5.6-1.8,8.8l0.3,0.3c1.6-3.5,3.4-7.4,5.4-11.7c2-4.3,4.1-8.7,6.4-13
		c2.2-4.4,4.5-8.6,6.9-12.8c2.4-4.2,4.6-7.9,6.7-11.1c3.1-4.6,6.1-8.8,9.2-12.6c3.1-3.8,6.1-7.1,9.2-9.9c3.1-2.8,6.1-5,9-6.5
		c3-1.5,5.9-2.3,8.6-2.3c3,0,5.3,0.8,7.1,2.4c1.8,1.6,2.7,3.6,2.7,6.1c0,1.6-0.3,3-1,4.3s-1.5,2.5-2.6,3.6c-1,1.1-2.2,2-3.5,2.8
		s-2.6,1.4-3.9,1.8v-0.8H232.3z"/>
</g>
<g>
	<g>
		<path d="M280.4,102.9c-1.6-1.1-3.3-1.6-5.1-1.6c-3.8,0-7.7,0.8-11.7,2.3c-3.9,1.5-7.8,3.6-11.7,6.1c-3.8,2.5-7.6,5.4-11.1,8.7
			c-3.6,3.3-7,6.7-10.2,10.3c-3.2,3.6-6.1,7.1-8.8,10.7c-2.7,3.5-5,6.8-7,9.8h-18.9c9.1-15.5,17.4-26.9,25.1-34.5
			c7.6-7.5,14.9-11.3,21.7-11.3c2.3,0,4-0.1,5.1-0.3c1.1-0.2,1.7-0.8,1.7-1.8c0-0.5-0.2-0.9-0.7-1c-0.4-0.2-0.9-0.3-1.3-0.3
			c-1.5,0-3,0.3-4.6,0.9s-3.5,0.9-5.9,0.9c-6.7,0-13.6,0.2-20.6,0.7s-13.7,1.3-20.2,2.4s-12.6,2.5-18.3,4.3
			c-5.7,1.7-10.6,3.9-14.9,6.4c-4.2,2.5-7.6,5.5-10,8.9s-3.7,7.3-3.7,11.5c0,3.8,1.5,7.1,4.5,9.8s7.2,4.1,12.6,4.1
			c2.6,0,5.3-0.5,8-1.4s5.2-2.2,7.4-3.9s4-3.7,5.4-6s2.1-4.9,2.1-7.8c0-2.3-0.5-4.2-1.4-5.9h-0.5c0.2,1.2,0.1,2.3,0.2,3.5
			c0,0.1,0,0.1,0,0.2c0.1,0.7,0.2,1.5,0.2,2.4c0,2.5-0.7,4.9-2,7s-3,4-5,5.5s-4.2,2.7-6.6,3.5c-2.4,0.8-4.7,1.2-7,1.2
			c-1.8,0-3.5-0.3-4.8-1c-1.4-0.7-2.5-1.5-3.4-2.5s-1.5-2.2-2-3.5c-0.4-1.3-0.7-2.6-0.7-3.9c0-5.1,1.9-9.7,5.8-13.9
			c3.8-4.2,9.3-7.8,16.2-10.7c7-3,15.4-5.3,25.2-6.9c9.8-1.7,20.7-2.5,32.6-2.5v0.3c-6.2,1.4-11.7,3.7-16.4,6.8
			c-4.8,3.1-9,6.8-12.8,11s-7.3,8.8-10.5,13.7s-6.4,9.8-9.6,14.7c-1.8,2.9-3.8,6-5.8,9.3s-4.1,6.6-6.2,9.8c-2.1,3.2-4.3,6.4-6.6,9.4
			c-2.3,3.1-4.6,5.7-7,8s-4.9,4.1-7.5,5.5s-5.3,2.1-8.1,2.1c-2,0-3.8-0.3-5.4-1c-1.6-0.7-2.6-1.7-3.1-3c1.2,0,2.2-0.3,2.9-1
			s1.1-1.7,1.1-3.1c0-1.2-0.4-2.2-1.2-3s-1.8-1.2-3.1-1.2c-1.5,0-2.8,0.5-3.8,1.4c-1,1-1.6,2.2-1.6,3.7c0,1.7,0.5,3.1,1.4,4.2
			c0.9,1.1,2.1,2.1,3.4,2.8c1.4,0.7,2.8,1.2,4.4,1.5c1.6,0.3,3,0.5,4.3,0.5c5.8,0,11.1-1.5,16.1-4.7c5-3.1,9.5-6.9,13.7-11.5
			c4.1-4.5,7.9-9.4,11.3-14.7c3.4-5.2,6.4-10,9-14.1h18.9c-1.3,2.2-2.7,4.6-4.3,7.2c-1.5,2.6-2.9,5.4-4.1,8.3
			c-1.2,2.9-2.2,5.9-3.1,9c-0.8,3.1-1.2,6.2-1.2,9.2c0,1.7,0.2,3.2,0.6,4.7c0.4,1.5,1,2.8,1.9,3.9c0.9,1.1,2,2,3.4,2.7s3.1,1,5.1,1
			c2.7,0,5.4-0.7,8.1-2c2.7-1.4,5.4-3.1,8.1-5.3c2.7-2.2,5.2-4.6,7.7-7.3c2.4-2.7,4.7-5.4,6.7-8.1c2.1-2.7,3.9-5.3,5.4-7.7
			c1.6-2.4,2.8-4.4,3.7-6l-1.2-0.5c-2.3,3.8-4.9,7.7-8,11.8s-6.2,7.9-9.6,11.3c-3.3,3.4-6.6,6.2-10,8.5c-3.3,2.2-6.4,3.3-9.2,3.3
			c-1.5,0-2.6-0.8-3.3-2.4c-0.7-1.6-1.1-3.4-1.1-5.4c0-4.8,1-10.2,3.1-16.1c2.1-5.9,4.8-11.9,8.1-18c3.4-6.1,7.2-12,11.4-17.8
			s8.5-11,12.9-15.5s8.6-8.1,12.7-10.9s7.7-4.1,10.7-4.1c1.3,0,2.4,0.4,3.1,1.1c0.8,0.7,1.5,1.6,2.1,2.5s1.2,1.8,1.9,2.6
			c0.7,0.8,1.5,1.2,2.6,1.2c1.2,0,2.2-0.4,3-1.2c0.8-0.8,1.2-1.9,1.2-3.1C282.8,105.5,282,104,280.4,102.9z"/>
	</g>
</g>
<g>
	<path d="M220.7,202.7c0.3,1.8,0.4,3.4,0.5,4.7s0.1,2.6,0.1,4c0,3.9-0.5,7.6-1.6,11.1s-2.6,6.6-4.7,9.3c-2,2.7-4.5,4.8-7.4,6.4
		c-2.9,1.6-6.2,2.4-9.9,2.4c-3.2,0-6.1-0.6-8.6-1.8s-4.6-2.8-6.3-4.7c-1.7-2-3-4.2-3.9-6.8s-1.3-5.3-1.3-8.2c0-3.8,0.7-7.8,2.2-11.8
		s3.6-7.9,6.3-11.7s6-7.3,9.9-10.6s8.3-6.2,13.1-8.7s10.1-4.5,15.7-5.9c5.6-1.4,11.6-2.2,17.9-2.2c5.1,0,9.7,0.5,14,1.4
		c4.3,1,8,2.3,11.1,4.1c3.5-1.9,6.7-3.3,9.6-4.3c2.9-0.9,5.8-1.6,8.6-2v1.6c-2.8,0.4-5.5,1.1-8.1,1.9c-2.6,0.8-5.3,2.2-8.1,4
		c2.8,2.3,5,4.7,6.5,7.1c1.5,2.5,2.2,5.6,2.2,9.2c0,3.3-0.7,6.3-2.2,9s-3.4,5-5.8,7s-5,3.6-8,4.9c-3,1.3-5.9,2.2-8.9,2.8v0.3
		c2.5,0.1,4.9,0.5,7,1.2c2.2,0.7,4.1,1.8,5.7,3.1c1.6,1.4,2.9,3.1,3.8,5.1c0.9,2.1,1.4,4.5,1.4,7.3c0,4.3-1,8.3-3,12
		s-4.5,6.9-7.6,9.7c-3.1,2.8-6.5,4.9-10.2,6.5c-3.8,1.6-7.4,2.4-11,2.4c-5,0-9-1.1-12-3.2s-4.5-4.9-4.5-8.2c0-2.2,0.7-4.1,2-5.6
		s3.2-2.4,5.5-2.4c1.4,0,2.6,0.5,3.7,1.6c-1.5,0.3-2.6,1.1-3.2,2.6c-0.6,1.4-0.9,3.3-0.9,5.4c0,2.4,0.9,4.3,2.6,5.9
		c1.7,1.6,4,2.4,6.7,2.4c4,0,7.5-0.9,10.5-2.6s5.5-4,7.5-6.7c2-2.8,3.5-6,4.5-9.6s1.5-7.2,1.5-11c0-2.8-0.5-5.1-1.4-7
		c-1-1.9-2.3-3.4-3.9-4.5c-1.7-1.1-3.6-1.9-5.8-2.4c-2.2-0.4-4.6-0.7-7.1-0.7v-1.6c3.9,0,7.5-0.7,10.7-2c3.2-1.3,5.9-3.1,8.2-5.5
		c2.3-2.4,4-5.2,5.3-8.4s1.9-6.7,1.9-10.5c0-2-0.4-4-1.2-5.9c-0.8-1.9-1.9-3.6-3.3-5.1c-4.2,3.7-8.1,8.3-11.9,14
		c-3.7,5.7-7.4,11.7-11.1,18.1c-3.7,6.4-7.5,12.8-11.4,19.1c-3.9,6.4-8.1,12.1-12.6,17.3s-9.4,9.3-14.7,12.6
		c-5.3,3.2-11.3,4.8-17.8,4.8c-4.5,0-8.1-1-10.7-2.9c-2.6-1.9-3.9-4.2-3.9-6.9c0-1.7,0.5-3.1,1.5-4.1s2.2-1.5,3.7-1.5
		s2.6,0.5,3.3,1.4s1.1,2.1,1.1,3.5c0,1.2-0.4,2.3-1.2,3.1c-0.8,0.8-1.9,1.2-3.1,1.2c0.2,0.9,0.6,1.6,1.3,2.2s1.5,1.1,2.4,1.5
		s1.9,0.7,2.8,0.8c1,0.1,1.8,0.2,2.5,0.2c4.4,0,8.2-0.8,11.5-2.5s6.4-4,9.4-7.1c2.9-3.1,5.8-6.9,8.6-11.3c2.8-4.4,5.9-9.4,9.2-14.9
		c3.5-5.7,6.7-11,9.8-16c3-5,6-9.7,9.1-14s6.2-8.2,9.5-11.7c3.3-3.5,6.9-6.5,10.8-8.9c-2.8-2.3-6.2-3.8-10.2-4.7
		c-4-0.8-8.3-1.2-12.7-1.2c-8.1,0-15.8,1.4-23.1,4.1c-7.3,2.8-13.6,6.4-19,10.9s-9.7,9.7-12.9,15.5s-4.8,11.8-4.8,18
		c0,2.4,0.3,4.8,0.9,7.3c0.6,2.5,1.6,4.7,2.8,6.7c1.3,2,2.9,3.6,4.8,4.8c1.9,1.3,4.2,1.9,6.8,1.9c3.2,0,6.2-0.7,8.9-2.1
		c2.7-1.4,5-3.3,6.9-5.8c1.9-2.4,3.4-5.4,4.5-8.8c1.1-3.4,1.6-7.2,1.6-11.2c0-1.4,0-2.8-0.1-4.1c-0.1-1.4-0.2-2.7-0.4-4.1
		L220.7,202.7z"/>
</g>
<path d="M240.1,57c-3.4,6.4-8.9,11.2-14.7,15.4c-7.2,5.2-15,9.7-22.6,14.3c-9.8,5.9-19.5,12-28.7,18.6c-8.2,5.9-17.9,12.2-22.6,21.5
	c-3.3,6.6-3.4,18.1,6.6,20.3c1.9,0.4,2.7-1.6,0.8-2c-8-1.7-7.1-10.9-4.4-16.8c2.6-5.5,7-9.6,11.7-13.3c10.9-8.6,22.6-16.2,34.5-23.5
	c9-5.5,18.2-10.6,26.7-16.8c6-4.4,13.5-10.1,15.4-16.2C243.2,56.7,241,55.3,240.1,57L240.1,57z"/>
<path d="M171.9,101.7c-11-3.3-26.5-0.3-35.6,6.5c-10.5,8-15.9,21.4-12.3,34.4c2.4,8.7,8.1,16.6,15.4,21.9c9,6.5,19.8,7.3,30.6,7.5
	c13.2,0.2,26.6,0.3,37,9.7c8.8,8,14.1,20.2,12.9,32.1c-0.1,1.3,1.4,1.1,1.6-0.2c1.7-16.4-8.1-33.5-23.3-40
	c-19.6-8.4-43.4,2.3-60.6-13.2c-12.3-11-17.1-29.4-7.1-43.5c6.7-9.4,20.4-16.1,35.1-14.6c19.7,3.3,21.9,18.4,22.5,28.5
	c0.1,1.3,1.7,1.2,1.6-0.1C190.1,127.2,188.6,107.5,171.9,101.7z"/>
<path d="M244.9,171.5c9.5-14.5,21.3-27.6,36.3-35.6c11.2-6,24.9-10.4,37.7-9.8c8.4,0.4,17.7,5,14.6,14.8
	c-3.6,11.4-16.6,17.2-27,20.4s-22,4.7-31.9,9.2c-9.2,4.2-15.8,12-22.1,19.7c-0.8,1,0.6,2.4,1.4,1.4c7-8.7,14.8-16.9,25.6-20.4
	c11.8-3.9,22.2-5.8,32.9-9.8c9.4-3.5,20.1-10,23.1-20.2c2.5-8.4-3.2-14.7-11.2-16.4c-12.8-2.8-27.6,1.7-39.2,7
	c-17.5,8-28.9,19-41.1,38.6C242.6,172.2,244.4,172,244.9,171.5z"/>
</svg>
