<?xml version="1.0" encoding="utf-8"?>
<!-- Generator: Adobe Illustrator 23.0.1, SVG Export Plug-In . SVG Version: 6.00 Build 0)  -->
<svg version="1.1" id="Layer_1" xmlns="http://www.w3.org/2000/svg" xmlns:xlink="http://www.w3.org/1999/xlink" x="0px" y="0px"
	 viewBox="0 0 612 792" style="enable-background:new 0 0 612 792;" xml:space="preserve">
<style type="text/css">
	.st0{fill:none;stroke:#000000;stroke-width:0.75;stroke-miterlimit:10;}
	.st1{fill:none;stroke:#000000;stroke-miterlimit:10;}
</style>
<g>
	<path class="st0" d="M164.65,198.69c-3.54,2.66-3.54,12.41,14.18,4.43c13.99-6.3,37.37-23.09,32.65-43.39
		c-3.39-14.24-14.26-18.85-26.27-17.72c-28.91,2.72-41.82,29.59-36.51,37.19"/>
	<path class="st0" d="M223.72,215.29c-2.78,5.21-16.67,20.49-19.79,7.64c-3.13-12.85,21.39-23.28,19.79-14.24
		c-1.59,9.05-1.04,23.27,8.68,22.23c9.72-1.04,18.06-18.53,17.36-24.72c-0.69-6.19,14.24,32.7,15.97,40.69"/>
	<path class="st0" d="M256.48,220.3c0-10.18,3.36-26.2,16.21-19.95c12.85,6.25,3.58,26.45-13.35,27.43"/>
	<path class="st0" d="M289.63,206.2c1.97,4.36,6.18,11.95,11.52,4.92c5.34-7.03,6.46-14.9-2.25-10.68
		c-8.71,4.22-16.3,22.49-3.65,30.07c12.65,7.59,29.23-16.3,30.92-20.24"/>
	<path class="st0" d="M324.21,202.13c1.12,6.75,7.03,22.77,15.18,31.2s-13.77-15.86,1.97-34.07c8.43-8.17,23.89-0.31,23.89-0.31"/>
	<path class="st0" d="M370.58,184.14c-8.99-10.96-14.72-28.57,4.22-32.6c16.1-3.43,57.71-9.97,57.34,26.42
		c-0.36,35.15-48.07,44.7-53.12,37.67c-6.96-9.69,27.54-6.93,36.82,3.14s25.3,26.09,32.88,25.24s18.27-3.09,18.27-13.77
		s-17.71-15.46-22.2-7.31c-4.5,8.15,22.23-0.18,23.89-3.37c3.23-6.18-0.32,23.06,13.22,21.87c12.32-1.09,17.91-14.82,11.45-20.44"/>
	<path class="st0" d="M391.83,196.4c0,0,14.88,49.33,15.59,50.49s3.31,3.57,5.43,0"/>
	<path class="st0" d="M446.15,222.58c-3.54,2.56-11.52,10.25-3.52,19.75"/>
	<path class="st0" d="M526.93,214.74c-5.2-4.96-21.26-22.2-22.91-27.4c-1.65-5.2,17.71,48.66,18.42,56.69"/>
	<path class="st0" d="M498.11,220.41c5.9-1.18,37.55,4.72,47.71,8.97c10.16,4.25,15.35-8.03,15.59-15.82
		c0.24-7.79-20.07-1.42-16.3,20.31c3.78,21.73,47.94,14.64,49.36-7.56"/>
	<path class="st0" d="M171.74,261.3c3.67,2.79,9.25,4.88,13.43,4.88c4.18,0,350.7-21.62,409.3-8.37"/>
	<path class="st0" d="M286.55,260.74c24.98-1.25,165.15,0.64,139.24,13.44c-25.91,12.8-116.76,23.1-111.14,27.47
		c5.62,4.37,108.02-4.37,85.23,11.86c-22.79,16.23-51.94,43.81-23.84,45.06c28.1,1.25,64.57-8.85,70.12-10.72"/>
	<path class="st0" d="M16.44,187c7.09,7.7,15.91,5.83,17.96,6.02c2.05,0.19,85.05-2.59,90.26-2.97"/>
	<path class="st0" d="M164.65,185.4c5.32,13.29,14.18,58.49,14.18,67.35"/>
</g>
<g>
	<path class="st1" d="M85.18,434.25c-1.43,1.07-1.43,5.01,5.73,1.79c5.65-2.54,15.1-9.33,13.19-17.54
		c-1.37-5.76-5.76-7.62-10.62-7.16c-11.68,1.1-16.9,11.96-14.75,15.03"/>
	<path class="st1" d="M109.06,440.96c-1.12,2.11-6.74,8.28-8,3.09c-1.26-5.19,8.64-9.41,8-5.75s-0.42,9.4,3.51,8.98
		c3.93-0.42,7.3-7.49,7.02-9.99c-0.28-2.5,5.75,13.22,6.46,16.45"/>
	<path class="st1" d="M122.3,442.99c0-4.12,1.36-10.59,6.55-8.06c5.19,2.53,1.45,10.69-5.39,11.09"/>
	<path class="st1" d="M135.7,437.29c0.8,1.76,2.5,4.83,4.66,1.99s2.61-6.02-0.91-4.32c-3.52,1.7-6.59,9.09-1.48,12.15
		c5.11,3.07,11.81-6.59,12.5-8.18"/>
	<path class="st1" d="M149.67,435.64c0.45,2.73,2.84,9.2,6.13,12.61c3.29,3.41-5.57-6.41,0.8-13.77c3.41-3.3,9.66-0.13,9.66-0.13"/>
	<path class="st1" d="M168.41,428.37c-3.64-4.43-5.95-11.55,1.7-13.18c6.51-1.39,23.32-4.03,23.17,10.68
		c-0.15,14.21-19.43,18.07-21.47,15.22c-2.81-3.92,11.13-2.8,14.88,1.27c3.75,4.07,10.22,10.54,13.29,10.2
		c3.07-0.34,7.38-1.25,7.38-5.57c0-4.32-7.16-6.25-8.97-2.95s8.98-0.07,9.66-1.36c1.3-2.5-0.13,9.32,5.34,8.84
		c4.98-0.44,7.24-5.99,4.63-8.26"/>
	<path class="st1" d="M177,433.33c0,0,6.01,19.94,6.3,20.41c0.29,0.47,1.34,1.44,2.2,0"/>
	<path class="st1" d="M198.96,443.91c-1.43,1.03-4.66,4.14-1.42,7.98"/>
	<path class="st1" d="M231.6,440.74c-2.1-2-8.59-8.97-9.26-11.07c-0.67-2.1,7.16,19.67,7.45,22.91"/>
	<path class="st1" d="M219.96,443.03c2.39-0.48,15.18,1.91,19.28,3.63c4.1,1.72,6.2-3.25,6.3-6.4c0.1-3.15-8.11-0.57-6.59,8.21
		c1.53,8.78,19.38,5.92,19.95-3.05"/>
	<path class="st1" d="M88.05,459.55c1.48,1.13,3.74,1.97,5.43,1.97c1.69,0,141.74-8.74,165.42-3.38"/>
	<path class="st1" d="M134.45,459.33c10.09-0.5,66.75,0.26,56.28,5.43c-10.47,5.17-47.19,9.34-44.92,11.1s43.66-1.77,34.45,4.79
		c-9.21,6.56-20.99,17.71-9.64,18.21s26.1-3.58,28.34-4.33"/>
	<path class="st1" d="M25.28,429.53c2.87,3.11,6.43,2.36,7.26,2.43c0.83,0.08,34.37-1.05,36.48-1.2"/>
	<path class="st1" d="M85.18,428.88c2.15,5.37,5.73,23.64,5.73,27.22"/>
</g>
<g>
	<path d="M129.49,405.09h-4.97v-1.11h1.88v-8.72h-1.88v-1.11h4.97v1.11h-1.81v8.72h1.81V405.09z"/>
	<path d="M139.71,405.09h-1.21v-5.18c0-0.72-0.12-1.24-0.34-1.56c-0.23-0.32-0.59-0.48-1.08-0.48c-0.74,0-1.53,0.46-2.38,1.38v5.84
		h-1.21v-8.08h1.21v1.19c0.87-0.92,1.78-1.38,2.74-1.38c1.51,0,2.27,0.91,2.27,2.74V405.09z"/>
	<path d="M145.25,402.05c-0.75,0.37-1.13,0.69-1.13,0.97c0,0.15,0.09,0.28,0.26,0.38c0.17,0.1,0.41,0.16,0.71,0.16l2.72-0.08
		c0.65,0,1.15,0.16,1.51,0.47c0.36,0.31,0.54,0.76,0.54,1.34c0,0.91-0.41,1.64-1.22,2.19c-0.82,0.54-1.77,0.81-2.86,0.81
		c-0.89,0-1.62-0.19-2.19-0.56c-0.57-0.37-0.85-0.86-0.85-1.45c0-0.65,0.44-1.19,1.32-1.64c-0.73-0.34-1.09-0.76-1.09-1.26
		c0-0.57,0.47-1.1,1.41-1.59c-0.43-0.26-0.77-0.6-1-1.02s-0.35-0.86-0.35-1.33c0-0.76,0.26-1.38,0.77-1.87s1.16-0.73,1.94-0.73
		c0.56,0,1.06,0.12,1.51,0.35l2.4-0.36V398h-1.54c0.23,0.41,0.35,0.89,0.35,1.44c0,0.73-0.26,1.35-0.77,1.86
		c-0.51,0.51-1.16,0.76-1.95,0.76C145.56,402.06,145.41,402.06,145.25,402.05z M145.77,407.35c0.8,0,1.47-0.18,2.04-0.53
		s0.84-0.79,0.84-1.31c0-0.54-0.4-0.81-1.19-0.81c-0.26,0-0.72,0.02-1.36,0.05c-0.41,0.02-0.73,0.03-0.96,0.03
		c-0.11,0-0.29,0.09-0.53,0.28s-0.42,0.37-0.55,0.56c-0.13,0.19-0.19,0.38-0.19,0.58c0,0.31,0.18,0.59,0.53,0.81
		C144.74,407.24,145.2,407.35,145.77,407.35z M145.73,401.13c0.44,0,0.81-0.15,1.09-0.46c0.28-0.31,0.42-0.71,0.42-1.21
		c0-0.52-0.14-0.93-0.41-1.22c-0.27-0.29-0.64-0.44-1.1-0.44c-0.43,0-0.79,0.15-1.08,0.46c-0.29,0.31-0.44,0.71-0.44,1.21
		c0,0.49,0.15,0.89,0.44,1.2S145.3,401.13,145.73,401.13z"/>
	<path d="M158.18,405.09h-3.3v-9.89h-2.11v-1.05h3.32v9.89h2.09V405.09z"/>
	<path d="M168.53,401.09h-5.54c0,0.91,0.26,1.67,0.79,2.26c0.53,0.59,1.18,0.89,1.95,0.89c0.73,0,1.49-0.13,2.27-0.4l0.21,0.97
		c-0.71,0.32-1.54,0.48-2.5,0.48c-1.2,0-2.17-0.39-2.9-1.16c-0.73-0.77-1.1-1.81-1.1-3.12c0-1.28,0.33-2.3,0.99-3.07
		c0.66-0.76,1.51-1.14,2.55-1.14c0.93,0,1.71,0.35,2.33,1.06c0.62,0.71,0.94,1.65,0.94,2.83V401.09z M167.21,400.11
		c0-0.63-0.2-1.16-0.59-1.59c-0.39-0.43-0.83-0.65-1.32-0.65c-0.62,0-1.14,0.21-1.55,0.62s-0.64,0.95-0.69,1.62H167.21z"/>
	<path d="M178.77,397.02l-1.16,8.08h-0.92l-1.9-4.57l-1.91,4.57h-0.92l-1.14-8.08h1.2c0.43,3.77,0.65,5.75,0.67,5.94l1.48-3.51h1.24
		l1.47,3.49l0.65-5.91H178.77z"/>
	<path d="M184.21,396.82c1.11,0,2,0.39,2.65,1.16s0.98,1.8,0.98,3.06c0,1.28-0.33,2.31-0.98,3.09s-1.54,1.17-2.65,1.17
		c-1.12,0-2-0.39-2.65-1.17c-0.65-0.78-0.98-1.81-0.98-3.09c0-1.27,0.33-2.29,0.98-3.07S183.1,396.82,184.21,396.82z M184.21,404.25
		c0.73,0,1.31-0.31,1.74-0.93s0.64-1.37,0.64-2.26c0-0.93-0.21-1.69-0.63-2.29c-0.42-0.6-1-0.9-1.74-0.9c-0.75,0-1.33,0.3-1.74,0.89
		c-0.41,0.59-0.62,1.36-0.62,2.31c0,0.9,0.21,1.65,0.63,2.27C182.89,403.94,183.47,404.25,184.21,404.25z"/>
	<path d="M193.74,396.82c1.11,0,2,0.39,2.65,1.16s0.98,1.8,0.98,3.06c0,1.28-0.33,2.31-0.98,3.09s-1.54,1.17-2.65,1.17
		c-1.12,0-2-0.39-2.65-1.17c-0.65-0.78-0.98-1.81-0.98-3.09c0-1.27,0.33-2.29,0.98-3.07S192.63,396.82,193.74,396.82z
		 M193.74,404.25c0.73,0,1.31-0.31,1.74-0.93s0.64-1.37,0.64-2.26c0-0.93-0.21-1.69-0.63-2.29c-0.42-0.6-1-0.9-1.74-0.9
		c-0.75,0-1.33,0.3-1.74,0.89c-0.41,0.59-0.62,1.36-0.62,2.31c0,0.9,0.21,1.65,0.63,2.27C192.42,403.94,193,404.25,193.74,404.25z"
		/>
	<path d="M206.37,405.09h-1.21v-1.16c-0.25,0.4-0.6,0.73-1.07,0.98c-0.46,0.26-0.95,0.39-1.46,0.39c-0.93,0-1.66-0.41-2.19-1.24
		c-0.54-0.82-0.81-1.87-0.81-3.14c0-1.18,0.28-2.16,0.84-2.94s1.3-1.17,2.23-1.17c1.02,0,1.84,0.41,2.46,1.24v-3.91h1.21V405.09z
		 M205.16,402.62v-3.36c-0.58-0.93-1.28-1.4-2.09-1.4c-0.67,0-1.19,0.3-1.58,0.89c-0.39,0.59-0.58,1.34-0.58,2.24
		c0,0.93,0.18,1.7,0.55,2.31s0.86,0.91,1.5,0.91c0.3,0,0.61-0.08,0.92-0.25c0.31-0.17,0.6-0.41,0.88-0.74
		C205.02,402.9,205.16,402.69,205.16,402.62z"/>
</g>
<g>
	<path class="st1" d="M371.28,437.6c-1.4,1.05-1.4,4.89,5.59,1.75c5.51-2.48,14.72-9.1,12.86-17.1c-1.34-5.61-5.62-7.43-10.35-6.98
		c-11.39,1.07-16.48,11.66-14.38,14.65"/>
	<path class="st1" d="M394.55,444.14c-1.09,2.05-6.57,8.07-7.8,3.01c-1.23-5.06,8.43-9.17,7.8-5.61c-0.63,3.56-0.41,9.17,3.42,8.76
		c3.83-0.41,7.11-7.3,6.84-9.74c-0.27-2.44,5.61,12.89,6.29,16.03"/>
	<path class="st1" d="M407.46,446.12c0-4.01,1.32-10.32,6.38-7.86c5.06,2.46,1.41,10.42-5.26,10.81"/>
	<path class="st1" d="M420.52,440.56c0.78,1.72,2.44,4.71,4.54,1.94c2.1-2.77,2.55-5.87-0.89-4.21c-3.43,1.66-6.42,8.86-1.44,11.85
		c4.98,2.99,11.52-6.42,12.18-7.97"/>
	<path class="st1" d="M434.14,438.96c0.44,2.66,2.77,8.97,5.98,12.29c3.21,3.32-5.43-6.25,0.78-13.42c3.32-3.22,9.41-0.12,9.41-0.12
		"/>
	<path class="st1" d="M452.41,431.87c-3.54-4.32-5.8-11.26,1.66-12.85c6.34-1.35,22.74-3.93,22.59,10.41
		c-0.14,13.85-18.94,17.61-20.93,14.84c-2.74-3.82,10.85-2.73,14.51,1.24c3.65,3.97,9.97,10.28,12.96,9.95
		c2.99-0.33,7.2-1.22,7.2-5.43c0-4.21-6.98-6.09-8.75-2.88c-1.77,3.21,8.76-0.07,9.41-1.33c1.27-2.44-0.12,9.09,5.21,8.61
		c4.85-0.43,7.06-5.84,4.51-8.05"/>
	<path class="st1" d="M460.79,436.7c0,0,5.86,19.43,6.14,19.89c0.28,0.46,1.3,1.4,2.14,0"/>
	<path class="st1" d="M482.19,447.01c-1.4,1.01-4.54,4.04-1.39,7.78"/>
	<path class="st1" d="M514.01,443.93c-2.05-1.95-8.37-8.75-9.03-10.79s6.98,19.17,7.26,22.33"/>
	<path class="st1" d="M502.66,446.16c2.33-0.47,14.79,1.86,18.8,3.54c4,1.67,6.05-3.16,6.14-6.23c0.09-3.07-7.91-0.56-6.42,8
		s18.89,5.77,19.45-2.98"/>
	<path class="st1" d="M374.08,462.27c1.44,1.1,3.64,1.92,5.29,1.92c1.65,0,138.17-8.52,161.26-3.3"/>
	<path class="st1" d="M419.31,462.05c9.84-0.49,65.07,0.25,54.86,5.29c-10.21,5.04-46,9.1-43.79,10.82
		c2.21,1.72,42.56-1.72,33.58,4.67c-8.98,6.4-20.46,17.26-9.39,17.75c11.07,0.49,25.44-3.49,27.62-4.22"/>
	<path class="st1" d="M312.89,432.99c2.79,3.03,6.27,2.3,7.08,2.37c0.81,0.07,33.51-1.02,35.56-1.17"/>
	<path class="st1" d="M371.28,432.36c2.09,5.24,5.59,23.04,5.59,26.53"/>
</g>
<g>
	<path d="M415.55,408.51c-0.84,0.58-1.81,0.87-2.91,0.87c-1.38,0-2.43-0.47-3.15-1.42c-0.72-0.95-1.08-2.32-1.08-4.11
		c0-1.73,0.35-3.09,1.04-4.07c0.7-0.98,1.76-1.47,3.18-1.47c0.51,0,1.02,0.07,1.53,0.2c0.5,0.13,0.91,0.3,1.22,0.52l-0.41,0.97
		c-0.71-0.4-1.49-0.6-2.33-0.6c-0.98,0-1.71,0.36-2.19,1.07c-0.48,0.71-0.72,1.84-0.72,3.38c0,2.96,0.97,4.44,2.91,4.44
		c0.82,0,1.66-0.25,2.52-0.76L415.55,408.51z"/>
	<path d="M421.38,401.12c1.08,0,1.94,0.38,2.58,1.13c0.64,0.76,0.96,1.75,0.96,2.98c0,1.24-0.32,2.25-0.96,3.01
		c-0.64,0.76-1.5,1.14-2.58,1.14c-1.09,0-1.95-0.38-2.59-1.14c-0.64-0.76-0.96-1.76-0.96-3.01c0-1.24,0.32-2.24,0.96-2.99
		C419.44,401.49,420.3,401.12,421.38,401.12z M421.38,408.35c0.71,0,1.28-0.3,1.69-0.91s0.62-1.34,0.62-2.2
		c0-0.91-0.2-1.65-0.61-2.24c-0.41-0.58-0.98-0.88-1.7-0.88c-0.73,0-1.3,0.29-1.7,0.87c-0.4,0.58-0.6,1.33-0.6,2.25
		c0,0.88,0.2,1.61,0.61,2.21C420.1,408.06,420.66,408.35,421.38,408.35z"/>
	<path d="M434.34,409.18h-1.18v-5.17c0-1.25-0.23-1.87-0.7-1.87c-0.24,0-0.5,0.22-0.78,0.65c-0.28,0.43-0.43,0.67-0.43,0.71v5.68
		h-1.17v-5.17c0-1.25-0.23-1.87-0.7-1.87c-0.23,0-0.49,0.22-0.77,0.65c-0.28,0.43-0.43,0.67-0.43,0.71v5.68h-1.18v-7.87h1.13v1.19
		c0.22-0.42,0.48-0.75,0.79-1c0.3-0.25,0.61-0.37,0.91-0.37c0.32,0,0.6,0.12,0.85,0.37c0.25,0.25,0.43,0.58,0.52,1
		c0.22-0.42,0.49-0.75,0.79-1c0.31-0.25,0.61-0.37,0.91-0.37c0.95,0,1.43,0.85,1.43,2.55V409.18z"/>
	<path d="M438.12,402.33c0.26-0.36,0.62-0.65,1.06-0.88c0.45-0.22,0.92-0.33,1.41-0.33c0.91,0,1.62,0.37,2.13,1.12
		c0.52,0.75,0.77,1.72,0.77,2.92c0,1.21-0.27,2.21-0.81,3.02c-0.54,0.8-1.27,1.21-2.19,1.21c-0.49,0-0.95-0.12-1.37-0.37
		c-0.42-0.24-0.76-0.57-1.01-0.97v4.25h-1.18v-10.99h1.18V402.33z M438.12,403.5v3.27c0.22,0.44,0.52,0.81,0.9,1.11
		c0.38,0.3,0.77,0.45,1.17,0.45c0.63,0,1.14-0.3,1.51-0.89c0.38-0.59,0.56-1.33,0.56-2.21c0-0.91-0.18-1.65-0.54-2.22
		s-0.86-0.86-1.5-0.86C439.41,402.14,438.7,402.59,438.12,403.5z"/>
	<path d="M452.37,408.82c-0.79,0.36-1.57,0.54-2.33,0.54c-1.41,0-2.11-0.74-2.11-2.23v-4.81h-1.51v-1.02h1.51v-2.15h1.15v2.15h2.67
		v1.02h-2.67v4.5c0,0.48,0.11,0.85,0.32,1.11c0.21,0.26,0.5,0.4,0.86,0.4c0.65,0,1.28-0.14,1.91-0.43L452.37,408.82z"/>
	<path d="M458.53,401.12c1.08,0,1.94,0.38,2.58,1.13c0.64,0.76,0.96,1.75,0.96,2.98c0,1.24-0.32,2.25-0.96,3.01
		c-0.64,0.76-1.5,1.14-2.58,1.14c-1.09,0-1.95-0.38-2.59-1.14c-0.64-0.76-0.96-1.76-0.96-3.01c0-1.24,0.32-2.24,0.96-2.99
		C456.59,401.49,457.45,401.12,458.53,401.12z M458.53,408.35c0.71,0,1.28-0.3,1.69-0.91s0.62-1.34,0.62-2.2
		c0-0.91-0.2-1.65-0.61-2.24c-0.41-0.58-0.98-0.88-1.7-0.88c-0.73,0-1.3,0.29-1.7,0.87c-0.4,0.58-0.6,1.33-0.6,2.25
		c0,0.88,0.2,1.61,0.61,2.21C457.25,408.06,457.81,408.35,458.53,408.35z"/>
	<path d="M470.87,409.18h-1.18v-5.05c0-0.7-0.11-1.21-0.34-1.52c-0.22-0.31-0.58-0.47-1.05-0.47c-0.72,0-1.49,0.45-2.32,1.34v5.7
		h-1.18v-7.87h1.18v1.16c0.85-0.9,1.74-1.34,2.67-1.34c1.48,0,2.21,0.89,2.21,2.67V409.18z"/>
</g>
<g>
	<path class="st1" d="M83.18,591.16c-1.31,0.98-1.31,4.59,5.25,1.64c5.18-2.33,13.82-8.54,12.08-16.05
		c-1.25-5.27-5.27-6.97-9.72-6.56c-10.69,1.01-15.47,10.95-13.5,13.76"/>
	<path class="st1" d="M105.02,597.29c-1.03,1.93-6.17,7.58-7.32,2.83s7.91-8.61,7.32-5.27c-0.59,3.35-0.39,8.61,3.21,8.22
		c3.6-0.39,6.68-6.85,6.42-9.14s5.27,12.1,5.91,15.05"/>
	<path class="st1" d="M117.14,599.15c0-3.77,1.24-9.69,5.99-7.38c4.75,2.31,1.32,9.78-4.94,10.15"/>
	<path class="st1" d="M129.41,593.93c0.73,1.61,2.29,4.42,4.26,1.82c1.98-2.6,2.39-5.51-0.83-3.95s-6.03,8.32-1.35,11.12
		c4.68,2.81,10.81-6.03,11.44-7.49"/>
	<path class="st1" d="M142.2,592.43c0.42,2.5,2.6,8.42,5.61,11.54c3.02,3.12-5.09-5.87,0.73-12.6c3.12-3.02,8.84-0.11,8.84-0.11"/>
	<path class="st1" d="M159.35,585.77c-3.33-4.05-5.45-10.57,1.56-12.06c5.96-1.27,21.35-3.69,21.21,9.77
		c-0.13,13-17.78,16.54-19.65,13.93c-2.57-3.58,10.19-2.56,13.62,1.16s9.36,9.65,12.16,9.34c2.81-0.31,6.76-1.14,6.76-5.09
		s-6.55-5.72-8.21-2.7s8.22-0.07,8.84-1.25c1.19-2.29-0.12,8.53,4.89,8.09c4.56-0.4,6.63-5.48,4.23-7.56"/>
	<path class="st1" d="M167.21,590.31c0,0,5.5,18.25,5.77,18.68c0.26,0.43,1.22,1.32,2.01,0"/>
	<path class="st1" d="M187.31,599.99c-1.31,0.95-4.26,3.79-1.3,7.3"/>
	<path class="st1" d="M217.19,597.09c-1.92-1.83-7.86-8.21-8.47-10.13c-0.61-1.92,6.55,18,6.81,20.97"/>
	<path class="st1" d="M206.53,599.19c2.18-0.44,13.89,1.75,17.65,3.32c3.76,1.57,5.68-2.97,5.77-5.85c0.09-2.88-7.43-0.52-6.03,7.51
		c1.4,8.04,17.74,5.42,18.26-2.8"/>
	<path class="st1" d="M85.8,614.32c1.36,1.03,3.42,1.81,4.97,1.81c1.55,0,129.73-8,151.41-3.1"/>
	<path class="st1" d="M128.27,614.11c9.24-0.46,61.09,0.24,51.51,4.97c-9.59,4.74-43.19,8.55-41.11,10.16s39.96-1.62,31.53,4.39
		s-19.21,16.21-8.82,16.67c10.39,0.46,23.88-3.27,25.94-3.97"/>
	<path class="st1" d="M28.35,586.83c2.62,2.85,5.89,2.16,6.64,2.23c0.76,0.07,31.46-0.96,33.39-1.1"/>
	<path class="st1" d="M83.18,586.24c1.97,4.92,5.25,21.64,5.25,24.91"/>
</g>
<g>
	<path d="M124.41,564.47h-5.45v-10.01h1.16v9h4.29V564.47z"/>
	<path d="M130.22,556.9c1.02,0,1.83,0.36,2.43,1.06c0.6,0.71,0.9,1.64,0.9,2.8c0,1.17-0.3,2.11-0.9,2.82
		c-0.6,0.71-1.41,1.07-2.43,1.07c-1.02,0-1.83-0.36-2.43-1.07c-0.6-0.71-0.9-1.65-0.9-2.83c0-1.16,0.3-2.1,0.9-2.81
		S129.2,556.9,130.22,556.9z M130.22,563.7c0.67,0,1.2-0.28,1.59-0.85c0.39-0.57,0.58-1.26,0.58-2.06c0-0.85-0.19-1.55-0.58-2.1
		c-0.38-0.55-0.92-0.82-1.6-0.82c-0.69,0-1.22,0.27-1.6,0.81c-0.38,0.54-0.57,1.25-0.57,2.11c0,0.82,0.19,1.51,0.57,2.08
		C129.01,563.42,129.54,563.7,130.22,563.7z"/>
	<path d="M141.8,564.47h-1.11v-4.74c0-0.66-0.11-1.13-0.32-1.43c-0.21-0.29-0.54-0.44-0.99-0.44c-0.68,0-1.4,0.42-2.18,1.26v5.35
		h-1.11v-7.39h1.11v1.09c0.79-0.84,1.63-1.26,2.51-1.26c1.39,0,2.08,0.84,2.08,2.51V564.47z"/>
	<path d="M146.87,561.68c-0.69,0.34-1.04,0.63-1.04,0.89c0,0.14,0.08,0.25,0.24,0.35s0.38,0.14,0.65,0.14l2.49-0.07
		c0.59,0,1.05,0.14,1.38,0.43c0.33,0.29,0.49,0.7,0.49,1.23c0,0.84-0.37,1.5-1.12,2c-0.75,0.5-1.62,0.75-2.62,0.75
		c-0.82,0-1.49-0.17-2.01-0.51c-0.52-0.34-0.78-0.79-0.78-1.33c0-0.59,0.4-1.09,1.21-1.5c-0.67-0.31-1-0.7-1-1.15
		c0-0.52,0.43-1,1.29-1.45c-0.4-0.24-0.7-0.55-0.92-0.94c-0.21-0.38-0.32-0.79-0.32-1.21c0-0.7,0.24-1.27,0.71-1.71
		c0.47-0.45,1.06-0.67,1.77-0.67c0.51,0,0.97,0.11,1.38,0.32l2.19-0.33v1.08h-1.41c0.21,0.37,0.32,0.81,0.32,1.32
		c0,0.67-0.23,1.24-0.7,1.7c-0.47,0.46-1.06,0.7-1.78,0.7C147.16,561.69,147.01,561.69,146.87,561.68z M147.35,566.53
		c0.73,0,1.35-0.16,1.86-0.49c0.51-0.32,0.77-0.72,0.77-1.2c0-0.49-0.36-0.74-1.09-0.74c-0.24,0-0.66,0.01-1.25,0.04
		c-0.37,0.02-0.67,0.03-0.88,0.03c-0.1,0-0.27,0.08-0.49,0.26c-0.22,0.17-0.39,0.34-0.5,0.51c-0.12,0.17-0.17,0.35-0.17,0.54
		c0,0.29,0.16,0.54,0.48,0.74C146.4,566.43,146.83,566.53,147.35,566.53z M147.31,560.84c0.41,0,0.74-0.14,1-0.42
		s0.39-0.65,0.39-1.1c0-0.48-0.12-0.85-0.38-1.12s-0.59-0.4-1.01-0.4c-0.39,0-0.72,0.14-0.99,0.42c-0.27,0.28-0.4,0.65-0.4,1.1
		c0,0.45,0.13,0.81,0.4,1.1C146.58,560.69,146.92,560.84,147.31,560.84z"/>
	<path d="M166.3,558.98c0.67,0.16,1.19,0.46,1.57,0.91c0.38,0.45,0.57,0.98,0.57,1.6c0,0.91-0.33,1.63-0.99,2.17
		s-1.45,0.81-2.38,0.81h-2.85v-10.01h2.77c0.96,0,1.72,0.21,2.26,0.64c0.54,0.42,0.82,1.02,0.82,1.79c0,0.47-0.16,0.89-0.47,1.26
		s-0.75,0.64-1.3,0.8V558.98z M163.38,558.44h1.36c1.42,0,2.13-0.51,2.13-1.53c0-0.46-0.17-0.82-0.52-1.07
		c-0.35-0.25-0.86-0.37-1.54-0.37h-1.43V558.44z M163.38,563.45h1.32c0.77,0,1.38-0.17,1.83-0.52c0.45-0.35,0.68-0.83,0.68-1.44
		c0-0.65-0.22-1.15-0.67-1.5c-0.44-0.36-1.09-0.53-1.93-0.53h-1.23V563.45z"/>
	<path d="M176.9,560.81h-5.07c0,0.84,0.24,1.53,0.73,2.07s1.08,0.82,1.78,0.82c0.67,0,1.36-0.12,2.08-0.36l0.19,0.89
		c-0.65,0.29-1.41,0.44-2.28,0.44c-1.1,0-1.98-0.35-2.65-1.06c-0.67-0.71-1.01-1.66-1.01-2.85c0-1.17,0.3-2.11,0.9-2.81
		c0.6-0.7,1.38-1.05,2.34-1.05c0.85,0,1.56,0.32,2.14,0.97c0.57,0.65,0.86,1.51,0.86,2.59V560.81z M175.69,559.91
		c0-0.58-0.18-1.06-0.54-1.46c-0.36-0.4-0.76-0.59-1.21-0.59c-0.57,0-1.05,0.19-1.42,0.57c-0.38,0.38-0.58,0.87-0.63,1.48H175.69z"
		/>
	<path d="M185.58,564.47h-1.1c-0.09-0.3-0.13-0.7-0.13-1.19c-0.63,0.92-1.48,1.38-2.57,1.38c-0.55,0-1.03-0.2-1.45-0.58
		c-0.42-0.39-0.63-0.89-0.63-1.51c0-0.36,0.07-0.69,0.22-0.96s0.36-0.51,0.65-0.71c0.28-0.19,0.63-0.34,1.04-0.45
		c0.41-0.11,0.89-0.19,1.45-0.23l1.24-0.1v-0.35c0-1.27-0.59-1.9-1.77-1.9c-0.28,0-0.63,0.06-1.06,0.18
		c-0.43,0.12-0.8,0.26-1.1,0.43l-0.29-0.79c1.01-0.52,1.94-0.77,2.81-0.77c1.68,0,2.53,0.89,2.53,2.67v3.18
		C185.4,563.4,185.46,563.97,185.58,564.47z M184.29,562.28v-1.34c-1,0.09-1.68,0.17-2.05,0.25s-0.69,0.22-0.96,0.44
		c-0.27,0.21-0.41,0.5-0.41,0.87c0,0.33,0.12,0.6,0.35,0.8c0.23,0.2,0.53,0.3,0.89,0.3c0.39,0,0.78-0.12,1.17-0.35
		S184,562.69,184.29,562.28z"/>
	<path d="M194.09,564.22c-0.64,0.29-1.35,0.44-2.12,0.44c-1.16,0-2.09-0.35-2.78-1.06c-0.69-0.71-1.04-1.65-1.04-2.82
		s0.35-2.11,1.05-2.82c0.7-0.71,1.61-1.06,2.75-1.06c0.74,0,1.45,0.13,2.12,0.39l-0.29,0.92c-0.67-0.23-1.28-0.35-1.82-0.35
		c-0.81,0-1.46,0.26-1.93,0.79c-0.48,0.52-0.71,1.24-0.71,2.13c0,0.82,0.25,1.51,0.74,2.08c0.49,0.56,1.13,0.84,1.92,0.84
		c0.62,0,1.27-0.12,1.93-0.36L194.09,564.22z"/>
	<path d="M202.84,564.47h-1.11v-4.74c0-0.66-0.11-1.13-0.32-1.43c-0.21-0.29-0.54-0.44-0.99-0.44c-0.68,0-1.4,0.42-2.18,1.26v5.35
		h-1.11v-10.01h1.11v3.7c0.79-0.84,1.63-1.26,2.51-1.26c1.39,0,2.08,0.84,2.08,2.51V564.47z"/>
</g>
<g>
	<path class="st1" d="M368.95,589.66c-1.31,0.98-1.31,4.57,5.22,1.63c5.15-2.32,13.76-8.5,12.02-15.98
		c-1.25-5.25-5.25-6.94-9.67-6.53c-10.65,1-15.4,10.9-13.44,13.69"/>
	<path class="st1" d="M390.7,595.77c-1.02,1.92-6.14,7.55-7.29,2.81s7.88-8.57,7.29-5.24c-0.59,3.33-0.38,8.57,3.2,8.18
		c3.58-0.38,6.65-6.82,6.39-9.1s5.24,12.04,5.88,14.99"/>
	<path class="st1" d="M402.76,597.62c0-3.75,1.24-9.65,5.97-7.35c4.73,2.3,1.32,9.74-4.92,10.1"/>
	<path class="st1" d="M414.98,592.42c0.72,1.61,2.28,4.4,4.24,1.81c1.97-2.59,2.38-5.49-0.83-3.93c-3.21,1.55-6,8.28-1.35,11.07
		c4.66,2.79,10.76-6,11.39-7.45"/>
	<path class="st1" d="M427.71,590.92c0.41,2.48,2.59,8.38,5.59,11.49c3,3.11-5.07-5.84,0.72-12.55c3.11-3.01,8.8-0.11,8.8-0.11"/>
	<path class="st1" d="M444.78,584.3c-3.31-4.04-5.42-10.52,1.55-12.01c5.93-1.26,21.25-3.67,21.11,9.73
		c-0.13,12.95-17.7,16.46-19.56,13.87c-2.56-3.57,10.14-2.55,13.56,1.15s9.32,9.61,12.11,9.3c2.79-0.31,6.73-1.14,6.73-5.07
		c0-3.93-6.52-5.69-8.18-2.69c-1.66,3,8.18-0.07,8.8-1.24c1.19-2.28-0.12,8.49,4.87,8.05c4.54-0.4,6.6-5.46,4.22-7.53"/>
	<path class="st1" d="M452.61,588.82c0,0,5.48,18.17,5.74,18.59c0.26,0.43,1.22,1.31,2,0"/>
	<path class="st1" d="M472.61,598.46c-1.3,0.94-4.24,3.77-1.3,7.27"/>
	<path class="st1" d="M502.36,595.57c-1.91-1.83-7.83-8.18-8.44-10.09c-0.61-1.91,6.52,17.92,6.78,20.88"/>
	<path class="st1" d="M491.75,597.66c2.17-0.43,13.83,1.74,17.57,3.3c3.74,1.57,5.65-2.96,5.74-5.83s-7.39-0.52-6,7.48
		s17.66,5.39,18.18-2.78"/>
	<path class="st1" d="M371.56,612.71c1.35,1.03,3.4,1.8,4.95,1.8c1.54,0,129.15-7.96,150.73-3.08"/>
	<path class="st1" d="M413.84,612.51c9.2-0.46,60.82,0.23,51.28,4.95c-9.54,4.71-43,8.51-40.93,10.12s39.78-1.61,31.39,4.37
		c-8.39,5.98-19.13,16.14-8.78,16.6c10.35,0.46,23.78-3.26,25.82-3.95"/>
	<path class="st1" d="M314.37,585.35c2.61,2.84,5.86,2.15,6.61,2.22c0.75,0.07,31.32-0.96,33.24-1.09"/>
	<path class="st1" d="M368.95,584.76c1.96,4.9,5.22,21.54,5.22,24.8"/>
</g>
<g>
	<path d="M409.89,562.38c-0.81,0.6-1.72,0.9-2.71,0.9c-1.29,0-2.28-0.44-2.95-1.32c-0.67-0.88-1-2.16-1-3.85
		c0-1.63,0.32-2.9,0.97-3.81c0.65-0.91,1.64-1.36,2.98-1.36c0.48,0,0.96,0.06,1.43,0.18c0.47,0.12,0.85,0.29,1.14,0.49l-0.38,0.91
		c-0.66-0.38-1.39-0.56-2.18-0.56c-0.91,0-1.59,0.33-2.04,1c-0.45,0.67-0.67,1.72-0.67,3.16c0,2.77,0.91,4.15,2.72,4.15
		c0.68,0,1.2-0.14,1.55-0.43v-2.46h-1.79v-1h2.95V562.38z"/>
	<path d="M418.4,563.09h-1.09c-0.09-0.3-0.13-0.69-0.13-1.19c-0.63,0.92-1.48,1.38-2.56,1.38c-0.55,0-1.03-0.19-1.44-0.58
		c-0.42-0.39-0.62-0.89-0.62-1.5c0-0.36,0.07-0.68,0.22-0.96c0.15-0.28,0.36-0.51,0.64-0.7c0.28-0.19,0.63-0.34,1.03-0.45
		s0.89-0.19,1.44-0.23l1.24-0.1v-0.35c0-1.26-0.59-1.89-1.77-1.89c-0.28,0-0.63,0.06-1.06,0.18c-0.43,0.12-0.79,0.26-1.1,0.43
		l-0.29-0.79c1-0.51,1.93-0.77,2.8-0.77c1.68,0,2.51,0.89,2.51,2.66v3.16C418.21,562.02,418.27,562.59,418.4,563.09z M417.11,560.91
		v-1.33c-0.99,0.09-1.67,0.17-2.04,0.25c-0.37,0.08-0.69,0.22-0.96,0.43s-0.41,0.5-0.41,0.86c0,0.33,0.12,0.6,0.35,0.8
		c0.23,0.2,0.53,0.3,0.88,0.3c0.39,0,0.78-0.12,1.17-0.35C416.48,561.64,416.82,561.32,417.11,560.91z"/>
	<path d="M427.01,555.93l-0.45,1.06c-0.48-0.21-0.9-0.32-1.26-0.32c-0.33,0-0.64,0.09-0.95,0.28c-0.31,0.19-0.6,0.45-0.86,0.8
		c-0.26,0.35-0.39,0.54-0.39,0.58v4.76h-1.09v-7.36h1.09v1.49c0.59-1.11,1.35-1.67,2.29-1.67
		C425.94,555.55,426.48,555.68,427.01,555.93z"/>
	<path d="M435.54,563.09h-1.1v-1.06c-0.23,0.36-0.55,0.66-0.97,0.9c-0.42,0.24-0.87,0.35-1.33,0.35c-0.84,0-1.51-0.38-2-1.13
		c-0.49-0.75-0.73-1.7-0.73-2.86c0-1.08,0.25-1.97,0.77-2.68c0.51-0.71,1.19-1.06,2.03-1.06c0.93,0,1.67,0.38,2.24,1.13v-3.56h1.1
		V563.09z M434.44,560.84v-3.06c-0.53-0.85-1.16-1.27-1.91-1.27c-0.61,0-1.09,0.27-1.44,0.81c-0.35,0.54-0.53,1.22-0.53,2.04
		c0,0.85,0.17,1.55,0.5,2.1c0.33,0.55,0.79,0.83,1.37,0.83c0.28,0,0.56-0.08,0.84-0.23c0.28-0.15,0.55-0.38,0.8-0.68
		C434.32,561.09,434.44,560.9,434.44,560.84z"/>
	<path d="M444.47,559.45h-5.05c0,0.83,0.24,1.52,0.72,2.06s1.07,0.81,1.78,0.81c0.67,0,1.36-0.12,2.07-0.36l0.19,0.88
		c-0.65,0.29-1.41,0.44-2.27,0.44c-1.09,0-1.97-0.35-2.64-1.05c-0.67-0.7-1-1.65-1-2.84c0-1.17,0.3-2.1,0.9-2.79
		c0.6-0.69,1.38-1.04,2.33-1.04c0.85,0,1.56,0.32,2.12,0.97c0.57,0.65,0.86,1.5,0.86,2.58V559.45z M443.27,558.55
		c0-0.57-0.18-1.06-0.54-1.45c-0.36-0.39-0.76-0.59-1.2-0.59c-0.57,0-1.04,0.19-1.42,0.56c-0.37,0.38-0.58,0.87-0.62,1.48H443.27z"
		/>
	<path d="M452.93,563.09h-1.1v-4.72c0-0.65-0.1-1.13-0.31-1.42c-0.21-0.29-0.54-0.44-0.99-0.44c-0.67,0-1.4,0.42-2.17,1.26v5.33
		h-1.1v-7.36h1.1v1.08c0.79-0.84,1.62-1.26,2.5-1.26c1.38,0,2.07,0.83,2.07,2.5V563.09z"/>
	<path d="M461.8,563.09h-1.09c-0.09-0.3-0.13-0.69-0.13-1.19c-0.63,0.92-1.48,1.38-2.56,1.38c-0.55,0-1.03-0.19-1.44-0.58
		c-0.42-0.39-0.62-0.89-0.62-1.5c0-0.36,0.07-0.68,0.22-0.96c0.15-0.28,0.36-0.51,0.64-0.7c0.28-0.19,0.63-0.34,1.03-0.45
		s0.89-0.19,1.44-0.23l1.24-0.1v-0.35c0-1.26-0.59-1.89-1.77-1.89c-0.28,0-0.63,0.06-1.06,0.18c-0.43,0.12-0.79,0.26-1.1,0.43
		l-0.29-0.79c1-0.51,1.93-0.77,2.8-0.77c1.68,0,2.51,0.89,2.51,2.66v3.16C461.61,562.02,461.67,562.59,461.8,563.09z M460.51,560.91
		v-1.33c-0.99,0.09-1.67,0.17-2.04,0.25c-0.37,0.08-0.69,0.22-0.96,0.43s-0.41,0.5-0.41,0.86c0,0.33,0.12,0.6,0.35,0.8
		c0.23,0.2,0.53,0.3,0.88,0.3c0.39,0,0.78-0.12,1.17-0.35C459.88,561.64,460.22,561.32,460.51,560.91z"/>
</g>
</svg>
