<?xml version="1.0" encoding="utf-8"?>
<!-- Generator: Adobe Illustrator 23.0.1, SVG Export Plug-In . SVG Version: 6.00 Build 0)  -->
<svg version="1.1" id="Layer_1" xmlns="http://www.w3.org/2000/svg" xmlns:xlink="http://www.w3.org/1999/xlink" x="0px" y="0px"
	 viewBox="0 0 612 792" style="enable-background:new 0 0 612 792;" xml:space="preserve">
<style type="text/css">
	.st0{fill:#FFFFFF;stroke:#000000;stroke-miterlimit:10;}
</style>
<g>
	<path d="M37,256.04c0.16,26.49,1.22,88.62,1.22,91.66c0,3.05,3.05,14.01-9.14,14.62v2.74h43.27v-3.12c0,0-8.21-0.58-8.32-8.67
		c-0.1-7.1-0.02-40.82,0-48.97c0-0.99,0.79-1.8,1.78-1.82c3.89-0.11,13-0.37,15.49-0.46c0,0,31.92,0.68,40.13-16.99
		c8.21-17.67,4.79-30.21-4.67-38.19s-16.64-9.35-31.92-9.35H69.87c-0.99,0-1.8,0.8-1.81,1.8l-0.09,14.56
		c-0.01,0.98,0.78,1.78,1.76,1.78c5.66,0.03,23.21,0.11,27.3,0.11c4.9,0,9.46,6.16,9.92,8.32c0.46,2.17,3.19,14.82-11.74,17.56
		c-14.93,2.74-23.6,2.17-25.08,2.17s-6.27,1.03-6.16-3.65c0.1-3.96,0.36-31.78,0.43-40.22c0.01-1.34-1.07-2.42-2.41-2.42H27.83v3.19
		C27.83,240.68,37.06,238.29,37,256.04z"/>
	<path d="M152.2,264.15c-3.45,10.86-21.03,81.6-21.73,84.27c-0.7,2.66-4.63,13.32-9.25,13.18c-4.63-0.14-7.01,0-7.01,0v3.46h45.57
		v-3.46c0,0-12.48,1.96-9.67-10.24s21.03-85.25,21.03-85.25h11.08l11.92,37.86l-28.19-0.13c-1.14-0.01-2.12,0.8-2.34,1.91
		l-3.01,15.18c-0.2,1.02,0.58,1.98,1.62,1.98l36.41,0.13c0,0,8.41,26.92,8.97,29.02c0.56,2.1,4.35,9.39-7.85,9.25l-0.28,3.08
		l47.95-0.14v-3.22c0,0-12.48,3.79-18.79-14.86c-6.31-18.65-35.33-99.27-35.33-99.27s-0.7-10.52-12.48-10.66
		c-11.78-0.14-31.83,0-31.83,0l0.14,3.65C149.11,239.89,161.03,236.18,152.2,264.15z"/>
	<path d="M267.71,255.39c0.16,26.49,1.22,88.62,1.22,91.66s3.05,14.01-9.14,14.62v2.74h43.27v-3.12c0,0-8.21-0.58-8.32-8.67
		c-0.1-7.1-0.02-40.82,0-48.97c0-0.99,0.79-1.8,1.78-1.82c3.89-0.11,13-0.37,15.49-0.46c0,0,31.92,0.68,40.13-16.99
		s4.79-30.21-4.67-38.19c-9.46-7.98-16.64-9.35-31.92-9.35h-14.96c-0.99,0-1.8,0.8-1.81,1.8l-0.09,14.56
		c-0.01,0.98,0.78,1.78,1.76,1.78c5.66,0.03,23.21,0.11,27.3,0.11c4.9,0,9.46,6.16,9.92,8.32c0.46,2.17,3.19,14.82-11.74,17.56
		c-14.93,2.74-23.6,2.17-25.08,2.17c-1.48,0-6.27,1.03-6.16-3.65c0.1-3.96,0.36-31.78,0.43-40.22c0.01-1.34-1.07-2.42-2.41-2.42
		h-34.17v3.19C258.54,240.03,267.78,237.63,267.71,255.39z"/>
	<path d="M362.31,235.05h83.71c0.61,0,1.1,0.49,1.1,1.1v18c0,0.55-0.44,0.99-0.99,0.99h-47.3c-0.72,0-1.3,0.58-1.3,1.3v84.19
		c0,0.64,0.52,1.15,1.16,1.14l49.57-0.7c0.8-0.01,1.45,0.63,1.45,1.43v17.72c0,0.62-0.5,1.12-1.12,1.12h-85.35l0.16-3.32
		c0,0,11.51,0.73,11.83-7.93c0.18-10.51,0.74-96.61,0.74-99.38s1.84-13.83-13.64-13.09V235.05z"/>
	<path d="M403.06,287.65h32.22c0.88,0,1.6,0.72,1.6,1.6v18.21c0,0.69-0.56,1.26-1.26,1.26h-32.87c-0.71,0-1.29-0.58-1.29-1.29
		v-18.18C401.46,288.37,402.18,287.65,403.06,287.65z"/>
	<path d="M460.28,233.54h38.15c1.33,0,2.41,1.06,2.45,2.38l0.24,45.01c0.01,1.26,1.05,2.27,2.31,2.23
		c6.9-0.21,27.26-0.86,32.08-1.32c5.83-0.56,16.66-3.33,17.49-11.66c0.83-8.33-1.94-13.33-8.33-15.27
		c-5.54-1.1-31.08-0.67-38.16-0.36c-1,0.04-1.84-0.74-1.87-1.75l-0.45-17.1c-0.03-1.2,0.9-2.21,2.11-2.26
		c7.15-0.28,30.16-0.93,40.87,1.82c12.77,3.28,28.32,7.44,27.76,30.2c1.74,15.63-3.74,26.17-9.69,29.26
		c-3.16,2.13-6.74,3.56-10.48,4.28c-11.16,2.16-4.3,6.83-0.93,14.2c2.94,6.44,18.32,34.7,19.71,37.2c1.39,2.5,7.77,7.77,17.77,8.05
		v3.09h-55.8v-3.09c0,0,13.33,3.05,7.22-11.1c-4.98-11.55-16.62-34.01-20.73-41.88c-0.9-1.72-2.71-2.76-4.64-2.67l-13.44,0.6
		c-1.1,0.05-1.95,0.97-1.92,2.07c0.28,8.04,1.36,38.08,1.6,42.16c0.28,4.72,2.82,10.35,10.03,11.03c0,0-0.22,2.8-0.04,4.52l-51.64,0
		v-3.05c0,0,13.88,1.11,13.6-9.72c-0.28-10.83-0.56-94.94-0.56-98.55s3.33-14.44-14.71-14.16
		C460.14,236.43,460.28,233.54,460.28,233.54z"/>
	<path d="M28.45,368.36h37.16c1.29,0,2.35,1.04,2.39,2.34l0.24,44.22c0.01,1.24,1.02,2.23,2.25,2.2c6.73-0.21,26.55-0.84,31.25-1.3
		c5.68-0.55,16.23-3.27,17.04-11.46s-1.89-13.09-8.11-15c-5.39-1.08-30.28-0.66-37.17-0.36c-0.98,0.04-1.79-0.73-1.82-1.72
		l-0.44-16.81c-0.03-1.18,0.88-2.17,2.05-2.22c6.96-0.28,29.38-0.92,39.81,1.78c12.44,3.22,27.59,7.31,27.05,29.68
		c1.69,15.36-3.64,25.71-9.44,28.75c-3.08,2.09-6.57,3.5-10.21,4.21c-10.87,2.13-4.19,6.71-0.91,13.96
		c2.87,6.33,17.85,34.1,19.2,36.55c1.35,2.46,7.64,9.89,17.38,10.16l-0.01,2.39H101.9l0.03-2.54c0,0,12.79,0.9,6.84-13.01
		c-4.85-11.35-16.19-33.42-20.2-41.16c-0.87-1.69-2.64-2.71-4.52-2.62l-13.1,0.59c-1.07,0.05-1.9,0.95-1.87,2.03
		c0.28,7.9,1.32,37.42,1.55,41.43c0.27,4.64,2.65,12.13,9.67,12.8c0,0-0.11,0.79,0.06,2.48l-50.3,0l-0.01-1.71
		c0,0,13.53-0.2,13.26-10.83c-0.27-10.64-0.54-93.29-0.54-96.84c0-3.55,3.25-14.19-14.33-13.91
		C28.32,371.19,28.45,368.36,28.45,368.36z"/>
	<path d="M332.68,368h43.06v2.29c0,0-7.48-1.48-7.78,5.76c-0.29,7.24,0,78.48,0,81.44s0.3,26.92-16.73,34.72
		c-12.17,5.27-24.85,3.5-28.41,3.56c-0.4-0.04-0.71-0.42-0.71-0.87c-0.05-3.94,0-17.74,0.01-21.74c0-0.61,0.42-1.1,0.96-1.12
		c3.76-0.18,17.31-1.53,18.32-11.59c1.17-11.68,0.15-76.34,0.15-78.98c-0.37-3.69,1.66-12.49-8.81-11.08
		C332.65,369.54,332.68,368,332.68,368z"/>
	<path d="M383.25,370.56v20.57c0,1.34,1.09,2.43,2.44,2.42l111.71-0.95c1.23-0.01,2.23-1.01,2.23-2.25v-20.04
		c0-1.39-1.13-2.52-2.52-2.52h-111.1C384.48,367.8,383.25,369.03,383.25,370.56z"/>
	<path d="M428.14,395.95h26.96c1.05,0,1.9,0.85,1.9,1.9v82.56c0,1.78-2.18,12.29,12.09,12.49c-0.11,0.87,0,2.38,0,2.38H413.4v-3.86
		c0,0,13.17,1.48,13.37-8.64c0.18-9.23-0.22-73.9-0.29-85.17C426.47,396.7,427.22,395.95,428.14,395.95z"/>
	<path d="M511.53,368h81.55c0.59,0,1.07,0.5,1.07,1.11v18.14c0,0.55-0.43,1-0.97,1h-46.08c-0.7,0-1.27,0.59-1.27,1.31v84.85
		c0,0.64,0.51,1.16,1.13,1.15l48.29-0.71c0.78-0.01,1.41,0.64,1.41,1.44v17.85c0,0.62-0.49,1.13-1.09,1.13h-83.15l0.15-3.34
		c0,0,11.21,0.74,11.52-7.99c0.18-10.59,0.72-97.37,0.72-100.15c0-2.79,1.8-13.94-13.29-13.19V368z"/>
	<path d="M551.23,420.89h31.39c0.86,0,1.56,0.72,1.56,1.62v18.38c0,0.7-0.55,1.27-1.22,1.27h-32.03c-0.69,0-1.26-0.58-1.26-1.3
		V422.5C549.67,421.61,550.37,420.89,551.23,420.89z"/>
	<ellipse cx="202.18" cy="431.87" rx="46.07" ry="63.88"/>
	<path class="st0" d="M227.11,433.58c0,23.49-11.01,37.8-24.6,37.8s-24.6-14.3-24.6-37.8c0-23.49,11.01-37.63,24.6-37.63
		S227.11,410.08,227.11,433.58z"/>
	<path d="M307.9,368h-43.06v2.29c0,0,7.48-1.48,7.78,5.76c0.29,7.24,0,78.48,0,81.44s-0.3,26.92,16.73,34.72
		c12.17,5.27,24.85,3.5,28.41,3.56c0.4-0.04,0.71-0.42,0.71-0.87c0.05-3.94,0-17.74-0.01-21.74c0-0.61-0.42-1.1-0.96-1.12
		c-3.76-0.18-17.31-1.53-18.32-11.59c-1.17-11.68-0.15-76.34-0.15-78.98c0.37-3.69-1.66-12.49,8.81-11.08
		C307.92,369.54,307.9,368,307.9,368z"/>
</g>
</svg>
