<?xml version="1.0" encoding="utf-8"?>
<!-- Generator: Adobe Illustrator 23.0.2, SVG Export Plug-In . SVG Version: 6.00 Build 0)  -->
<svg version="1.1" id="Layer_1" xmlns="http://www.w3.org/2000/svg" xmlns:xlink="http://www.w3.org/1999/xlink" x="0px" y="0px"
	 viewBox="0 0 437.1 268.2" style="enable-background:new 0 0 437.1 268.2;" xml:space="preserve">
<style type="text/css">
	.st0{fill:#FFFFFF;}
	.st1{fill:#221F1F;}
	.st2{fill:#F68720;}
	.st3{fill:#0FA64B;}
</style>
<title>peregrine</title>
<g>
	<path class="st0" d="M200.1,43.9c46.6-10.4,101.9,10.3,103,80h121.3v137.4h-412V123.9H143c0-29.6,7.7-45.1,22-59.5"/>
	<path class="st1" d="M200.1,43.6c12.4-2.9,25.4-3.8,38.1-2c12.7,1.9,25.1,6.4,35.6,14.1c5.2,3.8,10,8.3,14,13.5
		c4,5.1,7.3,10.8,9.9,16.8c2.6,6,4.4,12.2,5.7,18.6c0.6,3.2,1.1,6.4,1.4,9.6c0.3,3.2,0.5,6.5,0.6,9.7l-2.2-2.2l121.3-0.9l3.1,0
		l0,3.1l0.2,34.3l0.1,17.2l0.1,17.2l0.3,68.7l0,3.8l-3.8,0c-34.3,0.2-68.7,0.1-103,0.2l-51.5,0.1l-51.5,0l-103-0.1l-103-0.4l-3.5,0
		l0-3.5l1-137.4l0-2.6l2.5,0l32.7,0.2c10.9,0.1,21.8,0.1,32.7,0.3l65.3,0.8l-1.2,1.2c0.1-5.5,0.4-11,1.2-16.5
		c0.8-5.5,1.9-10.9,3.8-16.1c1.9-5.2,4.4-10.2,7.5-14.7c3.1-4.5,6.8-8.7,10.7-12.5l0.3,0.3c-3.8,3.9-7.4,8-10.4,12.6
		c-3,4.5-5.4,9.5-7.1,14.6c-1.7,5.2-2.8,10.5-3.5,15.9c-0.7,5.4-0.9,10.9-0.9,16.3l0,0.3l-0.3,0l-130.6,0.1l0.3-0.3l0.1,137.4
		l-0.4-0.4l412,0l-0.4,0.4l0.1-137.4l0.3,0.3l-121.3,0l-0.3,0l0-0.3c-0.2-12.7-2.2-25.4-7.1-37.1c-2.4-5.9-5.6-11.4-9.4-16.4
		c-3.8-5-8.4-9.5-13.5-13.3c-10.2-7.6-22.4-12.2-34.9-14.2c-12.5-2-25.4-1.4-37.8,1.3L200.1,43.6z"/>
</g>
<g>
	<path class="st2" d="M50.4,139.6h15.1c2.8,0,5.2,0.4,7.3,1.1c2.1,0.7,4,2,5.7,3.9c1.7,1.8,2.9,4,3.6,6.5c0.7,2.5,1,5.8,1,10
		c0,3.1-0.2,5.8-0.5,8c-0.4,2.2-1.1,4.3-2.3,6.2c-1.4,2.3-3.2,4.1-5.5,5.4c-2.3,1.3-5.3,1.9-9.1,1.9h-5.1V210H50.4V139.6z M60.4,173
		h4.8c2,0,3.6-0.3,4.7-0.9c1.1-0.6,1.9-1.4,2.5-2.4c0.5-1,0.8-2.3,0.9-3.7c0.1-1.5,0.1-3.1,0.1-4.8c0-1.6,0-3.2-0.1-4.7
		c-0.1-1.5-0.4-2.8-0.9-3.9c-0.5-1.1-1.3-1.9-2.3-2.6c-1.1-0.6-2.6-0.9-4.6-0.9h-5.2V173z"/>
	<path class="st2" d="M90.6,139.6h30.1v9.5h-20v20.7h17.4v9.5h-17.4v20.7h20V210H90.6V139.6z"/>
	<path class="st2" d="M127.2,139.6h16.2c11.9,0,17.8,6.9,17.8,20.7c0,4.1-0.6,7.6-1.9,10.5c-1.3,2.9-3.5,5.3-6.8,7.1l10.9,32.2
		h-10.7l-9.4-30.1h-6V210h-10.1V139.6z M137.3,171h5.7c1.8,0,3.2-0.2,4.3-0.7c1.1-0.5,1.9-1.2,2.4-2.1c0.6-0.9,0.9-2.1,1.1-3.4
		c0.2-1.4,0.3-2.9,0.3-4.7c0-1.8-0.1-3.3-0.3-4.7c-0.2-1.4-0.6-2.5-1.2-3.5c-0.6-1-1.5-1.7-2.6-2.1c-1.1-0.5-2.6-0.7-4.5-0.7h-5.2
		V171z"/>
	<path class="st2" d="M169.4,139.6h30.1v9.5h-20v20.7h17.4v9.5h-17.4v20.7h20V210h-30.1V139.6z"/>
	<path class="st2" d="M205.4,156.2c0-2.8,0.5-5.3,1.5-7.5c1-2.2,2.3-4,3.9-5.4c1.6-1.4,3.4-2.5,5.4-3.2c2-0.7,4-1.1,6.1-1.1
		c2,0,4.1,0.4,6.1,1.1c2,0.7,3.8,1.8,5.4,3.2c1.6,1.4,2.9,3.2,3.9,5.4c1,2.2,1.5,4.7,1.5,7.5v3.6h-10.1v-3.6c0-2.4-0.7-4.2-2-5.4
		c-1.4-1.2-3-1.7-4.8-1.7c-1.8,0-3.4,0.6-4.8,1.7c-1.4,1.2-2,3-2,5.4v37.2c0,2.4,0.7,4.2,2,5.4c1.4,1.2,3,1.7,4.8,1.7
		c1.8,0,3.4-0.6,4.8-1.7c1.4-1.2,2-3,2-5.4v-13.3h-8v-8.9h18.1v22.2c0,2.9-0.5,5.4-1.5,7.6c-1,2.1-2.3,3.9-3.9,5.3
		c-1.6,1.4-3.4,2.5-5.4,3.2c-2,0.7-4,1.1-6.1,1.1c-2,0-4.1-0.4-6.1-1.1c-2-0.7-3.8-1.8-5.4-3.2c-1.6-1.4-2.9-3.2-3.9-5.3
		c-1-2.1-1.5-4.7-1.5-7.6V156.2z"/>
	<path class="st2" d="M248.2,139.6h16.2c11.9,0,17.8,6.9,17.8,20.7c0,4.1-0.6,7.6-1.9,10.5c-1.3,2.9-3.5,5.3-6.8,7.1l10.9,32.2
		h-10.7l-9.4-30.1h-6V210h-10.1V139.6z M258.2,171h5.7c1.8,0,3.2-0.2,4.3-0.7c1.1-0.5,1.9-1.2,2.4-2.1c0.6-0.9,0.9-2.1,1.1-3.4
		c0.2-1.4,0.3-2.9,0.3-4.7c0-1.8-0.1-3.3-0.3-4.7c-0.2-1.4-0.6-2.5-1.2-3.5c-0.6-1-1.5-1.7-2.6-2.1c-1.1-0.5-2.6-0.7-4.5-0.7h-5.2
		V171z"/>
	<path class="st2" d="M290.6,139.6h10.1V210h-10.1V139.6z"/>
	<path class="st2" d="M310.1,139.6h9.7L335,182h0.2v-42.4h10.1V210h-9.5l-15.4-42.4h-0.2V210h-10.1V139.6z"/>
	<path class="st2" d="M354.4,139.6h30.1v9.5h-20v20.7h17.4v9.5h-17.4v20.7h20V210h-30.1V139.6z"/>
</g>
<g>
	<g>
		<path class="st3" d="M86.6,246.3c-0.7-0.5-1.2-1.2-1.7-1.9c-0.4-0.8-0.8-1.6-1-2.5c-0.2-0.9-0.4-1.8-0.5-2.7
			c-0.1-0.9-0.1-1.8-0.1-2.7c0.2-0.6,0.5-1.2,0.8-1.8c0.3-0.5,0.6-1,1-1.5c0.4-0.5,0.8-0.9,1.2-1.4c0.4-0.4,0.8-0.9,1.2-1.3
			c0.1,0,0.3,0,0.4,0.1c0.1-0.3,0.2-0.5,0.4-0.7c0.2-0.2,0.4-0.4,0.6-0.5c0.2-0.2,0.4-0.3,0.6-0.5c0.2-0.2,0.4-0.3,0.5-0.5
			c0.6-0.1,1.1-0.3,1.6-0.6c0.5-0.3,0.9-0.5,1.3-0.8c0.4-0.3,0.9-0.6,1.3-0.8c0.4-0.3,1-0.5,1.6-0.6c0.2-0.2,0.5-0.4,0.8-0.6
			c0.3-0.2,0.6-0.3,1-0.5c0.3-0.1,0.6-0.3,0.9-0.5c0.3-0.2,0.5-0.4,0.7-0.7c0.1,0.2,0.3,0.3,0.6,0.2c0.3-0.1,0.5-0.1,0.7-0.2
			c0.1,0,0.3,0,0.4,0.1c0.1,0.1,0.2,0.1,0.3,0.2c0.1,0.1,0.2,0.1,0.2,0.2c0.1,0,0.1,0,0.2-0.2c0.2,0,0.2,0.1,0.2,0.2
			c-0.1,0.1-0.1,0.2-0.2,0.3c0.2,0,0.4,0,0.6,0.1c0.2,0.1,0.4,0.2,0.7,0.3c0.1,0.1,0.2,0.2,0.1,0.3c0,0.1-0.1,0.2-0.1,0.4
			c0.8,0.3,1.4,0.7,1.6,1.2c0.2,0.6,0.3,1.1,0.1,1.7c-0.2,0.6-0.5,1.2-1,1.7c-0.5,0.5-1.1,0.8-1.7,1c-0.7,0.2-1.4,0.4-2,0.6
			c-0.6,0.2-1.2,0.4-1.8,0.6c-0.6,0.2-1.1,0.5-1.6,0.8c-0.5,0.3-1,0.7-1.3,1.1c-0.7,0.2-1.3,0.4-1.8,0.8c-0.5,0.3-1,0.7-1.5,1.1
			c-0.5,0.4-0.9,0.8-1.3,1.3c-0.4,0.4-0.8,0.9-1.3,1.3c0,0.4-0.1,0.7-0.2,0.9c-0.1,0.2-0.3,0.4-0.5,0.6c0,0.4,0.1,0.8,0.3,1.2
			c0.2,0.3,0.3,0.6,0.5,1c1.9,0.6,3.9,0.9,6,1c2.1,0.1,4.2,0.2,6.3,0.2c0.2,0.3,0.5,0.5,0.7,0.8c0.3,0.2,0.5,0.5,0.7,0.8
			c0.2,0.3,0.4,0.6,0.5,0.9c0.1,0.3,0.2,0.7,0.1,1.2c-0.4,0.4-0.8,0.8-1.3,1.2c-0.5,0.4-0.9,0.7-1.4,1.1c-0.2,0-0.5,0-0.8,0
			c-0.3,0-0.6,0-0.9,0c-0.3,0-0.6,0-1,0.1c-0.3,0-0.6,0.1-0.9,0.2c-1.5,0-3-0.2-4.6-0.5c-1.6-0.3-3-0.7-4.3-1.2
			c-0.3-0.3-0.5-0.6-0.8-0.9C87.5,246.6,87.1,246.4,86.6,246.3z"/>
		<path class="st3" d="M158.9,246l0.5-0.4l0-0.7c0.6-1.4,1.2-2.8,1.8-4.1c0.6-1.3,1.3-2.7,2-4.1c0.2-0.4,0.4-0.9,0.7-1.3
			c0.2-0.4,0.4-0.9,0.7-1.4c0-0.1,0-0.2,0-0.3c0-0.1,0-0.2,0.1-0.4c0.3-0.5,0.6-0.9,0.8-1.3c0.2-0.4,0.4-0.8,0.6-1.2
			c0.2-0.5,0.4-0.9,0.7-1.4c0.2-0.5,0.6-0.9,0.9-1.4l0.2-0.4l0.4,0c0.1,0,0.2-0.1,0.3-0.1c0.1,0,0.2-0.1,0.4-0.1l0.6,0.1
			c0.8-0.4,1.5-0.9,2.1-1.5c0.6-0.7,1.2-1.5,1.8-2.4l0.4-0.6l0.6,0.4c0.1,0.1,0.3,0.1,0.6,0.2c0.3,0.1,0.5,0.2,0.8,0.2
			c0.5,0.1,1,0.3,1.5,0.4c0.5,0.2,0.8,0.4,1.1,0.6l0.2,0.3c0,0.3,0.1,0.5,0.1,0.7c0,0.2,0.1,0.4,0.1,0.6c0.1,0.5,0.2,1,0.2,1.5
			c0.1,0.5,0.1,1,0.1,1.6c0.1,0.5,0.2,0.9,0.3,1.4c0.1,0.5,0.2,1,0.3,1.4c0.1,0.7,0.2,1.3,0.4,2s0.3,1.2,0.6,1.8c0.2,0,0.4,0,0.4,0
			c0.3-0.1,0.6-0.2,1-0.2l0.5,0l0.1,0.4c0,0.1,0.1,0.1,0.2,0.2c0.1,0.1,0.2,0.1,0.2,0.2c0.4,0,0.7,0.1,0.8,0.2
			c0.2,0.1,0.3,0.3,0.4,0.4c0,0,0.1,0.1,0.2,0.2c0.1,0.1,0.1,0.1,0.2,0.1l0.6,0.2l-0.4,0.7c-0.3,0.5-0.7,1-1.2,1.5
			c-0.5,0.5-1.1,0.9-1.8,1.2c0,0.2,0.1,0.3,0.1,0.5c0,0.1,0,0.3,0.1,0.5c0.1,0.5,0.2,1,0.2,1.5c0.1,0.5,0.1,1,0,1.6
			c-0.2,0.6-0.5,1.2-0.8,1.6c-0.3,0.5-0.7,0.9-1.1,1.3c-0.4,0.4-0.9,0.7-1.5,1c-0.5,0.2-1.1,0.4-1.7,0.4c-0.3-0.1-0.6-0.2-0.7-0.2
			c-0.2-0.1-0.3-0.2-0.4-0.3c-0.2-0.1-0.3-0.2-0.5-0.3l-0.5-0.2l0.1-0.5c0.1-0.2,0.1-0.4,0-0.5s-0.3-0.3-0.5-0.6
			c-0.1-0.1-0.2-0.1-0.2-0.2c-0.1-0.1-0.2-0.2-0.2-0.3l-0.7-0.8l1.2-0.3c0.7-0.2,1.2-0.4,1.4-0.7c0.2-0.3,0.3-0.8,0.3-1.6
			c-0.6-0.1-1.1-0.1-1.5-0.1c-0.4,0.1-0.8,0.2-1.1,0.3c-0.5,0.1-1.1,0.3-1.6,0.4c-0.5,0.1-1.1,0.2-1.7,0.2c-0.4,0-0.8,0-1.3-0.1
			l-0.4,0l-0.1-0.4c0,0,0-0.1-0.1-0.2c-0.1-0.1-0.1-0.1-0.2-0.2c-0.1-0.1-0.3-0.3-0.4-0.6c-0.2-0.2-0.2-0.5-0.1-0.9
			c-0.2-0.3-0.3-0.5-0.3-0.8c-0.1,0.2-0.2,0.4-0.2,0.5c-0.1,0.2-0.1,0.3-0.2,0.5l-0.1,0.5l-0.5,0.1c0,0-0.1,0.1-0.1,0.2s0,0.2,0,0.2
			l0.1,0.4l-0.4,0.3c0,0.1-0.1,0.1-0.2,0.2c-0.1,0-0.1,0.1-0.2,0.1c0,0.3-0.1,0.5-0.2,0.7c-0.1,0.2-0.2,0.5-0.3,0.7
			c-0.1,0.4-0.2,0.7-0.3,1.1c-0.1,0.4-0.2,0.7-0.2,1.1l-0.1,0.5c-0.1,0.2-0.3,0.3-0.4,0.4c-0.2,0.1-0.3,0.2-0.5,0.2
			c-0.2,0.1-0.4,0.2-0.5,0.3l-0.1,0.5l-0.5,0.1c-0.3,0.1-0.5,0.1-0.7,0.1c-0.1,0-0.3,0-0.4,0l-0.5,0c-0.3-0.3-0.5-0.5-0.7-0.7
			c-0.2-0.2-0.4-0.3-0.6-0.4l-0.2-0.3c-0.1-0.2-0.2-0.4-0.2-0.5c0-0.2-0.1-0.3-0.1-0.5c0-0.3-0.1-0.5-0.2-0.6L158.9,246z
			 M170.2,236.8c-0.3,0.5-0.6,1-1,1.5c0.2,0,0.3,0,0.5,0c0.2,0,0.3,0,0.5,0c0.8,0,1.6-0.1,2.3-0.2c0.7-0.1,1.5-0.2,2.3-0.4
			c-0.2-0.9-0.4-1.8-0.6-2.7c-0.2-0.9-0.5-1.8-0.7-2.7l-0.2,0.4c-0.6,0.6-1.2,1.3-1.7,2.1C171.1,235.4,170.6,236.1,170.2,236.8
			L170.2,236.8z"/>
		<path class="st3" d="M241.3,242.2c-0.7-0.4-1.3-1-1.6-1.7c-0.4-0.7-0.6-1.4-0.6-2.1c0.1-0.6,0.2-1,0.4-1.3
			c0.2-0.3,0.5-0.6,0.8-0.8c0.3-0.2,0.6-0.4,1-0.5c0.3-0.1,0.6-0.2,1-0.3l0.5,0.2c0.1,0.1,0.2,0.2,0.4,0.3c0.1,0.1,0.3,0.2,0.4,0.3
			c0.2-0.1,0.4-0.2,0.4-0.4c0.1-0.2,0.1-0.4,0.2-0.6c0.1-0.3,0.2-0.5,0.2-0.8c0.1-0.3,0.2-0.5,0.4-0.8c0-0.2,0-0.4,0-0.6
			c0-0.2,0.1-0.3,0.1-0.4c-0.1-0.1-0.2-0.2-0.3-0.2c-0.1,0-0.2,0-0.3-0.1c-0.1,0-0.1,0-0.2,0c-0.1,0-0.2,0-0.2-0.1
			c-0.4-0.3-0.6-0.5-0.7-0.7c-0.1-0.2-0.2-0.4-0.3-0.5c-0.1-0.2-0.2-0.4-0.3-0.5c-0.1-0.1-0.2-0.3-0.3-0.4l-0.4-0.3l0.2-0.4
			c0,0,0.1-0.1,0.1-0.2c0-0.1,0-0.2-0.1-0.4c-0.1-0.3-0.1-0.5,0-0.7l0.1-0.4c0.2-0.3,0.4-0.5,0.4-0.5l0.4-0.4
			c0.5-0.1,1.1-0.3,1.7-0.5c0.6-0.2,1.1-0.4,1.7-0.5c0.5-0.2,1.1-0.4,1.7-0.6c0.6-0.2,1.1-0.4,1.7-0.5c0.2-0.2,0.4-0.3,0.6-0.3
			c0.2,0,0.4-0.1,0.6-0.1c0.2,0,0.3,0,0.5,0c0.1,0,0.2-0.1,0.3-0.2c0.4-0.1,0.8-0.3,1.2-0.4c0.7-0.2,1.6-0.4,2.8-0.7
			c1.2-0.3,2.5-0.4,3.9-0.6l0.7,0c0.1,0,0.3,0,0.4,0c0.1,0,0.3,0,0.4,0c1.2,0,2,0.4,2.4,1.1c0.2,0.1,0.4,0.3,0.6,0.4
			c0.2,0.2,0.4,0.3,0.5,0.5c0.1,0.1,0.2,0.2,0.3,0.3c0.1,0.1,0.2,0.1,0.2,0.2l0.3,0.3c0.3,0.6,0.3,1.1,0.1,1.7
			c-0.1,0.3-0.3,0.4-0.5,0.5s-0.3,0.1-0.5,0.1l-0.5,0.2c-0.3,0-0.5,0-0.7,0s-0.3,0-0.5,0c-0.7,0-1.5,0-2.5,0.1
			c-0.9,0.1-1.9,0.2-2.8,0.4c-1,0.2-1.9,0.3-2.8,0.6c-0.9,0.2-1.7,0.5-2.4,0.7c-0.2,0.1-0.4,0.3-0.7,0.4c-0.1,0-0.2,0.1-0.3,0.2
			c0,0.2,0,0.4,0,0.5c0,0.2-0.1,0.3-0.1,0.5c0,0.1,0,0.2-0.1,0.4c0,0.1,0,0.3-0.1,0.4c-0.5,0.6-0.7,1.3-0.7,2.1l-0.2,0.4
			c-0.1,0.1-0.2,0.2-0.2,0.4c-0.1,0.2-0.1,0.4,0,0.5l0.1,0.4c0.5,0,0.9-0.1,1.4-0.2c0.5-0.1,0.9-0.1,1.5-0.2c0.7-0.1,1.3-0.2,2-0.3
			c0.7-0.1,1.4-0.1,2.1-0.1h1.4l-0.3,0.3l0.4,0l-0.2,0.6c0.2,0.1,0.3,0.1,0.4,0.2c0.1,0,0.2,0.1,0.2,0.1l0.2,0.4
			c0.1,0.1,0.2,0.2,0.3,0.3c0.1,0.2,0.2,0.4,0.2,0.6l-0.1,0.4l-1.7,2.1l-0.2,0.3l-0.4-0.1c-0.4,0-0.9,0-1.3,0.1
			c-0.2,0-0.4,0.1-0.6,0.2c-0.2,0.1-0.4,0.1-0.6,0.1c-0.6,0.1-1,0.2-1.4,0.2c-0.4,0.1-0.8,0.1-1.1,0.2c-0.5,0.1-1,0.2-1.5,0.3
			c-0.5,0.1-0.9,0.2-1.4,0.4c-0.3,0-0.4,0-0.5,0c0,0-0.1,0-0.1,0c-0.2,0-0.5,0-0.7,0.1c-0.2,0.1-0.5,0.1-0.7,0.2
			c-0.1,0.1-0.2,0.2-0.3,0.4c0,0.1-0.1,0.3-0.1,0.4c0,0.2-0.1,0.3-0.2,0.5c-0.1,0.2-0.2,0.3-0.3,0.5l0,0.6c-0.2,0-0.3,0.1-0.3,0.1
			c0,0,0,0,0,0c0,0.2,0,0.4-0.1,0.5c-0.1,0.2-0.1,0.3-0.2,0.5c0,0.1-0.1,0.2-0.1,0.2c0,0.1,0,0.1,0,0.2c0.2,0.4,0.3,0.9,0.2,1.5
			c-0.1,0.4-0.3,0.8-0.5,1.2c-0.3,0.3-0.6,0.6-0.9,0.8c-0.4,0-0.7,0-0.8,0s-0.4-0.1-0.5-0.2c-0.1,0-0.2-0.1-0.4-0.1
			c-0.1,0-0.2-0.1-0.4-0.1l-0.4-0.4c-0.1-0.1-0.2-0.3-0.2-0.4s-0.2-0.3-0.3-0.4c-0.1-0.2-0.2-0.3-0.4-0.5c-0.1-0.2-0.2-0.4-0.3-0.6
			c-0.2-0.8-0.2-1.5-0.1-2.1c0.1-0.6,0.3-1.1,0.4-1.6c0-0.2,0.1-0.4,0.1-0.5C241.2,242.6,241.2,242.4,241.3,242.2z"/>
		<path class="st3" d="M316.9,248.2c-0.2-0.2-0.3-0.4-0.4-0.7c-0.1-0.3-0.3-0.5-0.6-0.6c0-0.4-0.1-0.8-0.2-1.2
			c-0.1-0.5-0.2-0.9-0.2-1.4c-0.1-0.5-0.1-1-0.2-1.5c0-0.5,0-0.9,0.1-1.3c0-0.2,0.1-0.4,0.2-0.6c0.1-0.2,0.2-0.4,0.3-0.5
			c0.1-0.2,0.2-0.4,0.2-0.5c0.1-0.2,0.1-0.4,0-0.6c0.1,0,0.2-0.1,0.3-0.2c0-0.1,0.1-0.2,0.3-0.1c0.2-0.5,0.3-1,0.5-1.5
			s0.4-0.9,0.6-1.3c0.2-0.4,0.4-0.9,0.7-1.3c0.2-0.4,0.4-0.9,0.6-1.5c-0.4-0.4-0.7-0.8-0.9-1.2c-0.2-0.4-0.3-0.9-0.4-1.3
			s-0.2-0.9-0.2-1.4c0-0.5-0.1-0.9-0.3-1.4c0.3-0.4,0.6-0.8,1-1c0.4-0.3,0.8-0.5,1.3-0.7c0.5-0.2,1-0.3,1.6-0.4
			c0.6-0.1,1.2-0.2,1.8-0.4c1.1-0.4,2.1-0.6,3-0.8c0.9-0.2,1.8-0.4,2.6-0.5s1.7-0.2,2.7-0.4c0.9-0.1,2-0.3,3.2-0.5
			c0,0.1,0.1,0.1,0.1,0.1c0.1,0,0.1,0,0.2,0c0.1,0.2,0.2,0.2,0.4,0.2c0-0.1,0-0.1,0-0.2c0-0.1,0-0.1,0-0.2c0,0,0.1,0,0.2,0
			c0.1,0,0.2,0,0.2,0.1c0.1,0,0.1,0,0.2,0c0,0,0.1-0.1,0-0.2c0.3,0.5,0.6,0.9,1.1,1.2c0.4,0.3,0.9,0.6,1.5,0.8c0,0.2,0,0.4,0,0.5
			c0,0.1,0,0.2-0.1,0.3s0,0.2,0,0.3s0,0.3,0.1,0.4c-0.4,0.6-0.8,1.1-1.3,1.5c-0.5,0.4-1,0.6-1.5,0.8c-0.5,0.2-1.1,0.3-1.7,0.4
			c-0.6,0.1-1.2,0.2-1.8,0.3c-0.6,0.1-1.3,0.3-1.9,0.4c-0.6,0.2-1.3,0.5-1.9,0.8c-0.2-0.1-0.4-0.1-0.5-0.1s-0.3,0-0.5,0.1
			c-0.2,0-0.3,0.1-0.5,0.1c-0.2,0-0.4,0-0.7,0c-0.2,0.2-0.4,0.3-0.7,0.4c-0.2,0.1-0.5,0.1-0.8,0.2c0.1,0.3,0.2,0.5,0.2,0.8
			c0,0.3,0,0.5,0.1,0.7c1,0.1,2.1,0.1,3.3,0c1.2-0.1,2.4-0.2,3.5-0.2c0,0.1,0,0.2,0,0.2c0,0-0.1,0.1-0.1,0.2
			c0.2,0.1,0.4,0.3,0.6,0.5c0.2,0.2,0.4,0.4,0.6,0.6c0.2,0.2,0.4,0.4,0.6,0.5c0.2,0.1,0.5,0.2,0.7,0.2c0.1,0.2,0.2,0.5,0.2,0.7
			c0,0.3,0,0.5-0.1,0.8c-0.5,0.3-0.9,0.6-1.4,0.9c-0.4,0.3-0.9,0.6-1.4,0.9c-0.5,0.3-1,0.5-1.6,0.6c-0.6,0.2-1.2,0.2-1.8,0.2
			c-0.1,0-0.2,0-0.3,0c-0.1,0-0.2,0-0.3-0.1c-0.2,0.1-0.5,0.2-0.9,0.1c-0.4,0-0.7,0-1,0.1c-0.3-0.1-0.7-0.2-1.2-0.2
			c-0.4,0-0.8-0.1-1.2-0.2c-0.4,0.6-0.8,1.3-1.2,1.9c-0.4,0.7-0.7,1.4-1,2.1c1,0.1,1.8,0.2,2.4,0.2c0.6,0,1.2-0.1,1.8-0.1
			c0.6-0.1,1.2-0.1,1.8-0.2c0.6-0.1,1.3-0.1,2.2-0.1c0.6-0.3,1.3-0.5,2-0.6c0.8-0.1,1.5-0.3,2.1-0.5c0.2,0.1,0.4,0.2,0.6,0.4
			c0.2,0.2,0.3,0.4,0.5,0.6c0.2,0.2,0.3,0.4,0.5,0.5c0.2,0.1,0.4,0.2,0.6,0.1c0.1,0.1,0.2,0.3,0.2,0.4c0,0.2,0.1,0.3,0.1,0.5
			c0,0.1,0.1,0.3,0.2,0.3c0.1,0.1,0.2,0.1,0.4,0.1c-0.4,0.9-0.9,1.6-1.5,2.1c-0.6,0.5-1.2,0.9-1.9,1.2c-0.7,0.3-1.5,0.5-2.3,0.6
			c-0.9,0.1-1.8,0.3-2.9,0.5c-0.3,0-0.5,0-0.7,0c-0.2-0.1-0.4-0.1-0.5-0.1c-0.7,0.1-1.4,0.2-2.4,0.4c-0.9,0.1-1.8,0.2-2.7,0.1
			c-0.9,0-1.8-0.1-2.7-0.4C318.2,249.1,317.5,248.7,316.9,248.2z"/>
	</g>
</g>
<g>
	<path d="M248,125.5c3.8-0.3,7.7-1.4,10.9-3.3c1.6-1,2.9-2.2,3.8-3.7c0.9-1.5,1.3-3.2,1.3-4.9c0-1.8-0.4-3.5-1-5.3
		c-0.6-1.7-1.5-3.4-2.4-5c-1.9-3.2-4.2-6.3-6.6-9.2c-2.4-2.9-5.1-5.6-7.9-8.2c-2.8-2.6-5.7-5.1-8.7-7.4c-6.1-4.6-12.4-8.9-19.1-12.6
		c-3.3-1.8-6.7-3.6-10.2-5.3c-0.9-0.4-1.7-0.8-2.6-1.2l-2.7-1.2c-0.9-0.4-1.8-0.8-2.7-1.3l-2.7-1.4c-3.5-2-6.9-4.2-10.2-6.5
		c-3.2-2.4-6.4-4.9-9.3-7.6c-2.9-2.7-5.7-5.6-8.3-8.6c-2.6-3-5.1-6.1-7.4-9.3c-2.3-3.2-4.5-6.5-6.5-9.9c-1-1.7-1.9-3.4-2.8-5.2
		c-0.9-1.8-1.7-3.5-2.5-5.3l0.3-0.2c1.8,3.4,3.9,6.7,6.1,10c2.2,3.2,4.5,6.4,7,9.4c4.9,6.1,10.3,11.7,16.2,16.8
		c5.9,5.1,12.3,9.6,19.1,13.3c3.4,1.8,7,3.3,10.6,5c3.5,1.6,7,3.4,10.4,5.4c6.8,3.9,13.3,8.2,19.4,13.2c6.1,4.9,11.7,10.4,16.6,16.6
		c2.4,3.1,4.6,6.4,6.4,9.8c1.7,3.5,3.2,7.3,3,11.3c-0.1,2-0.7,4-1.8,5.6c-1.1,1.7-2.7,2.9-4.4,3.9c-1.7,0.9-3.6,1.6-5.5,2
		c-1.9,0.4-3.9,0.7-5.8,0.7V125.5z"/>
	<path d="M158.1,15.1c0.1-0.1,0,0.1-0.1,0.1c0,0.1-0.1,0.2-0.1,0.3c-0.1,0.2-0.1,0.5-0.1,0.8c0,0.1,0,0.3-0.1,0.4l0,0.4
		c0,0.3,0,0.6,0,0.9c0.1,0.6,0.2,1.2,0.3,1.8l0.6,1.8l0.8,1.8c0.1,0.3,0.2,0.6,0.4,0.9l0.5,0.9l1,1.7c0.3,0.6,0.7,1.1,1.1,1.7
		c0.7,1.1,1.5,2.2,2.3,3.3c0.8,1.1,1.6,2.2,2.5,3.2c1.8,2,3.5,4.1,5.4,6l2.8,2.9c1,1,2,1.9,2.9,2.8l3,2.8c1,0.9,2,1.8,3.1,2.7
		c4,3.7,8.3,7,12.5,10.5c-4.4-3.3-8.8-6.5-13-9.9c-1.1-0.9-2.1-1.7-3.2-2.6l-3.1-2.7c-1-0.9-2.1-1.8-3.1-2.7l-3-2.8
		c-2-1.8-3.9-3.9-5.8-5.9c-0.9-1-1.8-2.1-2.7-3.1c-0.9-1-1.7-2.2-2.5-3.3c-0.4-0.6-0.8-1.1-1.2-1.7l-1.1-1.8l-0.5-0.9
		c-0.2-0.3-0.3-0.6-0.5-0.9l-0.9-1.9l-0.7-2.1c-0.2-0.7-0.3-1.5-0.5-2.2c-0.1-0.4-0.1-0.8-0.1-1.2l0-0.6c0-0.2,0-0.4,0-0.6
		c0-0.4,0.1-0.8,0.2-1.3c0.1-0.2,0.1-0.4,0.2-0.7c0.1-0.2,0.1-0.4,0.4-0.8L158.1,15.1z"/>
	<path d="M162.7,31c0,0,0.1-0.1,0.1-0.1c0,0,0,0,0,0c0,0,0,0,0,0C162.8,30.9,162.8,31,162.7,31c0,0.1,0,0.2,0,0.3l-0.1,0.3
		c0,0.2,0,0.5,0,0.7c0,0.1,0,0.2,0,0.4l0.1,0.4l0.1,0.8c0.1,0.3,0.2,0.5,0.2,0.8c0.2,0.5,0.3,1.1,0.6,1.6l0.7,1.6l0.9,1.6
		c0.5,1.1,1.3,2.1,1.9,3.1c0.6,1,1.4,2,2.2,3c0.7,1,1.5,2,2.3,2.9l2.4,2.9c0.8,0.9,1.7,1.8,2.5,2.8c0.9,0.9,1.7,1.9,2.6,2.8l2.7,2.7
		l2.7,2.7l2.8,2.6c3.6,3.5,7.5,6.8,11.2,10.1c-4-3.1-8-6.2-11.9-9.4l-2.9-2.4l-2.8-2.5l-2.8-2.5c-0.9-0.9-1.8-1.7-2.8-2.6
		c-0.9-0.9-1.8-1.7-2.7-2.7l-2.6-2.8c-0.9-0.9-1.7-1.9-2.5-2.9c-0.8-1-1.7-1.9-2.4-3c-0.8-1-1.6-2-2.3-3.2l-1.1-1.7l-0.9-1.8
		c-0.3-0.6-0.6-1.2-0.8-1.9c-0.1-0.3-0.3-0.6-0.4-1l-0.3-1.1l-0.1-0.5c0-0.2,0-0.4-0.1-0.6c0-0.4-0.1-0.8-0.1-1.2l0.1-0.6
		c0-0.2,0-0.4,0.1-0.7c0.1-0.2,0.1-0.5,0.2-0.7l0.2-0.4c0-0.1,0.1-0.1,0.1-0.2c0.1-0.1,0.2-0.2,0.2-0.3L162.7,31z"/>
	<path d="M171.9,50.7c0.1-0.1,0.1-0.1,0.2-0.2l0.1-0.1c0,0,0-0.1,0-0.1c0,0,0-0.1,0-0.1c0,0,0,0,0,0c0,0,0,0,0,0c0,0,0,0,0,0l0,0.1
		c0,0.1,0,0.3,0.1,0.5c0,0.4,0.3,1,0.4,1.5c0.2,0.5,0.5,1,0.7,1.6c0.3,0.5,0.6,1,0.9,1.6c0.3,0.5,0.6,1,1,1.5l1.1,1.5
		c0.7,1,1.5,2,2.3,3c1.6,1.9,3.2,3.9,5,5.8c0.9,0.9,1.7,1.9,2.6,2.8l2.7,2.7c1.8,1.9,3.6,3.6,5.4,5.4c1.8,1.8,3.7,3.5,5.5,5.3
		c3.7,3.5,7.5,6.9,11.3,10.4c-4-3.2-8-6.3-11.9-9.6c-2-1.6-4-3.3-5.9-5c-1.9-1.7-3.9-3.3-5.8-5.1l-2.8-2.6c-0.9-0.9-1.8-1.8-2.8-2.7
		c-1.9-1.8-3.6-3.7-5.4-5.6c-0.9-1-1.7-1.9-2.6-2.9l-1.2-1.6c-0.4-0.5-0.8-1-1.2-1.6c-0.4-0.6-0.8-1.1-1.1-1.7
		c-0.3-0.6-0.7-1.2-1-1.8c-0.3-0.7-0.6-1.3-0.8-2.2c0-0.2-0.1-0.4-0.1-0.6c0-0.2,0-0.5-0.1-0.7c0-0.2,0-0.6,0.1-0.9l0-0.2
		c0-0.1,0.1-0.2,0.1-0.3c0-0.1,0.1-0.2,0.1-0.3l0-0.1l0.1-0.1c0.1-0.1,0.2-0.2,0.2-0.3L171.9,50.7z"/>
	<path d="M195.3,79.9c0.1-0.2,0.2-0.4,0.1-0.5c0-0.1,0-0.1,0,0c0.1,0.2,0.2,0.5,0.4,0.8c0.4,0.6,0.9,1.3,1.5,2l3.4,4.1
		c2.3,2.8,4.5,5.7,6.4,8.8c1.9,3.1,3.5,6.4,4.6,9.9c0.3,0.9,0.5,1.7,0.8,2.5c0.3,0.8,0.6,1.6,1,2.4c0.8,1.6,1.7,3,2.7,4.4
		c2.1,2.8,4.8,5.1,7.7,6.9c3,1.8,6.3,3.1,9.7,3.9c6.9,1.6,14.1,1.3,21.1-0.2c-6.9,1.7-14.2,2.3-21.2,0.9c-3.5-0.7-7-1.9-10.1-3.6
		c-3.2-1.8-6-4.1-8.3-6.9c-1.1-1.4-2.2-3-3-4.6c-0.4-0.8-0.8-1.6-1.2-2.5l-1-2.5c-1.3-3.2-3-6.3-5-9.1c-2-2.9-4.3-5.5-6.7-8.1
		l-3.7-3.9c-0.6-0.7-1.2-1.4-1.9-2.2c-0.3-0.4-0.6-0.9-0.9-1.5c-0.1-0.3-0.3-0.7-0.3-1.3c0-0.5,0.1-1.2,0.5-1.8L195.3,79.9z"/>
</g>
</svg>
