<?xml version="1.0" encoding="utf-8"?>
<!-- Generator: Adobe Illustrator 23.0.1, SVG Export Plug-In . SVG Version: 6.00 Build 0)  -->
<svg version="1.1" id="Layer_1" xmlns="http://www.w3.org/2000/svg" xmlns:xlink="http://www.w3.org/1999/xlink" x="0px" y="0px"
	 viewBox="0 0 360 360" style="enable-background:new 0 0 360 360;" xml:space="preserve">
<g>
	<g>
		<path d="M44.78,216.92c-2.27,0.68-4.5,1.49-6.69,2.43c-13.21,5.76-18.88,13.56-16.53,14.37c-0.88,0.26-3.43-0.57-4.19-2.36
			c-0.88-2.16,3.34-5.82,8.41-8.9c2.86-3.61,5.77-10.08,8.09-15.31c-1.62,0.72-3.22,1.34-4.86,1.83c-7.23,2.18-14,1-15.61-2.68
			c-0.25-0.52-0.06-1.72,0.31-2.62c0.79-1.79,2.74-2.47,3.08-2.39c-0.68,0.48-1.35,1.46-1.16,2.23c0.73,2.9,6.92,5.34,14.7,3
			c0.76-0.23,1.54-0.51,2.36-0.85c0.73-0.31,1.42-0.61,2.14-0.96c5.13-12.82,9.94-28.97,17.41-31.41c2.38-0.76,4.72,0.14,5.19,2.93
			c1.42,7.46-6.92,20.73-18.88,28.32c-2.56,5.95-5.79,12.28-8.51,15.58c1.99-1.01,4.01-1.89,5.79-2.52
			c0.95-0.33,1.91-0.67,2.96-0.98c9.12-2.74,21.48-4.31,26.54-2.26C60.03,213.84,52.39,214.63,44.78,216.92z M39.72,201.76
			c12.17-8.61,16.46-22.83,15.01-26.29c-0.45-1.05-1.31-1.62-2.3-0.96C49.29,176.61,44.87,189.62,39.72,201.76z"/>
		<path d="M21.19,234.25c-1.28,0-3.52-0.92-4.29-2.71c-1.25-3.08,5.49-7.62,8.54-9.48c2.67-3.4,5.45-9.47,7.45-13.97
			c-1.31,0.54-2.54,0.99-3.74,1.34c-7.51,2.26-14.48,0.99-16.21-2.96c-0.37-0.77-0.02-2.23,0.31-3.01c0.85-1.93,3-2.84,3.66-2.69
			l1.09,0.25l-0.92,0.65c-0.56,0.39-1.09,1.19-0.96,1.7c0.2,0.78,0.91,1.56,2.01,2.18c2.28,1.29,6.65,2.09,12.06,0.46
			c0.73-0.22,1.5-0.5,2.31-0.83c0.66-0.28,1.29-0.55,1.94-0.87c0.83-2.09,1.66-4.27,2.49-6.46c4.28-11.29,8.71-22.95,15.15-25.05
			c1.46-0.47,2.86-0.36,3.94,0.3c1.01,0.61,1.67,1.66,1.9,3.02c1.5,7.91-7.35,21.31-18.98,28.74c-1.3,3-4.27,9.55-7.27,13.88
			c1.39-0.65,2.75-1.2,3.99-1.64c0.94-0.33,1.92-0.67,2.98-0.99c9.14-2.75,21.7-4.34,26.88-2.24l3.2,1.3l-3.44-0.33
			c-5.63-0.55-13.23,0.4-20.35,2.54l0,0c-2.24,0.67-4.48,1.49-6.64,2.41c-11.15,4.86-16.82,11.15-16.74,13.16
			c0.01,0.2,0.08,0.24,0.18,0.28l1.47,0.5l-1.49,0.45C21.56,234.23,21.39,234.25,21.19,234.25z M34.85,206.16l-0.53,1.18
			c-2.05,4.63-5.15,11.63-8.15,15.42l-0.13,0.12c-5.55,3.38-8.85,6.7-8.21,8.28c0.47,1.09,1.79,1.79,2.73,2.02
			c-0.01-0.06-0.01-0.12-0.02-0.18c-0.11-2.63,6.01-9.17,17.35-14.12c2.2-0.94,4.47-1.76,6.75-2.45l0,0
			c4.21-1.27,8.59-2.12,12.66-2.51c-5.64,0.18-12.67,1.45-18.37,3.16c-1.04,0.31-2.01,0.65-2.94,0.98c-1.75,0.62-3.73,1.48-5.73,2.5
			l-2.14,1.09l1.53-1.85c2.36-2.86,5.44-8.49,8.44-15.46l0.06-0.14l0.13-0.08c11.39-7.22,20.11-20.21,18.66-27.81
			c-0.18-1.08-0.68-1.89-1.43-2.34c-0.83-0.51-1.94-0.58-3.11-0.2c-5.99,1.95-10.33,13.39-14.52,24.46
			c-0.86,2.26-1.71,4.51-2.57,6.66l-0.07,0.18l-0.17,0.08c-0.73,0.36-1.42,0.66-2.16,0.98c-0.84,0.35-1.65,0.64-2.41,0.87
			c-5.72,1.72-10.38,0.84-12.84-0.55c-1.34-0.76-2.22-1.75-2.49-2.81c-0.09-0.36-0.04-0.75,0.09-1.12
			c-0.41,0.33-0.81,0.78-1.07,1.37c-0.36,0.86-0.47,1.89-0.32,2.2c1.51,3.44,8.1,4.5,15.01,2.42c1.51-0.45,3.08-1.04,4.8-1.81
			L34.85,206.16z M38.57,203.19l0.69-1.62c1.33-3.13,2.6-6.31,3.83-9.38c3.69-9.19,6.6-16.45,9.05-18.09
			c0.66-0.44,1.22-0.41,1.59-0.3c0.6,0.18,1.12,0.7,1.46,1.48c1.55,3.7-2.69,18.06-15.18,26.89L38.57,203.19z M53.26,174.73
			c-0.18,0-0.36,0.07-0.56,0.2c-2.19,1.46-5.34,9.31-8.68,17.63c-1.01,2.52-2.05,5.12-3.13,7.7c10.78-8.47,14.73-21.36,13.37-24.59
			c-0.21-0.48-0.51-0.82-0.82-0.91C53.39,174.74,53.33,174.73,53.26,174.73z"/>
	</g>
	<g>
		<path d="M61.68,179.04c0.69-2.05,1.39-3.77,2.15-4.96c0.45-0.71,0.88-1.23,1.25-1.36c2.28-0.92,4.77,0.91,3.82,0.73
			c-1.68-0.16-3.04,4.66-4.09,7.53c-1,2.9-1.86,5.93-2.89,9.67c-1.73,6.72-3.02,13.06-3.11,16.06c1.86-0.41,6.42-9.54,8.09-12.62
			c0.18-0.29,0.46-0.02,0.38,0.15c-1.23,3.02-5.85,13.06-8.03,14.83c-0.47,0.39-0.94,0.37-1.38,0.29c-0.39-0.05-1.6-0.61-2.07-1.15
			c-0.07-0.07-0.18-0.12-0.34-0.58c-0.43-1.25,0.1-5.93,2.43-15.59C59.08,187.13,60.49,182.61,61.68,179.04z"/>
		<path d="M58.33,209.91c-0.19,0-0.38-0.02-0.55-0.05c-0.46-0.06-1.8-0.66-2.36-1.31c-0.12-0.1-0.27-0.25-0.43-0.74
			c-0.69-2,0.94-9.74,2.42-15.87c0.97-4.01,2.21-8.27,3.8-13.04l0,0c0.77-2.29,1.49-3.95,2.2-5.07c0.58-0.92,1.05-1.41,1.51-1.56
			c1.88-0.77,4.02,0.17,4.52,0.74c0.28,0.32,0.15,0.61,0.1,0.69c-0.08,0.13-0.28,0.34-0.73,0.26c-0.97-0.09-2.3,3.71-3.01,5.75
			c-0.18,0.52-0.35,1.02-0.52,1.46c-1.02,2.96-1.91,6.12-2.88,9.63c-1.66,6.48-2.76,11.93-3.03,14.97c1.69-1.7,4.79-7.56,6.22-10.26
			c0.34-0.64,0.64-1.21,0.88-1.65c0.25-0.42,0.67-0.46,0.95-0.31c0.33,0.18,0.47,0.59,0.31,0.91c-1.11,2.73-5.83,13.1-8.16,15
			C59.15,209.8,58.72,209.91,58.33,209.91z M62.15,179.2c-1.58,4.74-2.81,8.98-3.78,12.96c-2.95,12.22-2.62,14.81-2.44,15.31
			c0.09,0.28,0.15,0.32,0.17,0.34l0.08,0.07c0.37,0.43,1.47,0.94,1.75,0.98c0.43,0.07,0.7,0.07,1-0.18
			c0.95-0.77,2.47-3.36,3.96-6.23c-1.72,2.89-3.02,4.54-3.97,4.75l-0.62,0.14l0.02-0.64c0.08-2.81,1.24-8.86,3.12-16.17
			c0.98-3.54,1.87-6.71,2.9-9.71c0.17-0.45,0.34-0.94,0.51-1.46c0.9-2.59,1.82-5.25,3.08-6.12c-0.66-0.26-1.67-0.46-2.67-0.06
			c-0.13,0.04-0.42,0.23-1.02,1.16C63.58,175.4,62.9,176.98,62.15,179.2L62.15,179.2z M66.81,194.05c-0.01,0.01-0.01,0.02-0.01,0.03
			C66.81,194.07,66.81,194.06,66.81,194.05z"/>
	</g>
	<g>
		<path d="M79.58,184.11c-7.49,2.66-11.18,19.67-8.51,19.84c2.65,0.13,6.22-8.59,7.49-13.79c-0.34-0.3-1.19-1.39-1.17-1.87
			c-0.02-0.46,0.78-2.14,1.3-2.37c0.4-0.19,0.97-0.02,1.1,0.08c1.24,1,2.57,1.6,4.18,0.89c2.68-1.23,3.64-3.39,4.11-3.51
			c0,0.65-1.17,2.6-2.96,3.99c-0.81,0.61-1.65,1-2.31,1.24c-0.62,0.22-1.06,0.28-1.3,0.28c0.84,5.9-5.61,14.89-10.08,16.2
			c-1.95,0.55-3.75-0.58-4.3-2.15c-2.4-6.74,4.27-16.7,10.8-19.02c1.57-0.56,2.4-0.34,2.77-0.19c0.25,0.05,0.13,0.09-0.04,0.15
			C80.23,183.97,79.87,184,79.58,184.11z"/>
		<path d="M70.41,205.72c-1.79,0-3.25-1.2-3.76-2.63c-1.15-3.24-0.39-7.47,2.1-11.59c2.3-3.82,5.75-6.91,9.01-8.07
			c1.26-0.45,2.28-0.51,3.12-0.19c0.34,0.06,0.45,0.3,0.46,0.49c0.03,0.41-0.34,0.54-0.5,0.6c-0.24,0.06-0.42,0.1-0.58,0.13
			c-0.19,0.04-0.36,0.07-0.5,0.12c-5.98,2.13-9.53,14.15-8.99,18.02c0.08,0.61,0.26,0.84,0.34,0.85c0.01,0,0.03,0,0.04,0
			c1.94,0,5.35-7.12,6.87-13.15c-0.41-0.46-1.15-1.41-1.12-2.03c-0.03-0.55,0.82-2.47,1.6-2.81c0.58-0.28,1.34-0.06,1.6,0.13
			c1.38,1.12,2.48,1.36,3.68,0.83c1.71-0.79,2.7-2,3.28-2.72c0.37-0.46,0.59-0.73,0.91-0.81l0.62-0.16v0.65
			c0,0.92-1.35,2.99-3.16,4.38c-0.91,0.69-1.83,1.09-2.45,1.31c-0.33,0.12-0.64,0.2-0.92,0.25c0.45,6.09-5.77,14.85-10.49,16.23
			C71.17,205.67,70.79,205.72,70.41,205.72z M77.66,184.54c-2.92,1.2-5.97,4.02-8.05,7.47c-2.33,3.87-3.06,7.78-2.01,10.74
			c0.46,1.29,1.97,2.33,3.7,1.84c4.36-1.27,10.49-10.23,9.72-15.65l-0.08-0.59l0.6,0.02c0.06,0.02,0.41,0,1.11-0.25
			c0.49-0.17,1.19-0.48,1.9-0.97c-0.12,0.06-0.24,0.12-0.36,0.18c-2.04,0.9-3.66-0.11-4.71-0.96c-0.06-0.02-0.4-0.09-0.57-0.01
			c-0.32,0.17-1.01,1.54-1.01,1.9c0.02,0.3,0.66,1.2,1.01,1.51l0.23,0.2l-0.07,0.29c-0.93,3.81-4.52,14.18-7.92,14.18
			c-0.03,0-0.05,0-0.08,0c-0.48-0.03-1.09-0.35-1.28-1.71C69.24,198.92,72.23,188.24,77.66,184.54z"/>
	</g>
	<g>
		<path d="M99.17,187.35c-1.78,5.16-4.1,19.3-4.89,24.76c1.64-5.67,5.65-13.32,6.71-14.13c0.21-0.07,0.3,0.17,0.3,0.17
			c-4.21,6.83-6.53,17.47-6.27,19.61c-0.05,0.11-0.2,0.21-0.41,0.29c-1.59,0.76-3.03-1.29-3.17-2.08c-0.32-1.28-0.11-3.41,0.01-5.41
			c0.45-5.48,2.12-18.45,5.54-27.23c-2.64,5.75-6.23,14.04-8.53,15.43c-0.12,0.04-0.25,0.09-0.33,0.12
			c-0.66,0.24-2.34-0.42-2.7-1.41c-0.64-1.77,0.13-6.76,1.31-10.87c0.67-2.53,1.7-5,2.43-6.2c0.13-0.28,0.37-0.41,0.49-0.46
			c0.99-0.36,3.14,0.69,3.53,1.76c0.06,0.17-0.14,0-0.48,0.08c-0.69,0.16-1.67,2.75-2.4,5.11c-1.12,3.48-1.84,7.85-1.41,9.04
			c1.68-1.54,4.56-6.77,5.81-9.37c1.43-2.89,3.37-7.6,4.99-10.24c0.17-0.3,0.32-0.4,0.53-0.47c0.95-0.34,3.15,0.73,3.53,1.76
			c0.06,0.16-0.18,0.02-0.48,0.08c-0.34,0.08-0.75,0.64-1.1,1.47C101.07,181.63,100.18,184.47,99.17,187.35z"/>
		<path d="M93.9,218.72c-0.35,0-0.71-0.09-1.07-0.27c-1.05-0.54-1.78-1.73-1.9-2.38c-0.29-1.13-0.17-2.83-0.06-4.62l0.06-0.91
			c0.37-4.55,1.42-12.67,3.29-20.05c-1.98,4.13-3.96,7.77-5.52,8.71l-0.42,0.16c-0.46,0.17-1.15,0.07-1.84-0.26
			c-0.75-0.35-1.29-0.88-1.5-1.45c-0.7-1.94,0.12-7.09,1.3-11.18c0.63-2.35,1.65-4.96,2.49-6.32c0.2-0.44,0.62-0.62,0.75-0.67
			c0.81-0.29,1.87,0.13,2.28,0.32c0.94,0.44,1.65,1.1,1.88,1.74l0.09,0.26l-0.17,0.28c-0.19,0.24-0.46,0.2-0.56,0.19
			c-0.07-0.01-0.13-0.01-0.2,0c0,0.01-0.68,0.39-2.04,4.77c-0.96,2.97-1.5,6.09-1.51,7.75c1.56-1.96,3.79-5.95,4.99-8.44
			c0.48-0.98,1.02-2.16,1.59-3.4c1.1-2.4,2.34-5.12,3.42-6.89c0.21-0.36,0.44-0.56,0.79-0.68c0.79-0.29,1.85,0.14,2.27,0.34
			c0.36,0.17,1.56,0.79,1.9,1.72l0.09,0.26l-0.17,0.28c-0.19,0.24-0.47,0.21-0.59,0.2c-0.07-0.01-0.13-0.01-0.19,0
			c-0.06,0.03-0.37,0.31-0.74,1.18c-0.8,1.82-1.5,3.84-2.23,5.98c-0.24,0.71-0.49,1.43-0.74,2.15c-1.32,3.82-2.98,12.86-4.07,19.51
			c1.86-4.49,4.23-8.77,5.12-9.44l0.13-0.07c0.44-0.16,0.81,0.13,0.93,0.47l0.08,0.23l-0.13,0.21c-4.25,6.91-6.44,17.37-6.2,19.29
			l0.02,0.14l-0.06,0.13c-0.11,0.24-0.34,0.42-0.69,0.54C94.5,218.66,94.2,218.72,93.9,218.72z M96.8,183.25l0.64,0.27
			c-3.28,8.44-5,21-5.5,27.09l-0.06,0.91c-0.11,1.64-0.22,3.33,0.04,4.34c0.08,0.41,0.65,1.33,1.38,1.71
			c0.38,0.2,0.74,0.21,1.1,0.04c0.04-0.02,0.08-0.03,0.11-0.04c-0.07-1.85,0.91-6.79,2.73-11.85c-0.95,2.11-1.85,4.42-2.47,6.54
			l-0.98-0.21c0.68-4.71,3.04-19.4,4.91-24.85l0,0c0.25-0.72,0.5-1.43,0.74-2.14c0.74-2.16,1.44-4.21,2.26-6.06
			c0.38-0.88,0.79-1.44,1.21-1.67c-0.26-0.24-0.62-0.48-1.02-0.67c-0.7-0.33-1.27-0.39-1.5-0.3c-0.09,0.03-0.15,0.05-0.27,0.25
			C99.07,178.29,97.87,180.91,96.8,183.25z M90.11,180.39c-0.12,0-0.22,0.02-0.29,0.04c-0.01,0-0.14,0.05-0.21,0.2
			c-0.67,1.1-1.69,3.45-2.4,6.11c-1.28,4.45-1.85,9.09-1.32,10.57c0.11,0.31,0.49,0.65,0.98,0.88c0.51,0.24,0.93,0.27,1.08,0.22
			l0.33-0.12c1.11-0.68,2.72-3.5,4.33-6.77c-1.14,1.95-2.41,3.9-3.39,4.8l-0.55,0.51l-0.25-0.71c-0.51-1.42,0.31-5.99,1.4-9.37
			c1.32-4.26,2.11-5.14,2.54-5.37c-0.25-0.25-0.61-0.49-1.01-0.68C90.84,180.48,90.41,180.39,90.11,180.39z"/>
	</g>
	<g>
		<path d="M117.19,170.61c1.15-4.88,2.5-9.22,3.54-12.72c0.71-2.07,1.4-3.8,2.1-4.98c0.44-0.72,0.86-1.24,1.24-1.37
			c2.27-0.95,4.78,0.86,3.87,0.67c-1.64-0.16-3.03,4.71-3.97,7.56c-1.01,2.92-1.84,5.97-2.79,9.7c-1.7,6.75-3.07,13.39-3.18,16.36
			c2.13-0.94,6.9-10.6,8.12-12.95c0.17-0.29,0.5-0.04,0.42,0.13c-1.19,2.94-5.83,13.35-7.93,14.93c-0.44,0.34-0.94,0.38-1.42,0.32
			c-0.79-0.14-2.01-0.68-2.34-1.59c-0.29-0.83-0.15-3.3,0.56-7.74c-1.04,1.67-6.73,12.64-8.89,13.4c-0.74,0.27-2.73-1.13-3.07-2.08
			c-0.79-2.23,1.05-8.85,4.42-13.26c2.44-3.24,4.78-5.56,7.26-6.44C115.91,170.28,116.68,170.33,117.19,170.61z M117.03,171.32
			c-0.6,0.03-1.22,0.25-1.74,0.62c-1.58,1.07-3.56,4.15-5.04,7.19c-2.47,4.84-3.7,10.17-3.3,10.25c0.6,0.11,5.59-6.83,8.93-12.77
			L117.03,171.32z"/>
		<path d="M106.3,192.87c-0.29,0-0.64-0.09-1.03-0.28c-0.9-0.43-2.01-1.36-2.3-2.17c-0.86-2.41,1.05-9.22,4.49-13.73
			c2.77-3.68,5.15-5.78,7.49-6.61c0.64-0.23,1.31-0.27,1.88-0.14c0.99-4.1,2.12-7.87,3.04-10.92l0.38-1.27
			c0.82-2.39,1.5-4.01,2.14-5.09c0.58-0.94,1.04-1.42,1.5-1.59c2.01-0.84,4.16,0.25,4.56,0.71c0.22,0.25,0.19,0.51,0.09,0.68
			c-0.08,0.13-0.27,0.34-0.72,0.25c-0.98-0.08-2.43,4.24-3.1,6.33l-0.29,0.9c-1,2.89-1.84,5.95-2.78,9.67
			c-1.63,6.47-2.76,12.07-3.08,15.14c2.02-2.17,5.42-8.82,6.64-11.21l0.45-0.87c0.23-0.38,0.63-0.5,0.98-0.32
			c0.34,0.18,0.48,0.57,0.33,0.89c-0.86,2.12-5.76,13.36-8.08,15.11c-0.47,0.37-1.05,0.51-1.78,0.42c-0.78-0.13-2.31-0.7-2.75-1.92
			c-0.11-0.3-0.4-1.12,0.15-5.35c-2.92,5.22-6.13,10.71-7.84,11.32C106.57,192.85,106.44,192.87,106.3,192.87z M116.16,170.87
			c-0.28,0-0.58,0.05-0.87,0.15c-2.15,0.76-4.38,2.76-7.03,6.27c-3.46,4.54-5.02,10.89-4.35,12.8c0.28,0.8,2.03,1.88,2.43,1.77
			c1.22-0.43,4.17-5.34,6.16-8.84c-2.28,3.48-4.85,6.97-5.65,6.85l-0.25-0.05l-0.15-0.27c-0.42-0.89,1.19-6.43,3.35-10.65
			c1.35-2.77,3.43-6.17,5.2-7.38c0.43-0.31,0.94-0.53,1.45-0.63C116.36,170.88,116.26,170.87,116.16,170.87z M116.38,171.94
			c-0.28,0.09-0.55,0.23-0.8,0.4c-1.34,0.91-3.25,3.66-4.88,7c-1.8,3.51-2.89,7.21-3.22,8.92c1.53-1.78,5.13-6.87,7.93-11.83
			L116.38,171.94z M116.2,177.07l-0.31,1.94c-0.87,5.49-0.74,7.05-0.58,7.5c0.24,0.68,1.29,1.15,1.95,1.27
			c0.44,0.05,0.77-0.01,1.03-0.22c0.95-0.72,2.57-3.59,4.13-6.72c-1.65,2.83-3.16,4.98-4.23,5.46l-0.73,0.32l0.03-0.8
			c0.1-2.77,1.29-8.93,3.19-16.46c0.96-3.74,1.8-6.83,2.81-9.74l0.29-0.89c1.04-3.2,1.97-5.8,3.16-6.69
			c-0.68-0.25-1.7-0.44-2.68-0.03c-0.12,0.04-0.42,0.23-1,1.17c-0.6,1.02-1.26,2.57-2.05,4.88l-0.38,1.26
			c-0.95,3.17-2.14,7.12-3.15,11.41l-0.16,0.7l-1.2,5.44C116.28,176.93,116.25,177,116.2,177.07z M126.07,172.84
			c0,0.01-0.01,0.02-0.01,0.03C126.06,172.86,126.06,172.85,126.07,172.84z"/>
	</g>
	<g>
		<path d="M166.47,164.55c-3.68,7.92-5.2,12.78-4.85,13.95c0.16,0.55,2.28-1.55,2.17-1.33c-0.64,1.7-2.66,3.04-3.5,3.29
			c-0.71,0.21-1.61-0.34-1.85-1.14c-1.61-5.38,12.31-37.25,10.53-43.23c-0.59-1.98-2.63-1.73-4.18-1.27
			c-11.77,3.52-25.25,29.07-24.46,31.72c0.15,0.5,0.69,0.62,1.07,0.5c0.42-0.12,1.58-0.7,1.96-0.95c0.11,0.38-2.11,2.14-3.07,2.43
			c-1.35,0.4-2.54-0.38-2.92-1.65c-2.02-6.77,14.54-29.35,27.11-33.11c3.99-1.19,6.74,0.18,7.77,3.63c1.19,4-2.76,16.21-6.09,25.45
			c8.05-17.2,16.48-28.06,18.38-28.62c1.35-0.4,3.92,0.25,4.63,1.87c-0.24-0.2-0.73-0.15-1.03-0.06c-1.68,0.5-7.68,19.06-9.23,29.78
			c4.28-16.94,19.37-37.71,22.19-38.56c1.43-0.43,4.07,1.21,4.53,2.13c-0.45-0.14-1.04,0.04-1.42,0.15
			c-3.78,1.13-14.4,27.66-11.52,37.29c1.21,4.04,3.46,5.15,7.92,3.68c3.96-1.32,9.27-5.93,11.56-8.82
			c-3.62,6.12-9.93,9.38-11.35,9.99c-0.45,0.18-0.86,0.35-1.28,0.47c-4.46,1.33-8.37-0.57-9.81-5.4
			c-2.43-8.11,2.11-23.12,4.64-27.68c-5.22,4.58-16.3,26.67-15.06,30.84c0.24,0.8-3.09,0.24-3.6-1.49
			c-1.27-4.25,3.52-23.63,5.78-27.7C176.58,145.64,170.51,156.15,166.47,164.55z"/>
		<path d="M159.97,181.01c-0.86,0-1.74-0.64-2.01-1.54c-0.83-2.77,2.05-11.61,5.1-20.96c2.95-9.07,6.3-19.35,5.43-22.26
			c-0.21-0.7-0.63-1.08-1.33-1.2c-0.57-0.09-1.32,0-2.23,0.27c-12.03,3.6-24.72,29.11-24.12,31.1c0.02,0.08,0.07,0.13,0.15,0.16
			c0.09,0.03,0.2,0.04,0.3,0.01c0.37-0.11,1.48-0.66,1.83-0.89l0.56-0.37l0.19,0.64c0.06,0.21,0.18,0.61-1.3,1.78
			c-0.63,0.5-1.51,1.09-2.11,1.27c-1.55,0.46-3.07-0.39-3.54-1.98c-1.23-4.13,3.63-12.35,8.17-18.14
			c6.31-8.04,13.51-13.87,19.28-15.6c4.21-1.26,7.26,0.19,8.4,3.97c0.79,2.64-0.37,8.68-3.55,18.39
			c6.61-12.6,13.18-21.28,15.22-21.89c1.53-0.46,4.4,0.24,5.24,2.14l0.85,1.94l-1.63-1.35c-0.06-0.03-0.31-0.04-0.56,0.03
			c-1.15,0.67-4.94,11.54-7.3,21.42c6.01-15.1,17.49-30.41,19.97-31.15c1.7-0.51,4.59,1.31,5.12,2.38l0.52,1.04l-1.11-0.34
			c-0.31-0.09-0.82,0.06-1.13,0.15c-1.44,0.43-4.88,6.34-7.93,15.14c-3.26,9.4-4.48,17.44-3.26,21.53c0.56,1.86,1.31,2.99,2.36,3.54
			c1.15,0.6,2.72,0.54,4.93-0.19c3.89-1.3,9.17-5.94,11.33-8.65l0.82,0.57c-4.1,6.93-11.51,10.16-11.58,10.19l-0.12,0.05
			c-0.42,0.17-0.81,0.33-1.21,0.45c-2.35,0.7-4.57,0.56-6.41-0.43c-1.89-1.01-3.28-2.84-4.02-5.31c-2.11-7.04,0.81-18.74,3.31-25.06
			c-5.61,7.3-13.77,24.56-12.77,27.93c0.08,0.26,0.02,0.51-0.16,0.7c-0.4,0.43-1.26,0.3-1.73,0.19c-1.07-0.25-2.33-0.94-2.67-2.09
			c-1.14-3.82,2.29-18.58,4.68-25.34c-4.58,5.54-9.69,14.71-12.97,21.52c-3.67,7.91-4.74,11.77-4.85,13.12
			c0.35-0.25,0.82-0.65,1.01-0.82c0.42-0.36,0.67-0.58,1.01-0.31l0.32,0.26l-0.2,0.38c-0.66,1.77-2.8,3.23-3.8,3.54
			C160.28,180.99,160.12,181.01,159.97,181.01z M166.67,134c0.23,0,0.44,0.02,0.64,0.05c1.07,0.18,1.81,0.83,2.13,1.9
			c0.96,3.21-2.15,12.76-5.44,22.86c-2.87,8.8-5.83,17.89-5.09,20.36c0.16,0.53,0.78,0.94,1.23,0.81c0.36-0.11,0.94-0.43,1.52-0.89
			c-0.03,0-0.06-0.01-0.1-0.02c-0.2-0.06-0.36-0.21-0.42-0.42c-0.43-1.45,1.39-6.79,4.88-14.31v-0.01
			c3.78-7.87,10.01-18.86,15.1-23.95l2.54-2.53l-1.75,3.13c-2.31,4.15-6.92,23.36-5.74,27.31c0.18,0.6,0.83,0.98,1.2,1.15
			c0.59,0.27,1.08,0.34,1.38,0.34c-0.14-0.86,0.06-2.2,0.52-3.85l-0.87-0.17c1.43-9.84,7.4-29.54,9.58-30.19
			c0.02-0.01,0.06-0.02,0.11-0.03c-0.94-0.78-2.54-1.08-3.43-0.82c-1.62,0.48-9.95,11.02-18.07,28.36l-0.92-0.38
			c6.14-17.04,6.69-23.08,6.08-25.14c-0.96-3.22-3.5-4.39-7.15-3.29c-5.57,1.67-12.59,7.37-18.78,15.26
			c-5.6,7.15-8.89,14.23-8,17.23c0.27,0.91,1.15,1.65,2.3,1.31c0.23-0.07,0.56-0.24,0.9-0.46c-0.15-0.01-0.3-0.04-0.44-0.09
			c-0.37-0.14-0.63-0.43-0.75-0.81c-0.86-2.86,12.55-28.69,24.79-32.35C165.41,134.12,166.08,134,166.67,134z M196.19,136.81
			l-1.4,2.52c-2.41,4.33-7,19.27-4.6,27.29c0.66,2.21,1.88,3.84,3.53,4.72c1.61,0.86,3.56,0.98,5.66,0.35
			c0.37-0.11,0.74-0.26,1.13-0.42l0.11-0.04c0.02-0.01,0.71-0.31,1.78-0.92c-0.56,0.28-1.12,0.51-1.65,0.69
			c-2.49,0.82-4.3,0.86-5.71,0.13c-1.31-0.68-2.21-2-2.85-4.14c-1.28-4.28-0.05-12.55,3.27-22.14c2.54-7.32,6.31-15.09,8.59-15.77
			c0.13-0.04,0.29-0.09,0.47-0.13c-0.89-0.7-2.43-1.45-3.29-1.19c-2.17,0.65-15.88,18.87-21.04,35.35
			c3.06-8.42,10.11-21.12,13.83-24.39L196.19,136.81z"/>
	</g>
	<g>
		<path d="M205.23,159.72c3.85-1.3,9.76-8.69,13.17-13c0.11-0.11,0.45-0.01,0.35,0.15c-2.91,4.29-9.46,13.88-14.78,15.06
			c-1.37,0.3-3.2-0.64-3.72-1.96c-0.12-0.33-0.21-0.76-0.2-1.3c-0.06-1.88,0.82-5.22,3.07-8.64c2.74-4.25,6.58-7.44,9.62-8.12
			c0.99-0.22,2.77,0.91,2.91,1.56c0.36,1.63-1.39,3.68-2.56,5.06c-0.07,0.1-0.3,0.07-0.24-0.08c0.53-0.84,1.54-4.61,1.13-4.84
			c-4.57,1.1-10.81,12.65-10.15,15.65C203.97,159.96,204.85,159.85,205.23,159.72z"/>
		<path d="M203.41,162.5c-1.49,0-3.1-0.99-3.63-2.34c-0.17-0.48-0.25-0.98-0.23-1.5c-0.06-1.79,0.74-5.23,3.15-8.9
			c2.8-4.34,6.7-7.61,9.93-8.33c0.81-0.18,1.76,0.3,2.13,0.51c0.29,0.16,1.23,0.75,1.38,1.43c0.42,1.87-1.43,4.04-2.66,5.48
			c-0.14,0.23-0.51,0.33-0.81,0.18c-0.28-0.14-0.4-0.46-0.29-0.75c0.42-0.68,1.06-2.97,1.18-3.99c-4.19,1.76-9.85,12.15-9.24,14.88
			c0.02,0.07,0.04,0.09,0.07,0.1c0.14,0.08,0.47,0.06,0.69-0.02l0,0c3.81-1.29,9.97-9.09,12.93-12.83c0.3-0.31,0.76-0.28,1.02-0.08
			c0.25,0.2,0.31,0.54,0.14,0.8c-2.86,4.21-9.54,14.05-15.09,15.28C203.86,162.47,203.63,162.5,203.41,162.5z M213.02,142.38
			c-0.06,0-0.12,0.01-0.18,0.02c-2.94,0.65-6.68,3.83-9.31,7.9c-2.14,3.26-3.05,6.54-2.99,8.35c-0.01,0.43,0.04,0.8,0.17,1.15
			c0.42,1.06,2.01,1.9,3.14,1.64c2.72-0.6,5.82-3.56,8.55-6.82c-2.59,2.78-5.02,4.89-7.02,5.57l0,0c-0.4,0.14-1.04,0.2-1.5-0.06
			c-0.29-0.16-0.48-0.43-0.55-0.76c-0.74-3.32,5.73-15.09,10.52-16.25l0.19-0.05l0.17,0.09c0.11,0.06,0.25,0.18,0.32,0.43
			c0.12,0.48-0.1,1.69-0.42,2.84c0.7-0.99,1.23-2.04,1.05-2.87C215.06,143.24,213.79,142.38,213.02,142.38z M212.73,148.19
			c-0.03,0.02-0.05,0.05-0.07,0.08C212.68,148.24,212.71,148.22,212.73,148.19z"/>
	</g>
	<g>
		<path d="M272.62,124.84c-16.45,12.24-29.83,31.77-29.53,34.3c0.07,0.57,2.52-1.14,2.36-0.94c-0.96,1.57-3.19,2.54-4.02,2.64
			c-0.78,0.09-1.53-0.61-1.63-1.44c-0.66-5.58,18.4-34.22,17.67-40.41c-0.24-2.05-2.33-2.15-3.95-1.96
			c-12.25,1.45-29.83,24.3-29.5,27.05c0.06,0.52,0.53,0.73,0.92,0.69c0.44-0.05,1.67-0.42,2.09-0.6c0.05,0.39-2.44,1.75-3.49,1.87
			c-1.35,0.16-2.35-0.83-2.51-2.13c-0.83-7.02,19.37-26.42,32.36-27.96c4.14-0.49,6.61,1.34,7.03,4.91
			c0.57,4.84-7.71,19.65-12.72,28.11c8.73-13.59,27.14-30.17,30.67-30.59c1.18-0.14,3.78,2.03,3.82,3.17
			c-0.37-0.49-0.93-0.42-1.19-0.39c-2.62,0.31-12.09,16.24-15.67,26.29c-1.16,3.28-1.8,6.45-1.55,8.54c0.44,3.75,3.13,4.4,6.75,3.97
			c0.44-0.05,0.87-0.1,1.3-0.2c5.03-0.86,9.62-4.63,12.04-6.2c-3.79,4.16-9.98,6.79-12.4,7.26c-0.47,0.1-0.95,0.16-1.39,0.21
			c-4.71,0.56-8.5-0.89-9.1-5.91c-0.41-3.44,0.66-8.25,2.52-13.07C265.88,135.85,269.55,129.09,272.62,124.84z"/>
		<path d="M268.28,161.64c-1.79,0-3.31-0.35-4.52-1.04c-1.86-1.06-2.95-2.88-3.25-5.42c-0.39-3.31,0.51-8.04,2.55-13.31
			c1.87-4.92,4.64-10.4,7.4-14.72c-14.46,11.61-25.78,27.99-26.79,31.46c0.39-0.19,0.91-0.5,1.13-0.62
			c0.48-0.28,0.77-0.45,1.05-0.13l0.27,0.31l-0.26,0.34c-1,1.64-3.34,2.71-4.35,2.83c-0.52,0.06-1.05-0.12-1.47-0.5
			c-0.4-0.36-0.66-0.86-0.72-1.38c-0.34-2.87,3.98-11,8.56-19.6c4.44-8.34,9.47-17.79,9.11-20.81c-0.06-0.47-0.22-1.9-3.39-1.53
			c-12.45,1.48-29.31,24.43-29.07,26.49c0.03,0.28,0.33,0.25,0.37,0.25c0.38-0.04,1.57-0.4,1.95-0.56l0.62-0.27l0.08,0.67
			c0.12,0.99-3.19,2.34-3.93,2.43c-0.78,0.1-1.52-0.13-2.09-0.64c-0.53-0.47-0.88-1.16-0.97-1.93c-0.51-4.27,5.69-11.54,11.16-16.46
			c7.59-6.84,15.68-11.35,21.64-12.05c4.35-0.52,7.13,1.43,7.59,5.35c0.42,3.58-3.64,12.16-8.31,20.62
			c9.28-11.48,22.41-23.14,25.71-23.54c1.04-0.13,2.4,0.95,2.79,1.28c0.47,0.4,1.55,1.42,1.59,2.36l0.07,1.6l-0.96-1.28
			c-0.18-0.24-0.46-0.23-0.74-0.19c-2.22,0.26-11.56,15.57-15.26,25.96c-1.2,3.38-1.75,6.41-1.53,8.31
			c0.19,1.59,0.81,2.63,1.91,3.16c0.97,0.48,2.38,0.6,4.28,0.37c0.45-0.05,0.85-0.1,1.25-0.19c4.05-0.69,7.87-3.35,10.39-5.11
			c0.56-0.39,1.06-0.74,1.49-1.02l3.25-2.1l-2.61,2.86c-3.89,4.27-10.17,6.93-12.67,7.41c-0.47,0.1-0.96,0.16-1.4,0.21
			C269.52,161.6,268.88,161.64,268.28,161.64z M274.94,122.5l-1.91,2.64c-3.25,4.49-6.79,11.2-9.04,17.09
			c-1.98,5.12-2.86,9.68-2.49,12.83c0.26,2.2,1.19,3.77,2.76,4.67c1.43,0.82,3.38,1.09,5.78,0.8c0.27-0.03,0.55-0.07,0.83-0.11
			c-0.07,0.01-0.15,0.02-0.22,0.03c-2.18,0.26-3.72,0.11-4.88-0.46c-1.4-0.69-2.23-2.02-2.46-3.94c-0.25-2.08,0.31-5.19,1.58-8.76
			c3.49-9.81,13.04-26.26,16.08-26.62c0.06-0.01,0.14-0.02,0.24-0.02c-0.19-0.23-0.43-0.47-0.72-0.72c-0.87-0.74-1.67-1.1-2.02-1.05
			c-3.39,0.4-21.63,16.85-30.31,30.36l-0.85-0.53c8.57-14.47,13.06-24.34,12.65-27.8c-0.4-3.33-2.7-4.93-6.48-4.48
			c-5.76,0.68-13.64,5.09-21.08,11.8c-6.75,6.08-11.2,12.5-10.83,15.6c0.06,0.53,0.29,0.99,0.64,1.3c0.36,0.32,0.8,0.45,1.31,0.39
			c0.27-0.03,0.63-0.15,1.01-0.31c-0.47-0.12-0.89-0.48-0.97-1.09c-0.35-2.97,17.27-26.1,29.94-27.6c3.44-0.41,4.34,1.08,4.5,2.4
			c0.39,3.33-4.28,12.11-9.22,21.4c-4.3,8.09-8.75,16.45-8.45,19.01c0.03,0.28,0.18,0.56,0.4,0.76c0.21,0.19,0.44,0.28,0.68,0.25
			c0.33-0.04,0.96-0.26,1.62-0.63c-0.02-0.01-0.05-0.02-0.07-0.03c-0.19-0.09-0.31-0.27-0.34-0.49
			c-0.33-2.76,12.97-22.28,29.73-34.76L274.94,122.5z"/>
	</g>
	<g>
		<path d="M280.59,149.33c-0.05,0.53,0.34,0.84,1.3,0.85c3.2,0.05,11.33-5.92,15.82-9.53c0.13-0.09,0.44,0.14,0.3,0.27
			c-3.34,3.02-12.21,11.26-18.04,11.16c-1.36-0.02-3.09-1.63-3.07-2.81c0.02-1.05,0.29-1.93,0.66-2.89
			c1.09-2.48,3.38-5.21,6.18-7.49c3.69-2.97,7.62-4.27,9.5-4.24c0.66,0.01,2.66,1.05,2.64,2.28c-0.04,2.72-8.57,8.9-13.49,8.96
			C281.59,146.8,280.74,148.19,280.59,149.33z M282.98,145.03c3.82-0.38,11.22-7.37,11.51-9.03
			C289.6,137.5,284.47,142.73,282.98,145.03z"/>
		<path d="M280.07,152.59c-0.04,0-0.07,0-0.11,0c-1.62-0.03-3.59-1.86-3.56-3.32c0.02-1.08,0.28-1.97,0.69-3.06
			c1.12-2.53,3.42-5.33,6.33-7.7c3.57-2.87,7.58-4.35,9.75-4.35c0.03,0,0.05,0,0.08,0c0.92,0.02,3.16,1.24,3.13,2.79
			c-0.05,3.4-9.26,9.2-13.75,9.44c-0.7,0.84-1.42,2.04-1.55,3c-0.01,0.09,0.01,0.11,0.02,0.12c0.02,0.03,0.18,0.17,0.79,0.18
			c0.01,0,0.02,0,0.04,0c2.77,0,10.05-5.07,15.47-9.42c0.37-0.24,0.79-0.09,1,0.18c0.21,0.26,0.19,0.62-0.04,0.84l-0.4,0.36
			C294.34,144.93,285.89,152.59,280.07,152.59z M293.17,135.16c-1.95,0-5.77,1.43-9.12,4.13c-2.79,2.27-4.99,4.93-6.03,7.3
			c-0.37,0.96-0.6,1.76-0.62,2.69c-0.01,0.86,1.43,2.29,2.58,2.31c3.13,0.05,7.16-2.4,10.72-5.11c-3.32,2.24-6.81,4.23-8.82,4.21
			c-0.73-0.01-1.23-0.18-1.52-0.51c-0.15-0.17-0.31-0.46-0.27-0.89v-0.02c0.17-1.32,1.15-2.82,1.93-3.71l0.07-0.07l0.47-0.73
			c1.51-2.35,6.63-7.6,11.66-9.2c-0.4-0.24-0.8-0.4-0.99-0.4C293.22,135.16,293.2,135.16,293.17,135.16z M294.98,136.14
			c-0.39,1.66-5.72,6.84-9.77,8.72c4.66-1.56,10.15-6.07,10.18-7.92C295.39,136.66,295.22,136.39,294.98,136.14z M293.42,136.93
			c-3.63,1.56-7.33,4.96-9.21,7.29C287.39,143.04,291.82,139,293.42,136.93z"/>
	</g>
	<g>
		<path d="M309.88,145.05c-1.45,1.17-10.73,7.61-12.57,7.41c-0.09-0.01-0.3-0.12-0.38-0.17c-0.75-0.47-1.71-2.25-1.61-3.13
			c0.5-4.76,11.53-13.44,19.56-12.59c1.66,0.18,3.77,1.1,3.55,3.16c-0.08,0.74-0.55,1.44-1.05,1.96c-0.09,0.03-0.17-0.02-0.13-0.06
			c0.26-0.37,0.58-0.87,0.65-1.52c0.14-1.31-0.62-2.05-1.94-2.1c-2.55-0.14-5.93,1.36-9.02,3.46c-4.52,3.1-8.38,8.25-8,8.51
			c0.08,0.05,0.17,0.06,0.31,0.03c1.49-0.33,8.07-4.09,10.54-5.77c0.86-0.62,3.99-3.07,5.14-3.56c0.92-0.34,2.15,2.21,1.92,2.72
			c-0.17-0.46-4.6,3.88-6.21,6.54c-0.33,0.58-0.56,1.09-0.59,1.44c2.83-0.5,9.71-5.82,12.68-8.06c0.24-0.19,0.42,0.18,0.28,0.29
			c-4.24,3.75-12.12,10.28-14.74,10.01c-0.22-0.02-0.43-0.13-0.71-0.34c-0.58-0.41-1.31-1.42-1.22-2.2
			c0.05-0.44,0.28-0.94,0.52-1.58C307.54,147.94,308.93,146.05,309.88,145.05z"/>
		<path d="M308.41,154.12c-0.07,0-0.13,0-0.2-0.01c-0.37-0.04-0.68-0.23-0.95-0.43c-0.64-0.46-1.54-1.63-1.43-2.66
			c0.04-0.42,0.21-0.85,0.41-1.35l0.14-0.35c0.27-0.61,0.64-1.27,1.05-1.9c-3.32,2.29-8.61,5.71-10.18,5.55
			c-0.24-0.03-0.56-0.23-0.6-0.25c-0.86-0.55-1.96-2.5-1.84-3.6c0.52-4.95,11.76-13.92,20.11-13.04c2.16,0.23,4.23,1.46,4,3.71
			c-0.1,0.95-0.7,1.75-1.18,2.26l-0.19,0.12c-0.16,0.06-0.32,0.06-0.46,0c0.24,0.56,0.35,1.11,0.2,1.44l-0.5,1.1l-0.24-0.64
			c-1.12,0.85-4.19,3.98-5.49,6.14c-0.09,0.16-0.16,0.3-0.23,0.43c2.9-1.13,8.27-5.2,10.99-7.26l0.59-0.45
			c0.19-0.16,0.45-0.2,0.67-0.11c0.24,0.09,0.41,0.31,0.45,0.57c0.04,0.24-0.05,0.48-0.23,0.62
			C319.01,147.81,311.42,154.12,308.41,154.12z M309.75,144.86l0.49,0.53c-0.94,1-2.29,2.85-2.94,4.31l-0.13,0.34
			c-0.17,0.43-0.32,0.81-0.35,1.09c-0.05,0.52,0.51,1.38,1.02,1.74c0.23,0.16,0.37,0.24,0.48,0.25c1.08,0.11,3.6-1.29,7.05-3.87
			c-2.06,1.34-3.99,2.4-5.24,2.62l-0.65,0.11l0.07-0.66c0.04-0.39,0.25-0.91,0.66-1.63c1.12-1.86,4.66-5.81,6.16-6.66
			c-0.1-0.37-0.45-1.19-0.93-1.66c-0.19-0.19-0.3-0.22-0.33-0.22l0,0c-0.82,0.35-2.91,1.92-4.16,2.86
			c-0.37,0.28-0.68,0.51-0.87,0.64C309.98,144.72,309.87,144.79,309.75,144.86z M313.76,137.01c-7.6,0-17.49,7.9-17.94,12.2
			c-0.07,0.65,0.77,2.26,1.38,2.65c0.06,0.04,0.17,0.09,0.21,0.11c0.99,0.12,5.65-2.78,8.97-5.04c-2.77,1.62-5.97,3.34-7.02,3.57
			c-0.17,0.04-0.42,0.07-0.68-0.1l-0.23-0.15l-0.02-0.34c0-1.01,4.15-6.05,8.25-8.86c2.06-1.4,6.02-3.72,9.33-3.55
			c0.23,0.01,0.44,0.04,0.65,0.08c-0.59-0.31-1.28-0.47-1.81-0.53C314.47,137.03,314.12,137.01,313.76,137.01z M315.65,138.5
			c-2.2,0-5.24,1.22-8.42,3.38c-3.47,2.38-6.42,5.89-7.44,7.41c2.17-0.9,7.49-3.96,9.72-5.47c0.18-0.13,0.48-0.35,0.84-0.62
			c1.37-1.03,3.43-2.57,4.39-2.98c0.35-0.13,0.87-0.14,1.48,0.51c0.17,0.18,0.35,0.43,0.51,0.7l0.15-0.13
			c0.23-0.33,0.47-0.73,0.52-1.24c0.05-0.47-0.04-0.84-0.26-1.09c-0.3-0.35-0.82-0.44-1.2-0.46
			C315.85,138.5,315.75,138.5,315.65,138.5z M323.04,143.7L323.04,143.7C323.04,143.71,323.04,143.7,323.04,143.7z M322.68,143.23
			c-0.01,0.01-0.01,0.01-0.02,0.02C322.66,143.24,322.67,143.24,322.68,143.23z"/>
	</g>
	<g>
		<path d="M339.9,130.86c1.62-1.43,3.09-2.57,4.34-3.22c0.75-0.39,1.37-0.63,1.76-0.55c2.44,0.34,3.67,3.18,2.95,2.54
			c-1.37-0.98-4.96,2.52-7.31,4.48c-2.32,2.01-4.58,4.21-7.34,6.93c-4.86,4.96-9.16,9.8-10.73,12.35
			c1.81,0.58,10.33-5.05,13.33-6.88c0.3-0.17,0.41,0.21,0.25,0.32c-2.58,2-11.61,8.38-14.38,8.82c-0.6,0.11-1-0.15-1.34-0.44
			c-0.31-0.24-1.08-1.33-1.21-2.02c-0.03-0.1-0.1-0.2,0-0.67c0.25-1.29,3.05-5.08,9.91-12.29
			C333.6,136.56,337.08,133.35,339.9,130.86z"/>
		<path d="M322.48,156.17c-0.6,0-1.04-0.29-1.39-0.58c-0.37-0.28-1.22-1.47-1.38-2.31c-0.05-0.15-0.1-0.36,0-0.86
			c0.4-2.08,5.68-7.96,10.04-12.54c2.86-3,6.07-6.07,9.82-9.39l0,0c1.82-1.6,3.27-2.68,4.44-3.29c0.97-0.51,1.62-0.69,2.09-0.6
			c2.01,0.28,3.4,2.16,3.54,2.91c0.08,0.42-0.18,0.6-0.26,0.65c-0.13,0.08-0.41,0.16-0.76-0.14c-0.8-0.56-3.84,2.06-5.48,3.47
			c-0.42,0.36-0.82,0.71-1.19,1.01c-2.36,2.05-4.71,4.34-7.31,6.9c-4.68,4.78-8.37,8.95-10.12,11.45c2.31-0.63,7.93-4.15,10.52-5.78
			c0.62-0.39,1.16-0.72,1.58-0.99c0.42-0.23,0.81-0.07,0.98,0.21c0.2,0.32,0.11,0.75-0.18,0.95c-2.33,1.81-11.61,8.43-14.58,8.9
			C322.72,156.16,322.6,156.17,322.48,156.17z M340.23,131.23c-3.73,3.3-6.92,6.36-9.76,9.33c-8.67,9.1-9.68,11.52-9.78,12.04
			c-0.06,0.29-0.04,0.35-0.02,0.38l0.03,0.1c0.11,0.56,0.8,1.55,1.03,1.72c0.33,0.28,0.57,0.41,0.95,0.35
			c1.21-0.19,3.83-1.68,6.55-3.42c-2.94,1.64-4.89,2.43-5.81,2.13l-0.61-0.19l0.33-0.54c1.47-2.4,5.51-7.05,10.8-12.44
			c2.62-2.58,4.99-4.89,7.38-6.96c0.37-0.31,0.77-0.65,1.18-1.01c2.07-1.79,4.2-3.63,5.73-3.76c-0.45-0.56-1.22-1.23-2.28-1.38
			c-0.13-0.02-0.48-0.02-1.46,0.5C343.37,128.66,341.98,129.69,340.23,131.23L340.23,131.23z M336.83,146.43
			c-0.01,0.01-0.02,0.01-0.03,0.02C336.82,146.44,336.83,146.44,336.83,146.43z"/>
	</g>
</g>
<path d="M16.24,254.52c13.49-2.2,26.71-5.74,39.59-10.2c12.88-4.46,25.42-9.88,37.77-15.69c24.74-11.53,48.99-24.37,74.42-34.93
	c12.69-5.32,25.63-10.14,38.81-14.26c13.19-4.11,26.7-7.25,40.36-9.34c3.4-0.6,6.85-0.93,10.27-1.39c1.71-0.21,3.42-0.45,5.14-0.63
	l5.16-0.46c6.87-0.64,13.77-0.94,20.65-1.16c13.78-0.28,27.54,0.35,41.19,1.8c0.19,0.02,0.33,0.19,0.31,0.39
	c-0.02,0.18-0.16,0.31-0.33,0.31h-0.01c-13.7,0.56-27.33,1.17-40.88,2.42c-6.76,0.77-13.53,1.34-20.24,2.38l-5.04,0.67
	c-1.68,0.24-3.35,0.54-5.02,0.81c-3.34,0.58-6.7,1.03-10.01,1.75c-13.33,2.45-26.53,5.48-39.6,9.09
	c-13.08,3.56-25.97,7.9-38.66,12.81c-25.41,9.79-49.93,21.98-75.08,32.93c-12.59,5.43-25.4,10.48-38.52,14.55l-4.92,1.52l-4.97,1.35
	c-3.3,0.95-6.66,1.69-10,2.47l-2.51,0.57l-2.53,0.47l-5.06,0.95c-3.38,0.58-6.79,1-10.17,1.51c-0.19,0.03-0.37-0.1-0.4-0.29
	c-0.03-0.19,0.1-0.37,0.29-0.4L16.24,254.52z"/>
</svg>
