<?xml version="1.0" encoding="utf-8"?>
<!-- Generator: Adobe Illustrator 23.0.1, SVG Export Plug-In . SVG Version: 6.00 Build 0)  -->
<svg version="1.1" xmlns="http://www.w3.org/2000/svg" xmlns:xlink="http://www.w3.org/1999/xlink" x="0px" y="0px"
	 viewBox="0 0 612 792" style="enable-background:new 0 0 612 792;" xml:space="preserve">
<style type="text/css">
	.st0{opacity:0.16;}
	.st1{fill:none;stroke:#000000;stroke-miterlimit:10;}
</style>
<g id="Layer_1">
	<g class="st0">
		<polyline class="st1" points="194.36,-59.65 193.08,116.14 0,116.14 		"/>
		<line class="st1" x1="193.08" y1="116.14" x2="496.38" y2="116.21"/>
		<polyline class="st1" points="261.74,115.7 261.74,246.68 496.5,246.68 		"/>
	</g>
	<g class="st0">
		<polyline class="st1" points="69.3,-7.7 192.7,117.51 56.17,254.04 		"/>
		<line class="st1" x1="192.7" y1="117.51" x2="407.22" y2="-96.91"/>
		<polyline class="st1" points="240.93,68.65 333.55,161.26 499.55,-4.74 		"/>
	</g>
	<g class="st0">
		<polyline class="st1" points="57.12,252.65 55.84,428.44 -137.24,428.44 		"/>
		<line class="st1" x1="55.84" y1="428.44" x2="359.14" y2="428.51"/>
		<polyline class="st1" points="124.5,428 124.5,558.97 359.26,558.97 		"/>
	</g>
	<g class="st0">
		<polyline class="st1" points="447.82,767.53 573.03,644.13 709.56,780.67 		"/>
		<line class="st1" x1="573.03" y1="644.13" x2="358.61" y2="429.62"/>
		<polyline class="st1" points="524.17,595.9 616.78,503.29 450.78,337.28 		"/>
	</g>
	<g class="st0">
		<polyline class="st1" points="22.32,647.89 145.72,773.1 9.19,909.63 		"/>
		<line class="st1" x1="145.72" y1="773.1" x2="360.23" y2="558.69"/>
		<polyline class="st1" points="193.95,724.24 286.56,816.86 452.57,650.86 		"/>
	</g>
	<g class="st0">
		<polyline class="st1" points="622.41,413.63 499.01,288.42 635.55,151.89 		"/>
		<line class="st1" x1="499.01" y1="288.42" x2="284.5" y2="502.84"/>
		<polyline class="st1" points="450.78,337.28 360.17,246.68 192.16,410.67 		"/>
	</g>
</g>
<g id="Layer_2">
</g>
<g id="Layer_3">
</g>
</svg>
